<?xml version="1.0" encoding="utf-8"?>
<!-- Generator: Adobe Illustrator 23.0.5, SVG Export Plug-In . SVG Version: 6.00 Build 0)  -->
<svg version="1.1" id="Layer_1" xmlns="http://www.w3.org/2000/svg" xmlns:xlink="http://www.w3.org/1999/xlink" x="0px" y="0px"
	 viewBox="0 0 80 80" style="enable-background:new 0 0 80 80;" xml:space="preserve">
<style type="text/css">
	.st0{clip-path:url(#SVGID_2_);}
	.st1{fill:#FFFFFF;}
	.st2{fill:#59C19C;}
</style>
<g>
	<defs>
		<rect id="SVGID_1_" x="13.1" y="12.3" width="52.8" height="56.1"/>
	</defs>
	<clipPath id="SVGID_2_">
		<use xlink:href="#SVGID_1_"  style="overflow:visible;"/>
	</clipPath>
	<g class="st0">
		<ellipse class="st1" cx="39.6" cy="40.3" rx="13.2" ry="14"/>
		<path class="st2" d="M39.6,26.3c-2.6,0-5.2,0.8-7.3,2.4c-2.2,1.5-3.9,3.7-4.9,6.3c-1,2.6-1.3,5.4-0.8,8.1c0.5,2.7,1.8,5.2,3.6,7.2
			c1.8,2,4.2,3.3,6.8,3.8c2.6,0.5,5.2,0.3,7.6-0.8c2.4-1.1,4.5-2.9,5.9-5.2c1.5-2.3,2.2-5,2.2-7.8c0-3.7-1.4-7.3-3.9-9.9
			C46.4,27.8,43.1,26.3,39.6,26.3L39.6,26.3z M39.3,30.6h2.8c0.1,0,0.1,0,0.2,0c0.1,0,0.1,0.1,0.1,0.1c0,0,0.1,0.1,0.1,0.2
			c0,0.1,0,0.1,0,0.2l-2.2,8.1l2.1-0.7l-0.4,1.6l-2.1,0.7l-1.4,4.9h7.4c0.1,0,0.1,0,0.2,0c0.1,0,0.1,0.1,0.1,0.1
			c0,0,0.1,0.1,0.1,0.2c0,0.1,0,0.1,0,0.2l-0.6,2.3c0,0.1-0.1,0.2-0.2,0.3C45.2,48.9,45.1,49,45,49H33.8l1.9-6.8l-2.1,0.7l0.5-1.6
			l2.1-0.7l2.7-9.6c0-0.1,0.1-0.2,0.2-0.3C39.1,30.7,39.2,30.6,39.3,30.6L39.3,30.6z"/>
	</g>
</g>
</svg>
