<?xml version="1.0" encoding="utf-8"?>
<!-- Generator: Adobe Illustrator 23.0.5, SVG Export Plug-In . SVG Version: 6.00 Build 0)  -->
<svg version="1.1" id="Layer_1" xmlns="http://www.w3.org/2000/svg" xmlns:xlink="http://www.w3.org/1999/xlink" x="0px" y="0px"
	 viewBox="0 0 770 334" style="enable-background:new 0 0 770 334;" xml:space="preserve">
<style type="text/css">
	.st0{fill:#35068C;}
	.st1{fill:#FFFFFF;}
	.st2{fill:#C4C4C4;}
	.st3{clip-path:url(#SVGID_2_);}
	.st4{fill:url(#SVGID_3_);}
	.st5{fill:#F2F2F2;}
	.st6{opacity:0.1;fill:#8FFFBE;enable-background:new    ;}
	.st7{fill:#8FFFBE;}
	.st8{fill:#4610AD;}
	.st9{fill:#6374C3;}
	.st10{opacity:0.1;fill:#FF7676;enable-background:new    ;}
	.st11{fill:#FF7676;}
	.st12{fill:#59C19C;}
	.st13{fill:url(#SVGID_4_);}
	.st14{fill:none;stroke:#FFFFFF;}
	.st15{font-family:'MyriadPro-Regular';}
	.st16{font-size:15px;}
	.st17{fill:none;stroke:#FFFFFF;stroke-miterlimit:10;}
</style>
<g>
	<path class="st0" d="M168,0h578c8.8,0,16,7.2,16,16v302c0,8.8-7.2,16-16,16H168c-8.8,0-16-7.2-16-16V16C152,7.2,159.2,0,168,0z"/>
</g>
<path class="st1" d="M374,54h1.8v-3.4h1.9c2.4,0,3.6-1.4,3.6-3.4c0-1.9-1.2-3.4-3.6-3.4H374V54z M375.8,49v-3.7h1.7
	c1.4,0,2,0.7,2,1.8s-0.6,1.9-2,1.9H375.8z M382.9,54h1.8v-4.5c0-1,0.7-1.7,1.7-1.7c0.3,0,0.7,0.1,0.8,0.1v-1.7c-0.2,0-0.4,0-0.6,0
	c-0.9,0-1.6,0.5-1.9,1.4h-0.1v-1.3h-1.7V54z M388.5,54h1.8v-7.6h-1.8V54z M389.4,45.3c0.6,0,1-0.4,1-1c0-0.5-0.5-1-1-1
	c-0.6,0-1,0.4-1,1C388.3,44.8,388.8,45.3,389.4,45.3z M395.5,54.1c1.9,0,3.1-1.1,3.3-2.8H397c-0.2,0.8-0.7,1.3-1.5,1.3
	c-1.1,0-1.9-0.9-1.9-2.5c0-1.5,0.7-2.5,1.9-2.5c0.9,0,1.4,0.6,1.5,1.3h1.7c-0.1-1.7-1.4-2.7-3.3-2.7c-2.2,0-3.6,1.6-3.6,3.9
	C391.8,52.5,393.2,54.1,395.5,54.1z M403.6,54.1c1.8,0,3-0.9,3.3-2.2l-1.7-0.2c-0.2,0.6-0.8,1-1.6,1c-1.2,0-1.9-0.8-1.9-2.1h5.3
	v-0.6c0-2.7-1.6-3.9-3.5-3.9c-2.2,0-3.6,1.6-3.6,4C399.9,52.6,401.3,54.1,403.6,54.1z M401.7,49.5c0.1-1,0.8-1.8,1.9-1.8
	c1,0,1.7,0.8,1.7,1.8H401.7z"/>
<path class="st1" d="M503.7,47.3c-0.3-2.3-2.1-3.6-4.3-3.6c-2.7,0-4.7,1.9-4.7,5.2c0,3.3,2,5.2,4.7,5.2c2.4,0,4-1.6,4.3-3.5l-1.9,0
	c-0.2,1.2-1.2,1.9-2.4,1.9c-1.7,0-2.8-1.2-2.8-3.6c0-2.3,1.2-3.6,2.8-3.6c1.2,0,2.2,0.7,2.4,1.9H503.7z M507.1,49.5
	c0-1.1,0.7-1.7,1.6-1.7c0.9,0,1.5,0.6,1.5,1.6V54h1.8v-4.9c0-1.8-1-2.9-2.6-2.9c-1.2,0-1.9,0.5-2.3,1.4h-0.1v-3.8h-1.8V54h1.8V49.5z
	 M516.1,54.2c1.2,0,1.9-0.6,2.2-1.2h0.1v1h1.7v-5.1c0-2-1.6-2.6-3.1-2.6c-1.6,0-2.8,0.7-3.2,2.1l1.7,0.2c0.2-0.5,0.7-1,1.6-1
	c0.8,0,1.3,0.4,1.3,1.2v0c0,0.5-0.5,0.5-1.9,0.7c-1.5,0.2-2.9,0.6-2.9,2.3C513.6,53.4,514.7,54.2,516.1,54.2z M516.6,52.8
	c-0.8,0-1.3-0.3-1.3-1c0-0.7,0.6-1,1.4-1.1c0.5-0.1,1.4-0.2,1.7-0.4v0.9C518.3,52.1,517.7,52.8,516.6,52.8z M523.8,49.5
	c0-1.1,0.7-1.7,1.6-1.7c0.9,0,1.5,0.6,1.5,1.6V54h1.8v-4.9c0-1.8-1-2.9-2.6-2.9c-1.1,0-1.9,0.5-2.3,1.4h-0.1v-1.3H522V54h1.8V49.5z
	 M533.8,57c2.1,0,3.6-0.9,3.6-2.9v-7.8h-1.8v1.3h-0.1c-0.3-0.6-0.8-1.4-2.2-1.4c-1.8,0-3.2,1.4-3.2,3.9c0,2.5,1.4,3.7,3.1,3.7
	c1.3,0,1.9-0.7,2.2-1.3h0.1v1.4c0,1.1-0.7,1.6-1.8,1.6c-1.1,0-1.6-0.5-1.8-1l-1.6,0.4C530.8,56.2,531.9,57,533.8,57z M533.8,52.5
	c-1.2,0-1.8-0.9-1.8-2.3c0-1.4,0.6-2.4,1.8-2.4c1.2,0,1.8,1,1.8,2.4C535.6,51.6,535,52.5,533.8,52.5z M542.6,54.1
	c1.8,0,3-0.9,3.3-2.2l-1.7-0.2c-0.2,0.6-0.8,1-1.6,1c-1.2,0-1.9-0.8-1.9-2.1h5.3v-0.6c0-2.7-1.6-3.9-3.5-3.9c-2.2,0-3.6,1.6-3.6,4
	C538.9,52.6,540.3,54.1,542.6,54.1z M540.7,49.5c0.1-1,0.8-1.8,1.8-1.8c1,0,1.7,0.8,1.7,1.8H540.7z"/>
<path class="st1" d="M637.4,43.8h-2l3.6,10.2h2.3l3.6-10.2h-2l-2.6,8H640L637.4,43.8z M648.6,54.1c2.2,0,3.7-1.6,3.7-3.9
	c0-2.4-1.4-3.9-3.7-3.9c-2.2,0-3.7,1.6-3.7,3.9C644.9,52.6,646.3,54.1,648.6,54.1z M648.6,52.7c-1.2,0-1.8-1.1-1.8-2.5
	s0.6-2.5,1.8-2.5c1.2,0,1.8,1.1,1.8,2.5S649.8,52.7,648.6,52.7z M655.6,43.8h-1.8V54h1.8V43.8z M662.3,50.8c0,1.2-0.8,1.7-1.6,1.7
	c-0.9,0-1.4-0.6-1.4-1.6v-4.6h-1.8v4.9c0,1.8,1,2.9,2.5,2.9c1.1,0,1.9-0.6,2.3-1.5h0.1V54h1.7v-7.6h-1.8V50.8z M665.9,54h1.8v-4.6
	c0-0.9,0.6-1.6,1.4-1.6c0.8,0,1.3,0.5,1.3,1.3V54h1.8v-4.8c0-0.9,0.5-1.5,1.4-1.5c0.7,0,1.3,0.4,1.3,1.4V54h1.8v-5.1
	c0-1.7-1-2.6-2.4-2.6c-1.1,0-2,0.5-2.3,1.4h-0.1c-0.3-0.9-1-1.4-2.1-1.4c-1,0-1.8,0.5-2.1,1.4h-0.1v-1.3h-1.7V54z M681.9,54.1
	c1.8,0,3-0.9,3.3-2.2l-1.7-0.2c-0.2,0.6-0.8,1-1.6,1c-1.2,0-1.9-0.8-1.9-2.1h5.3v-0.6c0-2.7-1.6-3.9-3.5-3.9c-2.2,0-3.6,1.6-3.6,4
	C678.2,52.6,679.6,54.1,681.9,54.1z M679.9,49.5c0.1-1,0.8-1.8,1.8-1.8c1,0,1.7,0.8,1.7,1.8H679.9z M690.7,49.8c0,2.5,0.7,4.5,2,6.3
	h1.7c-1-1.3-1.8-4-1.8-6.3c0-2.4,0.8-5,1.8-6.3h-1.7C691.4,45.3,690.7,47.4,690.7,49.8z M695.7,54h7v-1.5h-4.4v-0.1l1.8-1.8
	c2-1.9,2.5-2.8,2.5-4c0-1.7-1.4-3-3.4-3c-2,0-3.5,1.3-3.5,3.2h1.8c0-1,0.7-1.7,1.7-1.7c1,0,1.7,0.6,1.7,1.6c0,0.9-0.5,1.5-1.5,2.5
	l-3.5,3.5V54z M704,52.1h4.9V54h1.8v-1.9h1.3v-1.5h-1.3v-6.8h-2.3l-4.3,6.8V52.1z M708.9,50.6h-3v-0.1l2.9-4.6h0.1V50.6z
	 M715.4,49.5c0-1.1,0.7-1.7,1.7-1.7c0.9,0,1.5,0.6,1.5,1.6V54h1.8v-4.9c0-1.8-1-2.9-2.6-2.9c-1.2,0-1.9,0.5-2.3,1.4h-0.1v-3.8h-1.8
	V54h1.8V49.5z M725.4,49.8c0-2.5-0.7-4.5-2-6.3h-1.7c1,1.3,1.8,4,1.8,6.3c0,2.4-0.8,5-1.8,6.3h1.7C724.7,54.4,725.4,52.3,725.4,49.8
	z"/>
<circle class="st2" cx="212" cy="96" r="20"/>
<g>
	<defs>
		<rect id="SVGID_1_" x="192" y="76" width="40" height="40"/>
	</defs>
	<clipPath id="SVGID_2_">
		<use xlink:href="#SVGID_1_"  style="overflow:visible;"/>
	</clipPath>
	<g class="st3">
		
			<linearGradient id="SVGID_3_" gradientUnits="userSpaceOnUse" x1="212.0001" y1="257.8958" x2="212.0001" y2="217.8959" gradientTransform="matrix(1 0 0 -1 0 333.896)">
			<stop  offset="0" style="stop-color:#F9AA4B"/>
			<stop  offset="1" style="stop-color:#F7931A"/>
		</linearGradient>
		<path class="st4" d="M231.4,100.8c-2.7,10.7-13.5,17.2-24.2,14.6c-10.7-2.7-17.2-13.5-14.6-24.2c2.7-10.7,13.5-17.2,24.2-14.6
			C227.5,79.3,234.1,90.1,231.4,100.8z"/>
		<path class="st1" d="M221.5,93.5c0.4-2.7-1.6-4.1-4.4-5l0.9-3.6l-2.2-0.5l-0.9,3.5c-0.6-0.1-1.2-0.3-1.8-0.4l0.9-3.5l-2.2-0.5
			l-0.9,3.6c-0.5-0.1-1-0.2-1.4-0.3v0l-3-0.8l-0.6,2.3c0,0,1.6,0.4,1.6,0.4c0.9,0.2,1,0.8,1,1.3l-1,4.1c0.1,0,0.1,0,0.2,0.1
			c-0.1,0-0.2,0-0.2-0.1l-1.4,5.8c-0.1,0.3-0.4,0.7-1,0.5c0,0-1.6-0.4-1.6-0.4l-1.1,2.5l2.9,0.7c0.5,0.1,1,0.3,1.6,0.4l-0.9,3.6
			l2.2,0.5l0.9-3.6c0.6,0.2,1.2,0.3,1.8,0.5l-0.9,3.6l2.2,0.5l0.9-3.6c3.8,0.7,6.6,0.4,7.7-3c1-2.7,0-4.3-2-5.3
			C220.2,96.4,221.2,95.4,221.5,93.5z M216.5,100.5c-0.7,2.7-5.3,1.3-6.8,0.9l1.2-4.8C212.4,97,217.2,97.7,216.5,100.5z M217.2,93.5
			c-0.6,2.5-4.4,1.2-5.7,0.9l1.1-4.4C213.9,90.3,217.8,90.9,217.2,93.5z"/>
	</g>
</g>
<path class="st5" d="M377.6,103.5h0.9v-1.3c2.4-0.2,3.7-1.6,3.7-3.3c0-2.2-2.1-2.9-3.3-3.2l-0.5-0.1v-4c1.2,0.1,2.1,0.8,2.2,1.8h1.4
	c-0.1-1.7-1.5-2.9-3.6-3.1v-1.3h-0.9v1.3c-1.9,0.2-3.4,1.4-3.4,3.2c0,1.6,1.1,2.5,3,3l0.5,0.1v4.3c-1.2-0.1-2.2-0.7-2.3-1.9h-1.5
	c0.1,1.8,1.5,3,3.7,3.2V103.5z M378.6,100.9v-4l0,0c1.2,0.3,2.3,0.8,2.3,1.9C380.9,100,379.9,100.8,378.6,100.9z M377.6,95.3
	c-0.9-0.2-2-0.7-2-1.9c0-1,0.8-1.7,2-1.9V95.3z M388.3,102.2c2.4,0,3.9-1.7,3.9-3.9c0-2.3-1.7-3.9-3.7-3.9c-1.2,0-2.2,0.6-2.9,1.5
	h-0.1c0-2.8,1.1-4.5,2.9-4.5c1.2,0,2,0.8,2.2,1.8h1.4c-0.3-1.8-1.7-3.1-3.6-3.1c-2.6,0-4.2,2.3-4.2,6.4
	C384.2,100.9,386.4,102.1,388.3,102.2z M388.3,100.9c-1.5,0-2.5-1.2-2.5-2.6c0-1.4,1.1-2.6,2.6-2.6c1.4,0,2.5,1.2,2.5,2.6
	C390.8,99.7,389.7,100.9,388.3,100.9z M394.8,102h1.5l5.2-10.3v-1.3H394v1.3h6v0.1L394.8,102z M407,102.2c2.2,0,3.8-1.6,3.8-3.9
	c0-2.3-1.6-3.9-3.7-3.9c-0.8,0-1.5,0.3-2,0.7h-0.1l0.4-3.4h4.9v-1.3h-6l-0.7,5.7l1.3,0.2c0.5-0.3,1.3-0.6,2-0.6
	c1.5,0,2.6,1.1,2.6,2.7c0,1.5-1,2.6-2.5,2.6c-1.2,0-2.1-0.8-2.3-1.8h-1.4C403.5,100.9,405,102.2,407,102.2z M416.9,102.2
	c2.6,0,4-2.2,4-6c0-3.8-1.5-6-4-6c-2.5,0-4,2.2-4,6C412.9,100,414.3,102.2,416.9,102.2z M416.9,100.9c-1.7,0-2.7-1.7-2.7-4.7
	c0-3,1-4.8,2.7-4.8s2.7,1.7,2.7,4.8C419.6,99.2,418.6,100.9,416.9,100.9z"/>
<circle class="st6" cx="502" cy="97" r="8"/>
<path class="st7" d="M505.4,98.7l-3.2-3.7c-0.1-0.1-0.3-0.1-0.4,0l-3.2,3.7c-0.1,0.1,0,0.3,0.2,0.3h6.4
	C505.4,99.1,505.5,98.9,505.4,98.7z"/>
<path class="st7" d="M522.6,100h1.3v-3.1h3.1v-1.3h-3.1v-3.1h-1.3v3.1h-3.1v1.3h3.1V100z M529.8,102h1.5l5.2-10.3v-1.3H529v1.3h6
	v0.1L529.8,102z M537.5,102.1c0.6,0,1-0.5,1-1c0-0.6-0.5-1-1-1c-0.6,0-1,0.5-1,1C536.5,101.6,537,102.1,537.5,102.1z M544.4,102.2
	c2.3,0,3.9-1.4,3.9-3.3c0-1.5-0.9-2.6-2.3-2.8V96c1.2-0.4,1.9-1.3,1.9-2.6c0-1.6-1.3-3.1-3.5-3.1c-2,0-3.7,1.2-3.8,3.1h1.4
	c0.1-1.2,1.2-1.8,2.4-1.8c1.3,0,2.1,0.8,2.1,2c0,1.2-1,2-2.3,2h-0.9v1.3h0.9c1.8,0,2.8,0.9,2.8,2.2c0,1.2-1.1,2.1-2.6,2.1
	c-1.3,0-2.4-0.7-2.5-1.8h-1.4C540.6,100.9,542.2,102.2,544.4,102.2z M556.6,99.8c0,1.3,0.8,2.3,2.3,2.3c1.5,0,2.3-1.1,2.3-2.3v-0.6
	c0-1.3-0.8-2.3-2.3-2.3c-1.5,0-2.3,1.1-2.3,2.3V99.8z M550.8,93.2c0,1.3,0.8,2.3,2.3,2.3c1.5,0,2.3-1.1,2.3-2.3v-0.6
	c0-1.3-0.8-2.3-2.3-2.3c-1.5,0-2.3,1.1-2.3,2.3V93.2z M551.3,102h1.3l8-11.6h-1.3L551.3,102z M557.8,99.2c0-0.7,0.3-1.4,1.1-1.4
	c0.8,0,1.1,0.7,1.1,1.4v0.6c0,0.7-0.3,1.4-1.1,1.4c-0.8,0-1.1-0.7-1.1-1.4V99.2z M552,92.5c0-0.7,0.3-1.4,1.1-1.4
	c0.8,0,1.1,0.7,1.1,1.4v0.6c0,0.7-0.3,1.4-1.1,1.4c-0.8,0-1.1-0.7-1.1-1.4V92.5z"/>
<path class="st5" d="M639.6,103.5h0.9v-1.3c2.4-0.2,3.7-1.6,3.7-3.3c0-2.2-2.1-2.9-3.3-3.2l-0.5-0.1v-4c1.2,0.1,2.1,0.8,2.2,1.8h1.4
	c-0.1-1.7-1.5-2.9-3.6-3.1v-1.3h-0.9v1.3c-1.9,0.2-3.4,1.4-3.4,3.2c0,1.6,1.1,2.5,3,3l0.5,0.1v4.3c-1.2-0.1-2.2-0.7-2.3-1.9h-1.5
	c0.1,1.8,1.5,3,3.7,3.2V103.5z M640.6,100.9v-4l0,0c1.2,0.3,2.3,0.8,2.3,1.9C642.9,100,641.9,100.8,640.6,100.9z M639.6,95.3
	c-0.9-0.2-2-0.7-2-1.9c0-1,0.8-1.7,2-1.9V95.3z M650.3,102.2c2.3,0,3.9-1.4,3.9-3.3c0-1.5-0.9-2.6-2.3-2.8V96
	c1.2-0.4,1.9-1.3,1.9-2.6c0-1.6-1.3-3.1-3.5-3.1c-2,0-3.7,1.2-3.8,3.1h1.4c0.1-1.2,1.2-1.8,2.4-1.8c1.3,0,2.1,0.8,2.1,2
	c0,1.2-1,2-2.3,2h-0.9v1.3h0.9c1.8,0,2.8,0.9,2.8,2.2c0,1.2-1.1,2.1-2.6,2.1c-1.3,0-2.4-0.7-2.5-1.8h-1.4
	C646.5,100.9,648.1,102.2,650.3,102.2z M656.3,99.6h5.5v2.4h1.3v-2.4h1.6v-1.3h-1.6v-8h-1.7l-5.1,8.1V99.6z M661.8,98.4h-4v-0.1
	l3.9-6.1h0.1V98.4z M666.9,102h7.3v-1.3h-5.4v-0.1l2.6-2.8c2-2.1,2.6-3.1,2.6-4.4c0-1.8-1.5-3.2-3.5-3.2c-2,0-3.6,1.4-3.6,3.4h1.3
	c0-1.3,0.9-2.2,2.2-2.2c1.3,0,2.2,0.8,2.2,2c0,1.1-0.6,1.9-2,3.3l-3.8,4.2V102z M680.3,102.2c2.6,0,4-2.2,4-6c0-3.8-1.5-6-4-6
	c-2.5,0-4,2.2-4,6C676.3,100,677.8,102.2,680.3,102.2z M680.3,100.9c-1.7,0-2.7-1.7-2.7-4.7c0-3,1-4.8,2.7-4.8s2.7,1.7,2.7,4.8
	C683,99.2,682,100.9,680.3,100.9z M686.5,102h7.3v-1.3h-5.4v-0.1l2.6-2.8c2-2.1,2.6-3.1,2.6-4.4c0-1.8-1.5-3.2-3.5-3.2
	c-2,0-3.6,1.4-3.6,3.4h1.3c0-1.3,0.9-2.2,2.2-2.2c1.3,0,2.2,0.8,2.2,2c0,1.1-0.6,1.9-2,3.3l-3.8,4.2V102z M700.3,90.4h-1.4l-2.9,1.9
	v1.4l2.8-1.9h0.1V102h1.4V90.4z M703.4,99.6h5.5v2.4h1.3v-2.4h1.6v-1.3h-1.6v-8h-1.7l-5.1,8.1V99.6z M708.9,98.4h-4v-0.1l3.9-6.1
	h0.1V98.4z"/>
<path class="st8" d="M96,144h578c8.8,0,16,7.2,16,16v47c0,8.8-7.2,16-16,16H96c-8.8,0-16-7.2-16-16v-47C80,151.2,87.2,144,96,144z"
	/>
<path class="st9" d="M159.9,184c0,11-8.9,19.9-19.9,19.9c-11,0-19.9-8.9-19.9-19.9c0-11,8.9-19.9,19.9-19.9
	C151,164.1,159.9,173,159.9,184z"/>
<path class="st1" d="M139.9,174.8l-0.1,0.4v12.1l0.1,0.1l5.6-3.3L139.9,174.8z"/>
<path class="st1" d="M139.9,174.8l-5.6,9.3l5.6,3.3v-5.9V174.8z"/>
<path class="st1" d="M139.9,189.3L139.9,189.3l-0.1,4.4l0.1,0.2l5.6-7.9L139.9,189.3z"/>
<path class="st1" d="M139.9,193.9v-4.6l-5.6-3.3L139.9,193.9z"/>
<path class="st1" d="M139.9,187.4l5.6-3.3l-5.6-2.6V187.4z"/>
<path class="st1" d="M134.3,184.1l5.6,3.3v-5.9L134.3,184.1z"/>
<path class="st5" d="M305.6,190.5h0.9v-1.3c2.4-0.2,3.7-1.6,3.7-3.3c0-2.2-2.1-2.9-3.3-3.2l-0.5-0.1v-4c1.2,0.1,2.1,0.8,2.2,1.8h1.4
	c-0.1-1.7-1.5-2.9-3.6-3.1v-1.3h-0.9v1.3c-1.9,0.2-3.4,1.4-3.4,3.2c0,1.6,1.1,2.5,3,3l0.5,0.1v4.3c-1.2-0.1-2.2-0.7-2.3-1.9h-1.5
	c0.1,1.8,1.5,3,3.7,3.2V190.5z M306.6,187.9v-4l0,0c1.2,0.3,2.3,0.8,2.3,1.9C308.9,187,307.9,187.8,306.6,187.9z M305.6,182.3
	c-0.9-0.2-2-0.7-2-1.9c0-1,0.8-1.7,2-1.9V182.3z M316.5,177.4h-1.4l-2.9,1.9v1.4l2.8-1.9h0.1V189h1.4V177.4z M323.5,189.2
	c2.2,0,3.8-1.6,3.8-3.9c0-2.3-1.6-3.9-3.7-3.9c-0.8,0-1.5,0.3-2,0.7h-0.1l0.4-3.4h4.9v-1.3h-6l-0.7,5.7l1.3,0.2
	c0.5-0.3,1.3-0.6,2-0.6c1.5,0,2.6,1.1,2.6,2.7c0,1.5-1,2.6-2.5,2.6c-1.2,0-2.1-0.8-2.3-1.8h-1.4C320,187.9,321.5,189.2,323.5,189.2z
	 M333.4,189.2c2.4,0,3.9-1.7,3.9-3.9c0-2.3-1.7-3.9-3.7-3.9c-1.2,0-2.2,0.6-2.9,1.5h-0.1c0-2.8,1.1-4.5,2.9-4.5c1.2,0,2,0.8,2.2,1.8
	h1.4c-0.3-1.8-1.7-3.1-3.6-3.1c-2.6,0-4.2,2.3-4.2,6.4C329.4,187.9,331.5,189.1,333.4,189.2z M333.4,187.9c-1.5,0-2.5-1.2-2.5-2.6
	c0-1.4,1.1-2.6,2.6-2.6c1.4,0,2.5,1.2,2.5,2.6C336,186.7,334.9,187.9,333.4,187.9z M340,189.1c0.6,0,1-0.5,1-1c0-0.6-0.5-1-1-1
	c-0.6,0-1,0.5-1,1C339,188.6,339.5,189.1,340,189.1z M346.8,189.2c2.3,0,3.9-1.4,4-3.3c0-1.5-1-2.7-2.3-3v-0.1
	c1.1-0.3,1.8-1.4,1.8-2.6c0-1.8-1.5-3.1-3.5-3.1c-2,0-3.5,1.3-3.5,3.1c0,1.2,0.7,2.3,1.8,2.6v0.1c-1.3,0.2-2.3,1.5-2.3,3
	C342.8,187.8,344.4,189.2,346.8,189.2z M346.8,187.9c-1.6,0-2.6-0.8-2.6-2.1c0-1.3,1.1-2.3,2.6-2.3c1.5,0,2.6,0.9,2.6,2.3
	C349.3,187.1,348.4,187.9,346.8,187.9z M346.8,182.4c-1.3,0-2.2-0.8-2.2-2c0-1.2,0.9-2,2.2-2c1.3,0,2.1,0.8,2.2,2
	C348.9,181.6,348,182.4,346.8,182.4z M356.9,189.2c2.3,0,3.9-1.4,3.9-3.3c0-1.5-0.9-2.6-2.3-2.8V183c1.2-0.4,1.9-1.3,1.9-2.6
	c0-1.6-1.3-3.1-3.5-3.1c-2,0-3.7,1.2-3.8,3.1h1.4c0.1-1.2,1.2-1.8,2.4-1.8c1.3,0,2.1,0.8,2.1,2c0,1.2-1,2-2.3,2h-0.9v1.3h0.9
	c1.8,0,2.8,0.9,2.8,2.2c0,1.2-1.1,2.1-2.6,2.1c-1.3,0-2.4-0.7-2.5-1.8h-1.4C353,187.9,354.6,189.2,356.9,189.2z"/>
<circle class="st10" cx="430" cy="184" r="8"/>
<path class="st11" d="M433.2,181.9h-6.4c-0.2,0-0.3,0.2-0.2,0.3l3.2,3.7c0.1,0.1,0.3,0.1,0.4,0l3.2-3.7
	C433.5,182.1,433.4,181.9,433.2,181.9z"/>
<path class="st11" d="M452.2,182.6h-5.1v1.3h5.1V182.6z M458.4,189.2c2.6,0,4-2.2,4-6c0-3.8-1.5-6-4-6c-2.5,0-4,2.2-4,6
	C454.3,187,455.8,189.2,458.4,189.2z M458.4,187.9c-1.7,0-2.7-1.7-2.7-4.7c0-3,1-4.8,2.7-4.8c1.7,0,2.7,1.7,2.7,4.8
	C461,186.2,460.1,187.9,458.4,187.9z M465.2,189.1c0.6,0,1-0.5,1-1c0-0.6-0.5-1-1-1c-0.6,0-1,0.5-1,1
	C464.1,188.6,464.6,189.1,465.2,189.1z M472.2,177.2c-2.4,0-3.9,1.8-3.9,3.9c0,2.3,1.7,3.9,3.7,3.9c1.2,0,2.2-0.6,2.9-1.5h0.1
	c0,2.9-1.1,4.5-2.9,4.5c-1.2,0-2-0.8-2.2-1.8h-1.4c0.3,1.8,1.7,3.1,3.6,3.1c2.6,0,4.2-2.3,4.2-6.5
	C476.2,178.4,474.1,177.2,472.2,177.2z M472.2,178.5c1.5,0,2.5,1.3,2.5,2.6c0,1.4-1.1,2.6-2.6,2.6c-1.4,0-2.5-1.2-2.5-2.6
	S470.7,178.5,472.2,178.5z M484.4,186.8c0,1.3,0.8,2.3,2.3,2.3c1.5,0,2.3-1.1,2.3-2.3v-0.6c0-1.3-0.8-2.3-2.3-2.3
	c-1.5,0-2.3,1.1-2.3,2.3V186.8z M478.6,180.2c0,1.3,0.8,2.3,2.3,2.3c1.5,0,2.3-1.1,2.3-2.3v-0.6c0-1.3-0.8-2.3-2.3-2.3
	c-1.5,0-2.3,1.1-2.3,2.3V180.2z M479,189h1.3l8-11.6H487L479,189z M485.5,186.2c0-0.7,0.3-1.4,1.1-1.4c0.8,0,1.1,0.7,1.1,1.4v0.6
	c0,0.7-0.3,1.4-1.1,1.4c-0.8,0-1.1-0.7-1.1-1.4V186.2z M479.7,179.5c0-0.7,0.3-1.4,1.1-1.4c0.8,0,1.1,0.7,1.1,1.4v0.6
	c0,0.7-0.3,1.4-1.1,1.4c-0.8,0-1.1-0.7-1.1-1.4V179.5z"/>
<path class="st5" d="M567.6,190.5h0.9v-1.3c2.4-0.2,3.7-1.6,3.7-3.3c0-2.2-2.1-2.9-3.3-3.2l-0.5-0.1v-4c1.2,0.1,2.1,0.8,2.2,1.8h1.4
	c-0.1-1.7-1.5-2.9-3.6-3.1v-1.3h-0.9v1.3c-1.9,0.2-3.4,1.4-3.4,3.2c0,1.6,1.1,2.5,3,3l0.5,0.1v4.3c-1.2-0.1-2.2-0.7-2.3-1.9h-1.5
	c0.1,1.8,1.5,3,3.7,3.2V190.5z M568.6,187.9v-4l0,0c1.2,0.3,2.3,0.8,2.3,1.9C570.9,187,569.9,187.8,568.6,187.9z M567.6,182.3
	c-0.9-0.2-2-0.7-2-1.9c0-1,0.8-1.7,2-1.9V182.3z M578.5,177.4h-1.4l-2.9,1.9v1.4l2.8-1.9h0.1V189h1.4V177.4z M585.6,189.2
	c2.3,0,3.9-1.4,4-3.3c0-1.5-1-2.7-2.3-3v-0.1c1.1-0.3,1.8-1.4,1.8-2.6c0-1.8-1.5-3.1-3.5-3.1c-2,0-3.5,1.3-3.5,3.1
	c0,1.2,0.7,2.3,1.8,2.6v0.1c-1.3,0.2-2.3,1.5-2.3,3C581.6,187.8,583.2,189.2,585.6,189.2z M585.6,187.9c-1.6,0-2.6-0.8-2.6-2.1
	c0-1.3,1.1-2.3,2.6-2.3c1.5,0,2.6,0.9,2.6,2.3C588.1,187.1,587.1,187.9,585.6,187.9z M585.6,182.4c-1.3,0-2.2-0.8-2.2-2
	c0-1.2,0.9-2,2.2-2c1.3,0,2.1,0.8,2.2,2C587.7,181.6,586.8,182.4,585.6,182.4z M595.8,177.4h-1.4l-2.9,1.9v1.4l2.8-1.9h0.1V189h1.4
	V177.4z M599.1,189h7.3v-1.3h-5.4v-0.1l2.6-2.8c2-2.1,2.6-3.1,2.6-4.4c0-1.8-1.5-3.2-3.5-3.2c-2,0-3.6,1.4-3.6,3.4h1.3
	c0-1.3,0.9-2.2,2.2-2.2c1.3,0,2.2,0.8,2.2,2c0,1.1-0.6,1.9-2,3.3l-3.8,4.2V189z M612.8,189.2c2.3,0,3.9-1.4,3.9-3.3
	c0-1.5-0.9-2.6-2.3-2.8V183c1.2-0.4,1.9-1.3,1.9-2.6c0-1.6-1.3-3.1-3.5-3.1c-2,0-3.7,1.2-3.8,3.1h1.4c0.1-1.2,1.2-1.8,2.4-1.8
	c1.3,0,2.1,0.8,2.1,2c0,1.2-1,2-2.3,2h-0.9v1.3h0.9c1.8,0,2.8,0.9,2.8,2.2c0,1.2-1.1,2.1-2.6,2.1c-1.3,0-2.4-0.7-2.5-1.8h-1.4
	C608.9,187.9,610.5,189.2,612.8,189.2z M622.7,189.2c2.2,0,3.8-1.6,3.8-3.9c0-2.3-1.6-3.9-3.7-3.9c-0.8,0-1.5,0.3-2,0.7h-0.1
	l0.4-3.4h4.9v-1.3h-6l-0.7,5.7l1.3,0.2c0.5-0.3,1.3-0.6,2-0.6c1.5,0,2.6,1.1,2.6,2.7c0,1.5-1,2.6-2.5,2.6c-1.2,0-2.1-0.8-2.3-1.8
	H619C619.1,187.9,620.7,189.2,622.7,189.2z M632.5,189.2c2.6,0,4-2.2,4-6c0-3.8-1.5-6-4-6c-2.5,0-4,2.2-4,6
	C628.5,187,630,189.2,632.5,189.2z M632.5,187.9c-1.7,0-2.7-1.7-2.7-4.7c0-3,1-4.8,2.7-4.8s2.7,1.7,2.7,4.8
	C635.2,186.2,634.2,187.9,632.5,187.9z"/>
<path class="st5" d="M377.6,277.5h0.9v-1.3c2.4-0.2,3.7-1.6,3.7-3.3c0-2.2-2.1-2.9-3.3-3.2l-0.5-0.1v-4c1.2,0.1,2.1,0.8,2.2,1.8h1.4
	c-0.1-1.7-1.5-2.9-3.6-3.1v-1.3h-0.9v1.3c-1.9,0.2-3.4,1.4-3.4,3.2c0,1.6,1.1,2.5,3,3l0.5,0.1v4.3c-1.2-0.1-2.2-0.7-2.3-1.9h-1.5
	c0.1,1.8,1.5,3,3.7,3.2V277.5z M378.6,274.9v-4l0,0c1.2,0.3,2.3,0.8,2.3,1.9C380.9,274,379.9,274.8,378.6,274.9z M377.6,269.3
	c-0.9-0.2-2-0.7-2-1.9c0-1,0.8-1.7,2-1.9V269.3z M388.1,276.2c2.3,0,3.9-1.4,4-3.3c0-1.5-1-2.7-2.3-3v-0.1c1.1-0.3,1.8-1.4,1.8-2.6
	c0-1.8-1.5-3.1-3.5-3.1c-2,0-3.5,1.3-3.5,3.1c0,1.2,0.7,2.3,1.8,2.6v0.1c-1.3,0.2-2.3,1.5-2.3,3
	C384.2,274.8,385.8,276.2,388.1,276.2z M388.1,274.9c-1.6,0-2.6-0.8-2.6-2.1c0-1.3,1.1-2.3,2.6-2.3c1.5,0,2.6,0.9,2.6,2.3
	C390.7,274.1,389.7,274.9,388.1,274.9z M388.1,269.4c-1.3,0-2.2-0.8-2.2-2c0-1.2,0.9-2,2.2-2c1.3,0,2.1,0.8,2.2,2
	C390.3,268.6,389.4,269.4,388.1,269.4z M397.9,276.2c2.2,0,3.8-1.6,3.8-3.9c0-2.3-1.6-3.9-3.7-3.9c-0.8,0-1.5,0.3-2,0.7h-0.1
	l0.4-3.4h4.9v-1.3h-6l-0.7,5.7l1.3,0.2c0.5-0.3,1.3-0.6,2-0.6c1.5,0,2.6,1.1,2.6,2.7c0,1.5-1,2.6-2.5,2.6c-1.2,0-2.1-0.8-2.3-1.8
	h-1.4C394.4,274.9,395.9,276.2,397.9,276.2z M407.9,276.2c2.3,0,3.9-1.4,3.9-3.3c0-1.5-0.9-2.6-2.3-2.8V270c1.2-0.4,1.9-1.3,1.9-2.6
	c0-1.6-1.3-3.1-3.5-3.1c-2,0-3.7,1.2-3.8,3.1h1.4c0.1-1.2,1.2-1.8,2.4-1.8c1.3,0,2.1,0.8,2.1,2c0,1.2-1,2-2.3,2h-0.9v1.3h0.9
	c1.8,0,2.8,0.9,2.8,2.2c0,1.2-1.1,2.1-2.6,2.1c-1.3,0-2.4-0.7-2.5-1.8H404C404.1,274.9,405.7,276.2,407.9,276.2z M417.8,276.2
	c2.2,0,3.8-1.6,3.8-3.9c0-2.3-1.6-3.9-3.7-3.9c-0.8,0-1.5,0.3-2,0.7h-0.1l0.4-3.4h4.9v-1.3h-6l-0.7,5.7l1.3,0.2
	c0.5-0.3,1.3-0.6,2-0.6c1.5,0,2.6,1.1,2.6,2.7c0,1.5-1,2.6-2.5,2.6c-1.2,0-2.1-0.8-2.3-1.8h-1.4
	C414.3,274.9,415.8,276.2,417.8,276.2z"/>
<circle class="st6" cx="502" cy="271" r="8"/>
<path class="st7" d="M505.4,272.7l-3.2-3.7c-0.1-0.1-0.3-0.1-0.4,0l-3.2,3.7c-0.1,0.1,0,0.3,0.2,0.3h6.4
	C505.4,273.1,505.5,272.9,505.4,272.7z"/>
<path class="st7" d="M522.6,274h1.3v-3.1h3.1v-1.3h-3.1v-3.1h-1.3v3.1h-3.1v1.3h3.1V274z M533.5,276.2c2.3,0,3.9-1.4,4-3.3
	c0-1.5-1-2.7-2.3-3v-0.1c1.1-0.3,1.8-1.4,1.8-2.6c0-1.8-1.5-3.1-3.5-3.1c-2,0-3.5,1.3-3.5,3.1c0,1.2,0.7,2.3,1.8,2.6v0.1
	c-1.3,0.2-2.3,1.5-2.3,3C529.5,274.8,531.1,276.2,533.5,276.2z M533.5,274.9c-1.6,0-2.6-0.8-2.6-2.1c0-1.3,1.1-2.3,2.6-2.3
	c1.5,0,2.6,0.9,2.6,2.3C536,274.1,535.1,274.9,533.5,274.9z M533.5,269.4c-1.3,0-2.2-0.8-2.2-2c0-1.2,0.9-2,2.2-2
	c1.3,0,2.1,0.8,2.2,2C535.6,268.6,534.7,269.4,533.5,269.4z M540.3,276.1c0.6,0,1-0.5,1-1c0-0.6-0.5-1-1-1c-0.6,0-1,0.5-1,1
	C539.2,275.6,539.7,276.1,540.3,276.1z M543.7,276h7.3v-1.3h-5.4v-0.1l2.6-2.8c2-2.1,2.6-3.1,2.6-4.4c0-1.8-1.5-3.2-3.5-3.2
	c-2,0-3.6,1.4-3.6,3.4h1.3c0-1.3,0.9-2.2,2.2-2.2c1.3,0,2.2,0.8,2.2,2c0,1.1-0.6,1.9-2,3.3l-3.8,4.2V276z M559.3,273.8
	c0,1.3,0.8,2.3,2.3,2.3c1.5,0,2.3-1.1,2.3-2.3v-0.6c0-1.3-0.8-2.3-2.3-2.3c-1.5,0-2.3,1.1-2.3,2.3V273.8z M553.5,267.2
	c0,1.3,0.8,2.3,2.3,2.3c1.5,0,2.3-1.1,2.3-2.3v-0.6c0-1.3-0.8-2.3-2.3-2.3c-1.5,0-2.3,1.1-2.3,2.3V267.2z M553.9,276h1.3l8-11.6
	h-1.3L553.9,276z M560.4,273.2c0-0.7,0.3-1.4,1.1-1.4c0.8,0,1.1,0.7,1.1,1.4v0.6c0,0.7-0.3,1.4-1.1,1.4c-0.8,0-1.1-0.7-1.1-1.4
	V273.2z M554.6,266.5c0-0.7,0.3-1.4,1.1-1.4c0.8,0,1.1,0.7,1.1,1.4v0.6c0,0.7-0.3,1.4-1.1,1.4c-0.8,0-1.1-0.7-1.1-1.4V266.5z"/>
<path class="st5" d="M639.6,277.5h0.9v-1.3c2.4-0.2,3.7-1.6,3.7-3.3c0-2.2-2.1-2.9-3.3-3.2l-0.5-0.1v-4c1.2,0.1,2.1,0.8,2.2,1.8h1.4
	c-0.1-1.7-1.5-2.9-3.6-3.1v-1.3h-0.9v1.3c-1.9,0.2-3.4,1.4-3.4,3.2c0,1.6,1.1,2.5,3,3l0.5,0.1v4.3c-1.2-0.1-2.2-0.7-2.3-1.9h-1.5
	c0.1,1.8,1.5,3,3.7,3.2V277.5z M640.6,274.9v-4l0,0c1.2,0.3,2.3,0.8,2.3,1.9C642.9,274,641.9,274.8,640.6,274.9z M639.6,269.3
	c-0.9-0.2-2-0.7-2-1.9c0-1,0.8-1.7,2-1.9V269.3z M650,276.2c2.2,0,3.8-1.6,3.8-3.9c0-2.3-1.6-3.9-3.7-3.9c-0.8,0-1.5,0.3-2,0.7h-0.1
	l0.4-3.4h4.9v-1.3h-6l-0.7,5.7l1.3,0.2c0.5-0.3,1.3-0.6,2-0.6c1.5,0,2.6,1.1,2.6,2.7c0,1.5-1,2.6-2.5,2.6c-1.2,0-2.1-0.8-2.3-1.8
	h-1.4C646.5,274.9,648,276.2,650,276.2z M659.9,276.2c2.3,0,3.9-1.4,4-3.3c0-1.5-1-2.7-2.3-3v-0.1c1.1-0.3,1.8-1.4,1.8-2.6
	c0-1.8-1.5-3.1-3.5-3.1c-2,0-3.5,1.3-3.5,3.1c0,1.2,0.7,2.3,1.8,2.6v0.1c-1.3,0.2-2.3,1.5-2.3,3
	C655.9,274.8,657.5,276.2,659.9,276.2z M659.9,274.9c-1.6,0-2.6-0.8-2.6-2.1c0-1.3,1.1-2.3,2.6-2.3c1.5,0,2.6,0.9,2.6,2.3
	C662.4,274.1,661.4,274.9,659.9,274.9z M659.9,269.4c-1.3,0-2.2-0.8-2.2-2c0-1.2,0.9-2,2.2-2c1.3,0,2.1,0.8,2.2,2
	C662,268.6,661.1,269.4,659.9,269.4z M666,276h7.3v-1.3h-5.4v-0.1l2.6-2.8c2-2.1,2.6-3.1,2.6-4.4c0-1.8-1.5-3.2-3.5-3.2
	c-2,0-3.6,1.4-3.6,3.4h1.3c0-1.3,0.9-2.2,2.2-2.2c1.3,0,2.2,0.8,2.2,2c0,1.1-0.6,1.9-2,3.3L666,275V276z M679.5,276.2
	c2.6,0,4-2.2,4-6c0-3.8-1.5-6-4-6c-2.5,0-4,2.2-4,6C675.4,274,676.9,276.2,679.5,276.2z M679.5,274.9c-1.7,0-2.7-1.7-2.7-4.7
	c0-3,1-4.8,2.7-4.8c1.7,0,2.7,1.7,2.7,4.8C682.2,273.2,681.2,274.9,679.5,274.9z M689.6,276.2c2.3,0,3.9-1.4,3.9-3.3
	c0-1.5-0.9-2.6-2.3-2.8V270c1.2-0.4,1.9-1.3,1.9-2.6c0-1.6-1.3-3.1-3.5-3.1c-2,0-3.7,1.2-3.8,3.1h1.4c0.1-1.2,1.2-1.8,2.4-1.8
	c1.3,0,2.1,0.8,2.1,2c0,1.2-1,2-2.3,2h-0.9v1.3h0.9c1.8,0,2.8,0.9,2.8,2.2c0,1.2-1.1,2.1-2.6,2.1c-1.3,0-2.4-0.7-2.5-1.8h-1.4
	C685.8,274.9,687.4,276.2,689.6,276.2z M699.6,264.2c-2.4,0-3.9,1.8-3.9,3.9c0,2.3,1.7,3.9,3.7,3.9c1.2,0,2.2-0.6,2.9-1.5h0.1
	c0,2.9-1.1,4.5-2.9,4.5c-1.2,0-2-0.8-2.2-1.8h-1.4c0.3,1.8,1.7,3.1,3.6,3.1c2.6,0,4.2-2.3,4.2-6.5
	C703.6,265.4,701.5,264.2,699.6,264.2z M699.6,265.5c1.5,0,2.5,1.3,2.5,2.6c0,1.4-1.1,2.6-2.6,2.6s-2.5-1.2-2.5-2.6
	C697.1,266.6,698.1,265.5,699.6,265.5z M709.6,264.2c-2.4,0-3.9,1.8-3.9,3.9c0,2.3,1.7,3.9,3.7,3.9c1.2,0,2.2-0.6,2.9-1.5h0.1
	c0,2.9-1.1,4.5-2.9,4.5c-1.2,0-2-0.8-2.2-1.8h-1.4c0.3,1.8,1.7,3.1,3.6,3.1c2.6,0,4.2-2.3,4.2-6.5
	C713.6,265.4,711.5,264.2,709.6,264.2z M709.6,265.5c1.5,0,2.5,1.3,2.5,2.6c0,1.4-1.1,2.6-2.6,2.6s-2.5-1.2-2.5-2.6
	C707,266.6,708.1,265.5,709.6,265.5z"/>
<path class="st12" d="M231.9,271c0,11-8.9,19.9-19.9,19.9c-11,0-19.9-8.9-19.9-19.9c0-11,8.9-19.9,19.9-19.9
	C223,251.1,231.9,260,231.9,271z"/>
<path class="st1" d="M211.3,274.3l0.9-3.4l2.1-0.8l0.5-2l0,0l-2.1,0.8l1.5-5.6H210l-2,7.4l-1.6,0.6l-0.5,2l1.6-0.6l-1.2,4.3h11.3
	l0.7-2.7H211.3z"/>
<g>
	<linearGradient id="SVGID_4_" gradientUnits="userSpaceOnUse" x1="190.4946" y1="95.1766" x2="230.0968" y2="95.1766">
		<stop  offset="0" style="stop-color:#F9AA4B"/>
		<stop  offset="1" style="stop-color:#F7931A"/>
	</linearGradient>
	<circle class="st13" cx="210.3" cy="95.2" r="19.8"/>
	<path class="st1" d="M202.4,82.7l2.4,1.5l-0.1,17.9l-2.4-1.5l0,2.5l4.6,2.9l0,1.4l2.1,1.3l0-1.4l1.4,0.9l0,1.4l2.1,1.3l0-1.6
		c0.2,0.1,0.4,0.2,0.7,0.2c0.1,0,0.5,0.1,0.9,0.1c1.3,0,2.3-0.7,2.3-0.7c0.8-0.6,1.1-1.5,1.2-1.8c0.2-0.5,0.2-1,0.3-1.5
		c0.1-0.4,0.1-0.8,0.1-1.1c0-0.3-0.1-0.7,0-1.1c0.1-1.3,0.5-1.7,0.2-2.2c-0.2-0.3-0.4-0.2-1.4-0.7c-1.2-0.5-1.7-0.8-1.8-0.7
		c-0.1,0.2,1,0.8,1.3,2c0,0.1,0,0.5,0,1.2c0,1.5,0,1.8-0.1,2.1c-0.1,0.4-0.2,0.8-0.6,1.1c-0.5,0.5-1.1,0.5-1.4,0.5
		c-0.3,0-0.6,0-1.9-0.7c-0.5-0.2-1.1-0.6-2.2-1.2c-0.3-0.2-0.8-0.5-1-1c-0.1-0.2-0.1-0.4-0.1-0.4c0-5.2,0-10.4,0.1-15.5
		c1.1,0.4,1.9,0.9,2.4,1.3c0.9,0.6,1.3,1.1,1.5,1.3c0.4,0.4,0.6,0.8,0.8,1c0.7,2.1,0.5,2.9,0.2,3.1c-0.4,0.3-1,0-1.1,0.2
		c-0.1,0.2,0.2,0.5,1.2,1.4c1.1,1,1.3,1.2,1.5,1.2c0.1,0,0.2-0.2,0.3-1.2c0.1-0.7,0.1-1.1,0.1-1.5c0.1-0.9,0-1.6-0.1-2.1
		c-0.1-0.5-0.1-1.1-0.4-1.8c-0.2-0.4-0.4-0.9-0.7-1.4c-0.1-0.2-0.4-0.6-0.7-1c-0.3-0.4-0.7-0.8-1.2-1.3c-0.1-0.6-0.1-1.3-0.2-1.9
		c-0.7-0.5-1.4-0.9-2.1-1.4c0,0.5,0,1,0.1,1.5c-0.5-0.3-0.9-0.7-1.4-1l0-1.4l-2.1-1.3l-0.2,1.4l-4.4-2.9L202.4,82.7z"/>
</g>
<circle class="st9" cx="139.9" cy="183.6" r="19.8"/>
<path class="st1" d="M134.9,170.7l2.4,1.5l-0.1,17.9l-2.4-1.5l0,2.5l4.6,2.9l0,1.4l2.1,1.3l0-1.4l1.4,0.9l0,1.4l2.1,1.3l0-1.6
	c0.2,0.1,0.4,0.2,0.7,0.2c0.1,0,0.5,0.1,0.9,0.1c1.3,0,2.3-0.7,2.3-0.7c0.8-0.6,1.1-1.5,1.2-1.8c0.2-0.5,0.2-1,0.3-1.5
	c0.1-0.4,0.1-0.8,0.1-1.1c0-0.3-0.1-0.7,0-1.1c0.1-1.3,0.5-1.7,0.2-2.2c-0.2-0.3-0.4-0.2-1.4-0.7c-1.2-0.5-1.7-0.8-1.8-0.7
	c-0.1,0.2,1,0.8,1.3,2c0,0.1,0,0.5,0,1.2c0,1.5,0,1.8-0.1,2.1c-0.1,0.4-0.2,0.8-0.6,1.1c-0.5,0.5-1.1,0.5-1.4,0.5
	c-0.3,0-0.6,0-1.9-0.7c-0.5-0.2-1.1-0.6-2.2-1.2c-0.3-0.2-0.8-0.5-1-1c-0.1-0.2-0.1-0.4-0.1-0.4c0-5.2,0-10.4,0.1-15.5
	c1.1,0.4,1.9,0.9,2.4,1.3c0.9,0.6,1.3,1.1,1.5,1.3c0.4,0.4,0.6,0.8,0.8,1c0.7,2.1,0.5,2.9,0.2,3.1c-0.4,0.3-1,0-1.1,0.2
	c-0.1,0.2,0.2,0.5,1.2,1.4c1.1,1,1.3,1.2,1.5,1.2c0.1,0,0.2-0.2,0.3-1.2c0.1-0.7,0.1-1.1,0.1-1.5c0.1-0.9,0-1.6-0.1-2.1
	c-0.1-0.5-0.1-1.1-0.4-1.8c-0.2-0.4-0.4-0.9-0.7-1.4c-0.1-0.2-0.4-0.6-0.7-1c-0.3-0.4-0.7-0.8-1.2-1.3c-0.1-0.6-0.1-1.3-0.2-1.9
	c-0.7-0.5-1.4-0.9-2.1-1.4c0,0.5,0,1,0.1,1.5c-0.5-0.3-0.9-0.7-1.4-1l0-1.4l-2.1-1.3l-0.2,1.4l-4.4-2.9L134.9,170.7z"/>
<circle class="st12" cx="212.2" cy="271" r="19.8"/>
<path class="st1" d="M204.1,258l2.4,1.5l-0.1,17.9l-2.4-1.5l0,2.5l4.6,2.9l0,1.4l2.1,1.3l0-1.4l1.4,0.9l0,1.4l2.1,1.3l0-1.6
	c0.2,0.1,0.4,0.2,0.7,0.2c0.1,0,0.5,0.1,0.9,0.1c1.3,0,2.3-0.7,2.3-0.7c0.8-0.6,1.1-1.5,1.2-1.8c0.2-0.5,0.2-1,0.3-1.5
	c0.1-0.4,0.1-0.8,0.1-1.1c0-0.3-0.1-0.7,0-1.1c0.1-1.3,0.5-1.7,0.2-2.2c-0.2-0.3-0.4-0.2-1.4-0.7c-1.2-0.5-1.7-0.8-1.8-0.7
	c-0.1,0.2,1,0.8,1.3,2c0,0.1,0,0.5,0,1.2c0,1.5,0,1.8-0.1,2.1c-0.1,0.4-0.2,0.8-0.6,1.1c-0.5,0.5-1.1,0.5-1.4,0.5
	c-0.3,0-0.6,0-1.9-0.7c-0.5-0.2-1.1-0.6-2.2-1.2c-0.3-0.2-0.8-0.5-1-1c-0.1-0.2-0.1-0.4-0.1-0.4c0-5.2,0-10.4,0.1-15.5
	c1.1,0.4,1.9,0.9,2.4,1.3c0.9,0.6,1.3,1.1,1.5,1.3c0.4,0.4,0.6,0.8,0.8,1c0.7,2.1,0.5,2.9,0.2,3.1c-0.4,0.3-1,0-1.1,0.2
	c-0.1,0.2,0.2,0.5,1.2,1.4c1.1,1,1.3,1.2,1.5,1.2c0.1,0,0.2-0.2,0.3-1.2c0.1-0.7,0.1-1.1,0.1-1.5c0.1-0.9,0-1.6-0.1-2.1
	c-0.1-0.5-0.1-1.1-0.4-1.8c-0.2-0.4-0.4-0.9-0.7-1.4c-0.1-0.2-0.4-0.6-0.7-1c-0.3-0.4-0.7-0.8-1.2-1.3c-0.1-0.6-0.1-1.3-0.2-1.9
	c-0.7-0.5-1.4-0.9-2.1-1.4c0,0.5,0,1,0.1,1.5c-0.5-0.3-0.9-0.7-1.4-1l0-1.4l-2.1-1.3l-0.2,1.4l-4.4-2.9L204.1,258z"/>
<g>
	<g>
		<path class="st14" d="M250.9,91.4c0,2.3-1.2,4.4-3.8,4.4c-2.4,0-3.7-1.9-3.7-4.3c0-2.4,1.3-4.3,3.8-4.3
			C249.5,87.1,250.9,88.9,250.9,91.4z M244.1,91.4c0,1.9,1.1,3.8,3.1,3.8c2.2,0,3.1-1.8,3.1-3.8c0-2-1-3.7-3.1-3.7
			C245,87.7,244.1,89.5,244.1,91.4z"/>
		<path class="st14" d="M259.1,93.4c-0.4,1.3-1.4,2.3-3.2,2.3c-2.4,0-3.7-1.9-3.7-4.3c0-2.3,1.2-4.3,3.7-4.3c1.8,0,2.9,1,3.2,2.4
			h-0.6c-0.4-1.1-1.1-1.8-2.5-1.8c-2.1,0-3,1.9-3,3.7c0,1.8,0.9,3.7,3,3.7c1.4,0,2.1-0.7,2.5-1.7H259.1z"/>
		<path class="st14" d="M260.8,87.2h0.6v3.7h5v-3.7h0.6v8.4h-0.6v-4.1h-5v4.1h-0.6V87.2z"/>
		<path class="st14" d="M270.1,87.2v8.4h-0.6v-8.4H270.1z"/>
		<path class="st14" d="M277.4,91.5h-4.3V95h4.7l-0.1,0.6h-5.2v-8.4h5.1v0.6h-4.5v3.1h4.3V91.5z"/>
		<path class="st14" d="M279.5,95.6v-8.4h1c1.3,2,4.4,6.7,4.9,7.6h0c-0.1-1.2-0.1-2.4-0.1-3.8v-3.8h0.7v8.4h-0.9
			c-1.2-1.9-4.4-6.8-5-7.7h0c0.1,1.1,0,2.3,0,3.8v3.9H279.5z"/>
		<path class="st14" d="M294.8,95.6h-0.5c0-0.1-0.1-0.5-0.1-1.3c-0.3,0.6-1,1.4-2.7,1.4c-2.4,0-3.6-1.8-3.6-4.2
			c0-2.5,1.3-4.4,3.8-4.4c1.8,0,3,0.9,3.3,2.5h-0.6c-0.4-1.2-1.2-1.9-2.7-1.9c-2.1,0-3.1,1.6-3.1,3.8c0,1.9,0.9,3.7,3,3.7
			c2.1,0,2.7-1.4,2.7-3.2v-0.1h-2.7v-0.6h3.3V95.6z"/>
		<path class="st14" d="M301.5,95.6l-2.3-8.4h0.7c0.6,2,1.8,6.7,2,7.6h0c0.2-0.8,1.5-5.4,2.1-7.6h0.7c0.6,2.1,1.9,7,2,7.6h0
			c0.3-1.2,1.7-5.6,2.2-7.6h0.7l-2.6,8.4h-0.7c-0.6-2-1.9-6.8-2-7.6h0c-0.2,1.1-1.5,5.5-2.1,7.6H301.5z"/>
		<path class="st14" d="M312,92.7l-1.1,2.9h-0.7l3.1-8.4h0.8l3.2,8.4h-0.7l-1.1-2.9H312z M315.3,92.1c-0.9-2.5-1.4-3.7-1.6-4.3h0
			c-0.2,0.6-0.7,2.1-1.5,4.3H315.3z"/>
		<path class="st14" d="M319.4,91.7v3.9h-0.7v-8.4h3c1.7,0,2.5,0.9,2.5,2.2c0,1.1-0.6,1.8-1.6,2c0.9,0.2,1.4,0.8,1.4,2.2v0.3
			c0,0.6,0,1.4,0.1,1.7h-0.7c-0.2-0.4-0.1-1-0.1-1.8v-0.2c0-1.4-0.4-2-2-2H319.4z M319.4,91.1h2c1.5,0,2.2-0.6,2.2-1.7
			c0-1-0.7-1.6-2-1.6h-2.2V91.1z"/>
		<path class="st14" d="M327,91.7v3.9h-0.7v-8.4h3c1.7,0,2.5,0.9,2.5,2.2c0,1.1-0.6,1.8-1.6,2c0.9,0.2,1.4,0.8,1.4,2.2v0.3
			c0,0.6,0,1.4,0.1,1.7h-0.7c-0.2-0.4-0.1-1-0.1-1.8v-0.2c0-1.4-0.4-2-2-2H327z M327,91.1h2c1.5,0,2.2-0.6,2.2-1.7
			c0-1-0.7-1.6-2-1.6H327V91.1z"/>
		<path class="st14" d="M338.8,91.5h-4.3V95h4.7l-0.1,0.6h-5.2v-8.4h5.1v0.6h-4.5v3.1h4.3V91.5z"/>
		<path class="st14" d="M340.9,95.6v-8.4h1c1.3,2,4.4,6.7,4.9,7.6h0c-0.1-1.2-0.1-2.4-0.1-3.8v-3.8h0.7v8.4h-0.9
			c-1.2-1.9-4.4-6.8-5-7.7h0c0.1,1.1,0,2.3,0,3.8v3.9H340.9z"/>
	</g>
</g>
<text transform="matrix(1 0 0 1 242.6994 114.9777)" class="st5 st15 st16">2/4/2021</text>
<g>
	<g>
		<path class="st17" d="M167,173.4h0.6v4c0.6-0.6,2.8-2.7,4.2-4h0.8l-3.5,3.3l3.7,4.4H172l-3.3-4l-1.1,1v3.1H167V173.4z"/>
		<path class="st17" d="M174.5,178.4l-1,2.7h-0.6l2.8-7.7h0.7l2.9,7.7h-0.6l-1-2.7H174.5z M177.6,177.9c-0.9-2.3-1.3-3.4-1.5-3.9h0
			c-0.2,0.6-0.7,1.9-1.4,3.9H177.6z"/>
		<path class="st17" d="M182.4,173.9h-2.6v-0.5h5.8v0.5H183v7.2h-0.6V173.9z"/>
		<path class="st17" d="M187.5,178.4l-1,2.7h-0.6l2.8-7.7h0.7l2.9,7.7h-0.6l-1-2.7H187.5z M190.5,177.9c-0.9-2.3-1.3-3.4-1.5-3.9h0
			c-0.2,0.6-0.7,1.9-1.4,3.9H190.5z"/>
		<path class="st17" d="M193.7,173.4h0.6v4c0.6-0.6,2.8-2.7,4.2-4h0.8l-3.5,3.3l3.7,4.4h-0.7l-3.3-4l-1.1,1v3.1h-0.6V173.4z"/>
		<path class="st17" d="M201.3,178.4l-1,2.7h-0.6l2.8-7.7h0.7l2.9,7.7h-0.6l-1-2.7H201.3z M204.3,177.9c-0.9-2.3-1.3-3.4-1.5-3.9h0
			c-0.2,0.6-0.7,1.9-1.4,3.9H204.3z"/>
		<path class="st17" d="M210.5,179c0.2,1,0.9,1.6,2.2,1.6c1.4,0,1.9-0.7,1.9-1.5c0-0.9-0.4-1.4-2.1-1.8c-1.6-0.4-2.3-0.9-2.3-2
			c0-1,0.7-2,2.4-2c1.7,0,2.4,1,2.5,2h-0.6c-0.2-0.8-0.7-1.4-1.9-1.4c-1.1,0-1.7,0.5-1.7,1.4c0,0.8,0.5,1.2,1.9,1.5
			c2.2,0.5,2.5,1.4,2.5,2.3c0,1.1-0.8,2.1-2.6,2.1c-1.9,0-2.6-1.1-2.8-2.2H210.5z"/>
		<path class="st17" d="M217.7,178.4l-1,2.7h-0.6l2.8-7.7h0.7l2.9,7.7h-0.6l-1-2.7H217.7z M220.7,177.9c-0.9-2.3-1.3-3.4-1.5-3.9h0
			c-0.2,0.6-0.7,1.9-1.4,3.9H220.7z"/>
		<path class="st17" d="M230.6,177.5c0-1.5,0-2.9,0-3.7h0c-0.3,1-1.9,4.8-2.8,7.3h-0.6c-0.7-1.9-2.4-6.1-2.7-7.3h0
			c0.1,0.9,0.1,2.7,0.1,4v3.3h-0.6v-7.7h0.9c1.1,2.6,2.4,6.1,2.7,7h0c0.2-0.6,1.7-4.4,2.8-7h0.9v7.7h-0.6V177.5z"/>
		<path class="st17" d="M234.7,181.1l-2.1-7.7h0.6c0.5,1.8,1.7,6.1,1.9,7h0c0.1-0.7,1.4-5,1.9-7h0.7c0.5,1.9,1.7,6.4,1.9,7h0
			c0.2-1.1,1.5-5.2,2.1-7h0.6l-2.4,7.7h-0.7c-0.5-1.8-1.7-6.3-1.8-6.9h0c-0.2,1-1.4,5-1.9,6.9H234.7z"/>
		<path class="st17" d="M248,177.3h-3.9v3.2h4.3l-0.1,0.5h-4.8v-7.7h4.7v0.5h-4.1v2.8h3.9V177.3z"/>
		<path class="st17" d="M249.9,173.4h0.6v7.2h4.1l-0.1,0.5h-4.6V173.4z"/>
	</g>
</g>
<text transform="matrix(1 0 0 1 174.3041 198.9596)" class="st5 st15 st16">2/4/2021</text>
<g>
	<g>
		<path class="st14" d="M250.2,267.3c-0.4,1.3-1.4,2.3-3.2,2.3c-2.4,0-3.7-1.9-3.7-4.3c0-2.3,1.2-4.3,3.7-4.3c1.8,0,2.9,1,3.2,2.4
			h-0.6c-0.4-1.1-1.1-1.8-2.5-1.8c-2.1,0-3,1.9-3,3.7c0,1.8,0.9,3.7,3,3.7c1.4,0,2.1-0.7,2.5-1.7H250.2z"/>
		<path class="st14" d="M251.9,261.1h0.6v7.8h4.5l-0.1,0.6h-5V261.1z"/>
		<path class="st14" d="M259.1,261.1v8.4h-0.6v-8.4H259.1z"/>
		<path class="st14" d="M261.4,269.5v-8.4h1c1.3,2,4.4,6.7,4.9,7.6h0c-0.1-1.2-0.1-2.4-0.1-3.8v-3.8h0.7v8.4H267
			c-1.2-1.9-4.4-6.8-5-7.7h0c0.1,1.1,0,2.3,0,3.8v3.9H261.4z"/>
		<path class="st14" d="M272,261.7h-2.8v-0.6h6.3v0.6h-2.8v7.8H272V261.7z"/>
		<path class="st14" d="M283.8,265.2c0,2.3-1.2,4.4-3.8,4.4c-2.4,0-3.7-1.9-3.7-4.3c0-2.4,1.3-4.3,3.8-4.3
			C282.3,261,283.8,262.8,283.8,265.2z M276.9,265.3c0,1.9,1.1,3.8,3.1,3.8c2.2,0,3.1-1.8,3.1-3.8c0-2-1-3.7-3.1-3.7
			C277.9,261.6,276.9,263.4,276.9,265.3z"/>
		<path class="st14" d="M285.6,269.5v-8.4h1c1.3,2,4.4,6.7,4.9,7.6h0c-0.1-1.2-0.1-2.4-0.1-3.8v-3.8h0.7v8.4h-0.9
			c-1.2-1.9-4.4-6.8-5-7.7h0c0.1,1.1,0,2.3,0,3.8v3.9H285.6z"/>
		<path class="st14" d="M297.6,267.2c0.3,1.1,1,1.8,2.4,1.8c1.5,0,2.1-0.8,2.1-1.7c0-0.9-0.4-1.5-2.3-2c-1.8-0.4-2.5-1-2.5-2.2
			c0-1.1,0.8-2.1,2.6-2.1c1.8,0,2.6,1.1,2.7,2.1H302c-0.2-0.9-0.8-1.5-2.1-1.5c-1.2,0-1.9,0.6-1.9,1.5c0,0.9,0.6,1.3,2.1,1.7
			c2.4,0.6,2.7,1.5,2.7,2.5c0,1.2-0.9,2.3-2.8,2.3c-2.1,0-2.9-1.2-3-2.4H297.6z"/>
		<path class="st14" d="M305.5,266.6l-1.1,2.9h-0.7l3.1-8.4h0.8l3.2,8.4h-0.7l-1.1-2.9H305.5z M308.8,266c-0.9-2.5-1.4-3.7-1.6-4.3
			h0c-0.2,0.6-0.7,2.1-1.5,4.3H308.8z"/>
		<path class="st14" d="M312.3,269.5v-8.4h1c1.3,2,4.4,6.7,4.9,7.6h0c-0.1-1.2-0.1-2.4-0.1-3.8v-3.8h0.7v8.4h-0.9
			c-1.2-1.9-4.4-6.8-5-7.7h0c0.1,1.1,0,2.3,0,3.8v3.9H312.3z"/>
		<path class="st14" d="M327.6,269.5h-0.5c0-0.1-0.1-0.5-0.1-1.3c-0.3,0.6-1,1.4-2.7,1.4c-2.4,0-3.6-1.8-3.6-4.2
			c0-2.5,1.3-4.4,3.8-4.4c1.8,0,3,0.9,3.3,2.5H327c-0.4-1.2-1.2-1.9-2.7-1.9c-2.1,0-3.1,1.6-3.1,3.8c0,1.9,0.9,3.7,3,3.7
			c2.1,0,2.7-1.4,2.7-3.2v-0.1h-2.7v-0.6h3.3V269.5z"/>
	</g>
</g>
<text transform="matrix(1 0 0 1 248.6996 286.2329)" class="st5 st15 st16">2/4/2021</text>
</svg>
