<?xml version="1.0" encoding="utf-8"?>
<!-- Generator: Adobe Illustrator 23.0.5, SVG Export Plug-In . SVG Version: 6.00 Build 0)  -->
<svg version="1.1" xmlns="http://www.w3.org/2000/svg" xmlns:xlink="http://www.w3.org/1999/xlink" x="0px" y="0px"
	 viewBox="0 0 580 427" style="enable-background:new 0 0 580 427;" xml:space="preserve">
<style type="text/css">
	.st0{fill:#35068C;}
	.st1{fill:#42FFFF;}
	.st2{fill:#C4C4C4;}
	.st3{clip-path:url(#SVGID_2_);}
	.st4{fill:url(#SVGID_3_);}
	.st5{fill:#FFFFFF;}
	.st6{fill:#491F98;}
	.st7{fill:#F2F2F2;}
	.st8{fill:#FD8589;}
	.st9{fill:url(#SVGID_4_);}
	.st10{fill:none;stroke:#6EDCB5;stroke-width:4;}
	.st11{opacity:0.7;enable-background:new    ;}
	.st12{fill:#CFCFCF;}
	.st13{fill:url(#SVGID_5_);}
	.st14{fill:none;}
</style>
<g id="Layer_1">
	<path class="st0" d="M16,0h548c8.8,0,16,7.2,16,16v266c0,8.8-7.2,16-16,16H16c-8.8,0-16-7.2-16-16V16C0,7.2,7.2,0,16,0z"/>
	<path class="st1" d="M498.6,64.3h1.3v-2.7h2.7v-1.3H500v-2.7h-1.3v2.7h-2.7v1.3h2.7V64.3z M508.9,55.8h-1.5l-2.5,1.7V59l2.4-1.6
		h0.1V66h1.5V55.8z M511.8,66h6.7v-1.3H514v-0.1l2-2.1c1.9-1.9,2.4-2.8,2.4-3.9c0-1.6-1.3-2.9-3.3-2.9c-1.9,0-3.3,1.2-3.3,3.1h1.5
		c0-1.1,0.7-1.8,1.8-1.8c1,0,1.8,0.6,1.8,1.7c0,0.9-0.5,1.5-1.6,2.7l-3.4,3.6V66z M523.9,66.1c2,0,3.5-1.4,3.5-3.4
		c0-2-1.4-3.4-3.2-3.4c-0.8,0-1.5,0.3-1.9,0.7h-0.1l0.3-2.8h4.3v-1.3h-5.6l-0.6,5.1l1.4,0.2c0.4-0.3,1.1-0.6,1.7-0.6
		c1.2,0,2.1,0.9,2.1,2.2c0,1.2-0.8,2.1-2,2.1c-1,0-1.8-0.6-1.8-1.5h-1.5C520.6,65,522.1,66.1,523.9,66.1z M534.7,64.1
		c0,1.1,0.7,2.1,2.1,2.1c1.3,0,2.1-1,2.1-2.1v-0.5c0-1.2-0.7-2.1-2.1-2.1c-1.3,0-2.1,1-2.1,2.1V64.1z M529.6,58.3
		c0,1.1,0.7,2.1,2.1,2.1c1.3,0,2.1-1,2.1-2.1v-0.5c0-1.2-0.7-2.1-2.1-2.1c-1.3,0-2.1,1-2.1,2.1V58.3z M530,66h1.2l7-10.2H537L530,66
		z M535.9,63.6c0-0.6,0.3-1.1,0.9-1.1c0.7,0,0.9,0.6,0.9,1.1v0.5c0,0.6-0.2,1.1-0.9,1.1c-0.7,0-0.9-0.6-0.9-1.1V63.6z M530.7,57.7
		c0-0.6,0.2-1.1,0.9-1.1c0.7,0,0.9,0.6,0.9,1.1v0.5c0,0.6-0.2,1.1-0.9,1.1c-0.7,0-0.9-0.6-0.9-1.1V57.7z"/>
	<circle class="st2" cx="60" cy="60" r="20"/>
	<g>
		<defs>
			<rect id="SVGID_1_" x="40" y="40" width="40" height="40"/>
		</defs>
		<clipPath id="SVGID_2_">
			<use xlink:href="#SVGID_1_"  style="overflow:visible;"/>
		</clipPath>
		<g class="st3">
			
				<linearGradient id="SVGID_3_" gradientUnits="userSpaceOnUse" x1="60.0001" y1="387.8959" x2="60.0001" y2="347.8959" gradientTransform="matrix(1 0 0 -1 0 427.896)">
				<stop  offset="0" style="stop-color:#F9AA4B"/>
				<stop  offset="1" style="stop-color:#F7931A"/>
			</linearGradient>
			<path class="st4" d="M79.4,64.8c-2.7,10.7-13.5,17.2-24.2,14.6c-10.7-2.7-17.2-13.5-14.6-24.2c2.7-10.7,13.5-17.2,24.2-14.6
				C75.5,43.3,82.1,54.1,79.4,64.8z"/>
			<path class="st5" d="M69.5,57.5c0.4-2.7-1.6-4.1-4.4-5l0.9-3.6l-2.2-0.5L63,51.8c-0.6-0.1-1.2-0.3-1.8-0.4l0.9-3.5l-2.2-0.5
				L59,50.9c-0.5-0.1-1-0.2-1.4-0.3v0l-3-0.8L54,52.2c0,0,1.6,0.4,1.6,0.4c0.9,0.2,1,0.8,1,1.3l-1,4.1c0.1,0,0.1,0,0.2,0.1
				c-0.1,0-0.2,0-0.2-0.1l-1.4,5.8c-0.1,0.3-0.4,0.7-1,0.5c0,0-1.6-0.4-1.6-0.4l-1.1,2.5l2.9,0.7c0.5,0.1,1,0.3,1.6,0.4l-0.9,3.6
				l2.2,0.5l0.9-3.6c0.6,0.2,1.2,0.3,1.8,0.5l-0.9,3.6l2.2,0.5L61,69c3.7,0.7,6.6,0.4,7.7-3c1-2.7,0-4.3-2-5.3
				C68.2,60.4,69.2,59.4,69.5,57.5z M64.5,64.5c-0.7,2.7-5.3,1.3-6.8,0.9l1.2-4.8C60.4,61,65.2,61.7,64.5,64.5z M65.2,57.5
				c-0.6,2.5-4.4,1.2-5.7,0.9l1.1-4.4C61.9,54.3,65.8,54.9,65.2,57.5z"/>
		</g>
	</g>
	<g>
		<path class="st6" d="M80,243h146c8.8,0,16,7.2,16,16v152c0,8.8-7.2,16-16,16H80c-8.8,0-16-7.2-16-16V259C64,250.2,71.2,243,80,243
			z"/>
	</g>
	<path class="st5" d="M84.1,273.5h-2.6V288h2.6V273.5z M89.6,281.6c0-1.6,1-2.5,2.3-2.5c1.3,0,2.1,0.9,2.1,2.3v6.5h2.6v-6.9
		c0-2.6-1.5-4.1-3.7-4.1c-1.6,0-2.8,0.8-3.3,2h-0.1v-1.9H87V288h2.6V281.6z M104.2,288.2c2.7,0,4.5-1.6,4.7-3.9h-2.5
		c-0.2,1.2-1.1,1.8-2.2,1.8c-1.6,0-2.6-1.3-2.6-3.6c0-2.2,1.1-3.5,2.6-3.5c1.2,0,2,0.8,2.2,1.8h2.5c-0.2-2.4-2-3.9-4.7-3.9
		c-3.2,0-5.2,2.3-5.2,5.6C98.9,285.9,100.9,288.2,104.2,288.2z M111.1,288h2.6v-6.4c0-1.4,1-2.4,2.5-2.4c0.4,0,1,0.1,1.2,0.1V277
		c-0.2,0-0.6-0.1-0.9-0.1c-1.3,0-2.3,0.7-2.7,2h-0.1v-1.8h-2.5V288z M123.7,288.2c2.5,0,4.3-1.2,4.7-3.1l-2.4-0.3
		c-0.3,0.9-1.2,1.4-2.3,1.4c-1.7,0-2.8-1.1-2.8-3h7.6v-0.8c0-3.8-2.3-5.5-5-5.5c-3.1,0-5.2,2.3-5.2,5.7
		C118.4,286,120.4,288.2,123.7,288.2z M120.9,281.5c0.1-1.4,1.1-2.6,2.6-2.6c1.5,0,2.5,1.1,2.5,2.6H120.9z M134,288.2
		c1.7,0,2.7-0.8,3.2-1.7h0.1v1.5h2.5v-7.3c0-2.9-2.4-3.8-4.4-3.8c-2.3,0-4.1,1-4.6,3l2.4,0.3c0.3-0.7,1-1.4,2.2-1.4
		c1.2,0,1.8,0.6,1.8,1.7v0c0,0.7-0.8,0.8-2.7,1c-2.1,0.2-4.1,0.9-4.1,3.3C130.4,287.1,131.9,288.2,134,288.2z M134.7,286.3
		c-1.1,0-1.8-0.5-1.8-1.4c0-1,0.9-1.4,2-1.6c0.7-0.1,2-0.3,2.4-0.5v1.3C137.2,285.3,136.2,286.3,134.7,286.3z M151.2,280
		c-0.4-1.8-1.8-3-4.4-3c-2.6,0-4.4,1.3-4.4,3.3c0,1.6,1,2.6,3.1,3.1l1.9,0.4c1,0.2,1.5,0.6,1.5,1.2c0,0.7-0.8,1.3-2,1.3
		c-1.2,0-1.9-0.5-2.2-1.5l-2.5,0.2c0.3,2,2,3.2,4.7,3.2c2.7,0,4.7-1.4,4.7-3.5c0-1.6-1-2.5-3.1-3l-1.9-0.4c-1.1-0.2-1.5-0.6-1.5-1.3
		c0-0.7,0.8-1.3,1.9-1.3c1.2,0,1.8,0.6,2,1.4L151.2,280z M158.6,288.2c2.5,0,4.3-1.2,4.7-3.1l-2.4-0.3c-0.3,0.9-1.2,1.4-2.3,1.4
		c-1.7,0-2.8-1.1-2.8-3h7.6v-0.8c0-3.8-2.3-5.5-5-5.5c-3.1,0-5.2,2.3-5.2,5.7C153.3,286,155.3,288.2,158.6,288.2z M155.8,281.5
		c0.1-1.4,1.1-2.6,2.6-2.6c1.5,0,2.5,1.1,2.5,2.6H155.8z M171,288h2.6v-10.9H171V288z M172.2,275.5c0.8,0,1.5-0.6,1.5-1.4
		c0-0.8-0.7-1.4-1.5-1.4c-0.8,0-1.5,0.6-1.5,1.4C170.8,274.9,171.4,275.5,172.2,275.5z M178.9,281.6c0-1.6,1-2.5,2.3-2.5
		c1.3,0,2.1,0.9,2.1,2.3v6.5h2.6v-6.9c0-2.6-1.5-4.1-3.7-4.1c-1.6,0-2.8,0.8-3.3,2h-0.1v-1.9h-2.5V288h2.6V281.6z M80.8,303.7h4.5
		V316h2.6v-12.3h4.5v-2.2H80.8V303.7z M93.6,316h2.6v-6.4c0-1.4,1-2.4,2.5-2.4c0.4,0,1,0.1,1.2,0.1V305c-0.2,0-0.6-0.1-0.9-0.1
		c-1.3,0-2.3,0.7-2.7,2h-0.1v-1.8h-2.5V316z M104.6,316.2c1.7,0,2.7-0.8,3.2-1.7h0.1v1.5h2.5v-7.3c0-2.9-2.4-3.8-4.4-3.8
		c-2.3,0-4.1,1-4.6,3l2.4,0.3c0.3-0.7,1-1.4,2.2-1.4c1.2,0,1.8,0.6,1.8,1.7v0c0,0.7-0.8,0.8-2.7,1c-2.1,0.2-4.1,0.9-4.1,3.3
		C101,315.1,102.6,316.2,104.6,316.2z M105.3,314.3c-1.1,0-1.8-0.5-1.8-1.4c0-1,0.9-1.4,2-1.6c0.7-0.1,2-0.3,2.4-0.5v1.3
		C107.8,313.3,106.9,314.3,105.3,314.3z M117.2,316.2c1.9,0,2.7-1.1,3.1-1.9h0.2v1.7h2.5v-14.5h-2.6v5.4h-0.1
		c-0.4-0.8-1.2-1.9-3.1-1.9c-2.5,0-4.5,2-4.5,5.6C112.7,314.2,114.7,316.2,117.2,316.2z M118,314.1c-1.7,0-2.6-1.5-2.6-3.5
		c0-2,0.9-3.5,2.6-3.5c1.7,0,2.6,1.4,2.6,3.5C120.5,312.7,119.6,314.1,118,314.1z M130.8,316.2c2.5,0,4.3-1.2,4.7-3.1l-2.4-0.3
		c-0.3,0.9-1.2,1.4-2.3,1.4c-1.7,0-2.8-1.1-2.8-3h7.6v-0.8c0-3.8-2.3-5.5-5-5.5c-3.1,0-5.2,2.3-5.2,5.7
		C125.5,314,127.5,316.2,130.8,316.2z M128.1,309.5c0.1-1.4,1.1-2.6,2.6-2.6c1.5,0,2.5,1.1,2.5,2.6H128.1z"/>
	<path class="st7" d="M87.8,390.3h1.4c-0.1-1.8-1.7-3.1-3.9-3.1c-2.2,0-4,1.3-4,3.3c0,1.6,1.1,2.5,3,3l1.4,0.4
		c1.2,0.3,2.3,0.8,2.3,1.9c0,1.3-1.2,2.1-2.8,2.1c-1.4,0-2.6-0.6-2.7-1.9h-1.5c0.1,1.9,1.7,3.2,4.2,3.2c2.7,0,4.2-1.5,4.2-3.4
		c0-2.2-2.1-2.9-3.3-3.2l-1.2-0.3c-0.9-0.2-2.3-0.7-2.3-1.9c0-1.1,1-1.9,2.6-1.9C86.6,388.5,87.6,389.1,87.8,390.3z M95.2,399.2
		c1.8,0,3.1-0.9,3.5-2.2l-1.3-0.4c-0.3,0.9-1.1,1.4-2.2,1.4c-1.6,0-2.7-1-2.7-2.9h6.3v-0.6c0-3.3-1.9-4.4-3.8-4.4
		c-2.4,0-3.9,1.9-3.9,4.5C91.2,397.4,92.7,399.2,95.2,399.2z M92.5,393.9c0.1-1.4,1.1-2.6,2.6-2.6c1.5,0,2.4,1.1,2.4,2.6H92.5z
		 M102.4,387.4h-1.3V399h1.3V387.4z M106.4,387.4H105V399h1.3V387.4z M117.2,399.2c2.4,0,4-1.8,4-4.5c0-2.7-1.6-4.5-4-4.5
		s-4,1.8-4,4.5C113.2,397.4,114.8,399.2,117.2,399.2z M117.2,398c-1.8,0-2.6-1.5-2.6-3.3s0.8-3.3,2.6-3.3c1.8,0,2.6,1.6,2.6,3.3
		S119,398,117.2,398z M123.3,402.3h1.3v-4.6h0.1c0.3,0.5,0.9,1.5,2.5,1.5c2.2,0,3.7-1.8,3.7-4.5c0-2.8-1.5-4.5-3.7-4.5
		c-1.7,0-2.2,1-2.5,1.5h-0.2v-1.4h-1.3V402.3z M124.7,394.6c0-2,0.9-3.3,2.5-3.3c1.7,0,2.5,1.4,2.5,3.3c0,1.9-0.9,3.3-2.5,3.3
		C125.5,398,124.7,396.6,124.7,394.6z M137,390.3h-1.9v-2.1h-1.3v2.1h-1.3v1.1h1.3v5.5c0,1.5,1.2,2.3,2.4,2.3c0.5,0,0.8-0.1,1-0.2
		l-0.3-1.2c-0.1,0-0.3,0.1-0.6,0.1c-0.6,0-1.2-0.2-1.2-1.3v-5.1h1.9V390.3z M139.2,399h1.3v-8.7h-1.3V399z M139.9,388.8
		c0.5,0,1-0.4,1-0.9s-0.4-0.9-1-0.9c-0.5,0-1,0.4-1,0.9S139.4,388.8,139.9,388.8z M146.7,399.2c2.4,0,4-1.8,4-4.5
		c0-2.7-1.6-4.5-4-4.5c-2.4,0-4,1.8-4,4.5C142.8,397.4,144.4,399.2,146.7,399.2z M146.7,398c-1.8,0-2.6-1.5-2.6-3.3s0.8-3.3,2.6-3.3
		c1.8,0,2.6,1.6,2.6,3.3S148.5,398,146.7,398z M154.2,393.8c0-1.5,0.9-2.4,2.2-2.4c1.2,0,2,0.8,2,2.2v5.5h1.3v-5.5
		c0-2.2-1.2-3.3-3-3.3c-1.3,0-2.1,0.6-2.5,1.5h-0.1v-1.4h-1.3v8.7h1.3V393.8z"/>
	<path class="st5" d="M86.6,359.3h3.1v-4.5h4.5v-3.1h-4.5v-4.5h-3.1v4.5h-4.5v3.1h4.5V359.3z M98,362h3.8l7.2-14.4v-3.1H96.8v3h8.4
		v0.1L98,362z M117.9,362.2c3.9,0,6.5-2.5,6.5-6.1c0-3.3-2.3-5.7-5.5-5.7c-1.5,0-2.9,0.6-3.5,1.5h-0.1l0.5-4.4h7.6v-3h-10.7
		l-0.8,9.2l3.3,0.6c0.5-0.7,1.6-1.2,2.6-1.2c1.8,0,3,1.3,3,3.1c0,1.8-1.2,3.1-3,3.1c-1.5,0-2.7-0.9-2.7-2.3h-3.6
		C111.7,360.1,114.3,362.2,117.9,362.2z M136.8,358.7c0,2.1,1.3,3.9,3.8,3.9c2.5,0,3.9-1.8,3.8-3.9v-0.9c0-2.1-1.3-3.9-3.8-3.9
		c-2.5,0-3.8,1.8-3.8,3.9V358.7z M127.8,348.7c0,2.1,1.3,3.9,3.8,3.9c2.5,0,3.9-1.7,3.9-3.9v-0.9c0-2.1-1.3-3.9-3.9-3.9
		c-2.4,0-3.8,1.8-3.8,3.9V348.7z M128.7,362h2.2l12-17.5h-2.2L128.7,362z M139.3,357.8c0-0.8,0.3-1.7,1.4-1.7c1.1,0,1.4,0.9,1.3,1.7
		v0.9c0,0.8-0.3,1.7-1.3,1.7c-1,0-1.4-0.9-1.4-1.7V357.8z M130.3,347.8c0-0.8,0.3-1.7,1.3-1.7c1.1,0,1.4,0.9,1.4,1.7v0.9
		c0,0.8-0.3,1.7-1.4,1.7c-1,0-1.3-0.8-1.3-1.7V347.8z"/>
	<path class="st8" d="M171.7,353.3l-5-5c-0.1-0.1-0.2-0.2-0.3-0.2c-0.2-0.1-0.5-0.1-0.8,0c-0.1,0-0.2,0.1-0.3,0.2l-5,5
		c-0.1,0.1-0.2,0.2-0.2,0.3c-0.1,0.1-0.1,0.3-0.1,0.4c0,0.3,0.1,0.5,0.3,0.7c0.2,0.2,0.4,0.3,0.7,0.3c0.3,0,0.5-0.1,0.7-0.3l3.3-3.3
		v7.6c0,0.3,0.1,0.5,0.3,0.7c0.2,0.2,0.4,0.3,0.7,0.3c0.3,0,0.5-0.1,0.7-0.3c0.2-0.2,0.3-0.4,0.3-0.7v-7.6l3.3,3.3
		c0.1,0.1,0.2,0.2,0.3,0.2c0.1,0.1,0.3,0.1,0.4,0.1s0.3,0,0.4-0.1c0.1-0.1,0.2-0.1,0.3-0.2c0.1-0.1,0.2-0.2,0.2-0.3
		c0.1-0.1,0.1-0.3,0.1-0.4s0-0.3-0.1-0.4C171.9,353.5,171.8,353.4,171.7,353.3z"/>
	<g>
		<path class="st6" d="M371,255h137c8.8,0,16,7.2,16,16v52c0,8.8-7.2,16-16,16H371c-8.8,0-16-7.2-16-16v-52
			C355,262.2,362.2,255,371,255z"/>
		<path class="st5" d="M405.3,296.2h2l0-2c3.7-0.3,5.8-2.2,5.8-5.2c0-2.9-2.2-4.4-5.2-5.1l-0.5-0.1l0-4.3c1.1,0.3,1.8,1,1.9,2.1h3.5
			c0-2.8-2.1-4.8-5.4-5.2l0-2h-2l0,2c-3.3,0.3-5.7,2.3-5.7,5.2c0,2.6,1.8,4,4.8,4.8l0.8,0.2l0,4.5c-1.4-0.3-2.3-1.1-2.4-2.5h-3.6
			c0.1,3.4,2.3,5.4,6,5.7L405.3,296.2z M407.4,291.1l0-4c1.3,0.4,2,1,2,1.9C409.5,290,408.7,290.8,407.4,291.1z M405.4,283.2
			c-1.1-0.4-1.8-0.9-1.8-1.9c0-0.9,0.6-1.6,1.9-1.9L405.4,283.2z M423.4,276.5h-3.5l-4.3,2.7v3.3l4-2.5h0.1v14h3.7V276.5z
			 M434.2,294.2c3.9,0,6.5-2.5,6.5-6.1c0-3.3-2.3-5.7-5.5-5.7c-1.5,0-2.9,0.6-3.5,1.5h-0.1l0.5-4.4h7.6v-3h-10.7l-0.8,9.2l3.3,0.6
			c0.5-0.7,1.6-1.2,2.6-1.2c1.8,0,3,1.3,3,3.1c0,1.8-1.2,3.1-3,3.1c-1.5,0-2.7-0.9-2.7-2.3h-3.6
			C427.9,292.1,430.6,294.2,434.2,294.2z M445.1,294.2c1.1,0,2-0.9,2-2c0-1.1-1-2-2-2c-1.1,0-2.1,0.9-2,2
			C443.1,293.3,444,294.2,445.1,294.2z M456.3,294.2c3.9,0,6.7-2.2,6.7-5.1c0-2.2-1.4-3.7-3.9-4v-0.1c2-0.4,3.3-1.7,3.3-3.7
			c0-2.8-2.4-4.9-6-4.9c-3.6,0-6.3,2.1-6.3,5.1h3.5c0-1.3,1.3-2.2,2.8-2.2c1.5,0,2.5,0.9,2.5,2.2c0,1.4-1.2,2.3-2.8,2.3h-1.6v2.7
			h1.6c2,0,3.2,1,3.2,2.4c0,1.4-1.2,2.3-2.9,2.3c-1.6,0-2.8-0.9-2.9-2.1h-3.7C449.7,292.1,452.4,294.2,456.3,294.2z M465.9,294h12.4
			v-3H471v-0.1l2.5-2.5c3.6-3.3,4.6-4.9,4.6-6.9c0-3-2.5-5.2-6.2-5.2c-3.7,0-6.2,2.2-6.2,5.6h3.5c0-1.7,1-2.7,2.6-2.7
			c1.5,0,2.7,1,2.7,2.5c0,1.4-0.9,2.3-2.4,3.9l-6.2,5.8V294z"/>
		<path class="st7" d="M388.6,319h1.4v-4.3h2.5c2.7,0,3.9-1.6,3.9-3.7c0-2.1-1.2-3.7-4-3.7h-3.9V319z M390,313.5v-4.9h2.5
			c1.9,0,2.6,1,2.6,2.4c0,1.4-0.7,2.5-2.6,2.5H390z M398.7,319h1.3v-5.5c0-1.2,0.9-2,2.2-2c0.4,0,0.7,0.1,0.8,0.1v-1.4
			c-0.2,0-0.5,0-0.7,0c-1,0-2,0.6-2.3,1.5H400v-1.3h-1.3V319z M404.9,319h1.3v-8.7h-1.3V319z M405.5,308.8c0.5,0,1-0.4,1-0.9
			s-0.4-0.9-1-0.9s-1,0.4-1,0.9S405,308.8,405.5,308.8z M412.4,319.2c1.9,0,3.2-1.2,3.4-2.7h-1.3c-0.3,1-1,1.5-2.1,1.5
			c-1.6,0-2.6-1.3-2.6-3.3c0-2,1-3.3,2.6-3.3c1.2,0,1.9,0.7,2.1,1.5h1.3c-0.2-1.6-1.6-2.7-3.5-2.7c-2.4,0-3.9,1.9-3.9,4.5
			C408.4,317.3,409.9,319.2,412.4,319.2z M421.6,319.2c1.8,0,3.1-0.9,3.5-2.2l-1.3-0.4c-0.3,0.9-1.1,1.4-2.2,1.4
			c-1.6,0-2.7-1-2.7-2.9h6.3v-0.6c0-3.3-1.9-4.4-3.8-4.4c-2.4,0-3.9,1.9-3.9,4.5C417.5,317.4,419,319.2,421.6,319.2z M418.8,313.9
			c0.1-1.4,1.1-2.6,2.6-2.6c1.5,0,2.4,1.1,2.4,2.6H418.8z M432,319h1.3v-8.7H432V319z M432.7,308.8c0.5,0,1-0.4,1-0.9
			s-0.4-0.9-1-0.9c-0.5,0-1,0.4-1,0.9S432.2,308.8,432.7,308.8z M437.3,313.8c0-1.5,0.9-2.4,2.2-2.4c1.2,0,2,0.8,2,2.2v5.5h1.3v-5.5
			c0-2.2-1.2-3.3-3-3.3c-1.3,0-2.1,0.6-2.5,1.5h-0.1v-1.4H436v8.7h1.3V313.8z M453.5,319.2c1.7,0,2.3-1,2.5-1.5h0.2v1.3h1.3v-11.6
			h-1.3v4.3H456c-0.3-0.5-0.8-1.5-2.5-1.5c-2.2,0-3.7,1.8-3.7,4.5C449.8,317.4,451.3,319.2,453.5,319.2z M453.7,318
			c-1.7,0-2.5-1.5-2.5-3.3c0-1.8,0.8-3.3,2.5-3.3c1.6,0,2.5,1.3,2.5,3.3C456.2,316.6,455.3,318,453.7,318z M463.8,319.2
			c2.4,0,4-1.8,4-4.5c0-2.7-1.6-4.5-4-4.5c-2.4,0-4,1.8-4,4.5C459.9,317.4,461.5,319.2,463.8,319.2z M463.8,318
			c-1.8,0-2.6-1.5-2.6-3.3s0.8-3.3,2.6-3.3c1.8,0,2.6,1.6,2.6,3.3S465.6,318,463.8,318z M471.3,307.4H470V319h1.3V307.4z
			 M475.3,307.4h-1.3V319h1.3V307.4z M480.5,319.2c1.5,0,2.3-0.8,2.6-1.4h0.1v1.2h1.3v-5.8c0-2.8-2.1-3.1-3.2-3.1
			c-1.3,0-2.8,0.5-3.5,2l1.3,0.5c0.3-0.6,1-1.3,2.3-1.3c1.2,0,1.8,0.7,1.8,1.8v0c0,0.6-0.7,0.6-2.3,0.8c-1.6,0.2-3.4,0.6-3.4,2.6
			C477.5,318.2,478.8,319.2,480.5,319.2z M480.7,318c-1.1,0-1.8-0.5-1.8-1.4c0-1,0.9-1.3,2-1.5c0.6-0.1,2.1-0.2,2.3-0.5v1.2
			C483.1,316.9,482.3,318,480.7,318z M487.1,319h1.3v-5.5c0-1.2,0.9-2,2.2-2c0.4,0,0.7,0.1,0.8,0.1v-1.4c-0.2,0-0.5,0-0.7,0
			c-1,0-2,0.6-2.3,1.5h-0.1v-1.3h-1.3V319z"/>
	</g>
	
		<linearGradient id="SVGID_4_" gradientUnits="userSpaceOnUse" x1="290" y1="313.8957" x2="290" y2="177.896" gradientTransform="matrix(1 0 0 -1 0 427.896)">
		<stop  offset="0" style="stop-color:#6EDCB5;stop-opacity:0.4"/>
		<stop  offset="1" style="stop-color:#6EDCB5;stop-opacity:0"/>
	</linearGradient>
	<path class="st9" d="M73.8,169.6c-11.9,0-33.8,15-33.8,15V250h500V134.6c0,0-21,9.2-30.6,6c-13.5-4.5-26.1-25.8-34.4-26.5
		c-12.8-1-8.9,5.5-35.1,5.5c-24.9,0-13.7,13-38.3,13c-13.5,0-33.2,11-33.2,11h-38.9c-18.5,0-22.3,32.3-42.7,30
		c-19.8-2.3-19.1-7.5-35.1-7.5c-15.6,0-18,7.6-33.8,6c-19.1-2-18.5-23.5-44.6-23.5c-31.9,0-37.6,26.5-63.1,28.5
		C91.4,178.5,94.4,169.6,73.8,169.6z"/>
	<path class="st10" d="M40,185c0,0,21.9-15,33.8-15c20.6,0,17.6,9,36.4,7.5c25.5-2,31.3-28.5,63.1-28.5c26.1,0,25.5,21.5,44.6,23.5
		c15.8,1.7,18.2-6,33.8-6c15.9,0,15.2,5.2,35.1,7.5c20.5,2.3,24.2-30,42.7-30c15.6,0,38.9,0,38.9,0s19.7-11,33.2-11
		c24.6,0,13.4-13,38.3-13c26.1,0,22.3-6.5,35.1-5.5c8.3,0.7,21,22,34.4,26.5c9.6,3.2,30.6-6,30.6-6"/>
	<g>
		<g class="st11">
			<path class="st12" d="M183.9,46.5V46h3.9v0.6l-1.8,0.2h-0.3L183.9,46.5z M186,54.6l1.8,0.2v0.6h-3.9v-0.6l1.8-0.2H186z
				 M185.2,50.3c0-1.4,0-2.9,0-4.3h1.3c0,1.4,0,2.9,0,4.3v1.1c0,1.1,0,2.5,0,4h-1.3c0-1.4,0-2.9,0-4.3V50.3z M185.8,52l4.9-6h0.8
				l-5.7,6.9V52z M188.4,49.3l3.4,6.1h-1.3l-2.8-5.2L188.4,49.3z M189,54.8l1.7-0.2h0.2l1.7,0.2v0.6H189V54.8z M189.1,46.5V46h3.2
				v0.6l-1.5,0.2l-0.3,0.1L189.1,46.5z"/>
			<path class="st12" d="M193.2,46.5V46h2v0.8H195L193.2,46.5z M195.2,54.6v0.8h-2v-0.6l1.8-0.2H195.2z M194.6,50.3
				c0-1.4,0-2.9,0-4.3h1.3c0,1.4,0,2.9,0,4.3v0.5c0,1.6,0,3.1,0,4.5h-1.3c0-1.4,0-2.9,0-4.3V50.3z M199.1,46l0.6,0.7h-4.5V46h5
				l0.1,2.5h-0.8L199.1,46z M198.3,50.9h-3.2v-0.6h3.2V50.9z M200.6,52.9l-0.1,2.5h-5.3v-0.7h4.8l-0.6,0.7l0.4-2.5H200.6z
				 M197.9,50.4l0.2-1.5h0.6v3.3h-0.6l-0.2-1.6V50.4z"/>
			<path class="st12" d="M206.5,53.2c0-0.9-0.5-1.3-1.8-1.8l-0.5-0.2c-1.4-0.6-2.4-1.4-2.4-2.8c0-1.6,1.4-2.6,3.1-2.6
				c0.9,0,1.7,0.3,2.3,0.7l-0.1,1.8h-0.8l-0.4-2.1l0.9,0.5v0.7c-0.7-0.7-1.2-0.9-1.9-0.9c-1.1,0-1.9,0.5-1.9,1.6
				c0,0.9,0.6,1.4,1.6,1.8l0.5,0.2c1.8,0.7,2.6,1.5,2.6,2.8c0,1.7-1.4,2.7-3.3,2.7c-1.1,0-2.1-0.3-2.7-0.7l0.1-2h0.8l0.4,2.2
				l-0.9-0.4V54c0.9,0.6,1.3,0.9,2.3,0.9C205.6,54.9,206.5,54.3,206.5,53.2z"/>
		</g>
	</g>
	<g>
		<g>
			<g>
				<path class="st5" d="M100.4,76v0.8h-8.9V76l3.5-0.6h1.9L100.4,76z M96.7,61.2l0.3,0.2l-0.1,3.4v7c0,1.7,0,3.4,0.1,5.1h-2.1
					c0-1.7,0.1-3.4,0.1-5.1v-8.7l-3.2,0.3v-1L96.7,61.2z"/>
				<path class="st5" d="M112.7,69.2c0,6-2.5,8-5,8c-2.5,0-5-2.1-5-8c0-6,2.5-8.1,5-8.1C110.2,61,112.7,63.2,112.7,69.2z
					 M107.7,76.1c1.5,0,2.8-1.4,2.8-7c0-5.6-1.4-7-2.8-7c-1.5,0-2.9,1.4-2.9,7C104.8,74.7,106.2,76.1,107.7,76.1z"/>
				<path class="st5" d="M124.6,69.2c0,6-2.5,8-5,8c-2.5,0-5-2.1-5-8c0-6,2.5-8.1,5-8.1C122.1,61,124.6,63.2,124.6,69.2z
					 M119.6,76.1c1.5,0,2.8-1.4,2.8-7c0-5.6-1.4-7-2.8-7c-1.5,0-2.9,1.4-2.9,7C116.8,74.7,118.1,76.1,119.6,76.1z"/>
				<path class="st5" d="M136.5,69.2c0,6-2.5,8-5,8c-2.5,0-5-2.1-5-8c0-6,2.5-8.1,5-8.1C134.1,61,136.5,63.2,136.5,69.2z
					 M131.6,76.1c1.5,0,2.8-1.4,2.8-7c0-5.6-1.4-7-2.8-7c-1.5,0-2.9,1.4-2.9,7C128.7,74.7,130.1,76.1,131.6,76.1z"/>
				<path class="st5" d="M148.5,69.2c0,6-2.5,8-5,8c-2.5,0-5-2.1-5-8c0-6,2.5-8.1,5-8.1C146,61,148.5,63.2,148.5,69.2z M143.5,76.1
					c1.5,0,2.8-1.4,2.8-7c0-5.6-1.4-7-2.8-7c-1.5,0-2.9,1.4-2.9,7C140.6,74.7,142,76.1,143.5,76.1z"/>
				<path class="st5" d="M160.4,69.2c0,6-2.5,8-5,8c-2.5,0-5-2.1-5-8c0-6,2.5-8.1,5-8.1C157.9,61,160.4,63.2,160.4,69.2z
					 M155.4,76.1c1.5,0,2.8-1.4,2.8-7c0-5.6-1.4-7-2.8-7c-1.5,0-2.9,1.4-2.9,7C152.5,74.7,153.9,76.1,155.4,76.1z"/>
				<path class="st5" d="M163.3,75.5c0-0.9,0.7-1.7,1.7-1.7c0.9,0,1.7,0.8,1.7,1.7c0,0.9-0.7,1.7-1.7,1.7
					C164,77.2,163.3,76.4,163.3,75.5z"/>
				<path class="st5" d="M179.5,69.2c0,6-2.5,8-5,8c-2.5,0-5-2.1-5-8c0-6,2.5-8.1,5-8.1C177,61,179.5,63.2,179.5,69.2z M174.6,76.1
					c1.5,0,2.8-1.4,2.8-7c0-5.6-1.4-7-2.8-7c-1.5,0-2.9,1.4-2.9,7C171.7,74.7,173,76.1,174.6,76.1z"/>
				<path class="st5" d="M191.5,69.2c0,6-2.5,8-5,8c-2.5,0-5-2.1-5-8c0-6,2.5-8.1,5-8.1C189,61,191.5,63.2,191.5,69.2z M186.5,76.1
					c1.5,0,2.8-1.4,2.8-7c0-5.6-1.4-7-2.8-7c-1.5,0-2.9,1.4-2.9,7C183.6,74.7,185,76.1,186.5,76.1z"/>
			</g>
		</g>
	</g>
</g>
<g id="Layer_2">
	<g>
		<linearGradient id="SVGID_5_" gradientUnits="userSpaceOnUse" x1="40.1989" y1="59.3878" x2="79.8011" y2="59.3878">
			<stop  offset="0" style="stop-color:#F9AA4B"/>
			<stop  offset="1" style="stop-color:#F7931A"/>
		</linearGradient>
		<circle class="st13" cx="60" cy="59.4" r="19.8"/>
		<path class="st5" d="M52.1,46.9l2.4,1.5l-0.1,17.9L52,64.8l0,2.5l4.6,2.9l0,1.4l2.1,1.3l0-1.4l1.4,0.9l0,1.4l2.1,1.3l0-1.6
			c0.2,0.1,0.4,0.2,0.7,0.2c0.1,0,0.5,0.1,0.9,0.1c1.3,0,2.3-0.7,2.3-0.7c0.8-0.6,1.1-1.5,1.2-1.8c0.2-0.5,0.2-1,0.3-1.5
			c0.1-0.4,0.1-0.8,0.1-1.1c0-0.3-0.1-0.7,0-1.1c0.1-1.3,0.5-1.7,0.2-2.2c-0.2-0.3-0.4-0.2-1.4-0.7c-1.2-0.5-1.7-0.8-1.8-0.7
			c-0.1,0.2,1,0.8,1.3,2c0,0.1,0,0.5,0,1.2c0,1.5,0,1.8-0.1,2.1c-0.1,0.4-0.2,0.8-0.6,1.1C64.8,71,64.2,71,63.9,71
			c-0.3,0-0.6,0-1.9-0.7c-0.5-0.2-1.1-0.6-2.2-1.2c-0.3-0.2-0.8-0.5-1-1c-0.1-0.2-0.1-0.4-0.1-0.4c0-5.2,0-10.4,0.1-15.5
			c1.1,0.4,1.9,0.9,2.4,1.3c0.9,0.6,1.3,1.1,1.5,1.3c0.4,0.4,0.6,0.8,0.8,1c0.7,2.1,0.5,2.9,0.2,3.1c-0.4,0.3-1,0-1.1,0.2
			c-0.1,0.2,0.2,0.5,1.2,1.4c1.1,1,1.3,1.2,1.5,1.2c0.1,0,0.2-0.2,0.3-1.2c0.1-0.7,0.1-1.1,0.1-1.5c0.1-0.9,0-1.6-0.1-2.1
			c-0.1-0.5-0.1-1.1-0.4-1.8c-0.2-0.4-0.4-0.9-0.7-1.4c-0.1-0.2-0.4-0.6-0.7-1c-0.3-0.4-0.7-0.8-1.2-1.3c-0.1-0.6-0.1-1.3-0.2-1.9
			c-0.7-0.5-1.4-0.9-2.1-1.4c0,0.5,0,1,0.1,1.5c-0.5-0.3-0.9-0.7-1.4-1l0-1.4L56.7,46l-0.2,1.4l-4.4-2.9L52.1,46.9z"/>
	</g>
	<rect x="93" y="47.9" class="st14" width="86.7" height="17.3"/>
	<g>
		<g>
			<path class="st5" d="M103.7,40.6c0-1.6-0.9-2.3-3-3.1l-0.9-0.4c-2.4-1-4.1-2.4-4.1-4.8c0-2.8,2.3-4.4,5.4-4.4
				c1.6,0,2.9,0.5,3.9,1.3l-0.1,3.1h-1.4l-0.7-3.6l1.5,0.8v1.2c-1.2-1.2-2.1-1.6-3.3-1.6c-1.9,0-3.3,0.9-3.3,2.7
				c0,1.5,1,2.4,2.7,3.1l0.9,0.4c3.2,1.2,4.4,2.6,4.4,4.9c0,2.8-2.4,4.6-5.7,4.6c-1.8,0-3.6-0.6-4.7-1.3l0.1-3.4h1.4l0.6,3.7
				L96,43.2V42c1.5,1.1,2.3,1.6,3.9,1.6C102.2,43.6,103.7,42.5,103.7,40.6z"/>
			<path class="st5" d="M107.7,29.3v-1h6.7v1l-3.1,0.4h-0.5L107.7,29.3z M111.3,43.1l3.1,0.4v1h-6.7v-1l3.1-0.4H111.3z M109.9,35.8
				c0-2.5,0-5-0.1-7.4h2.3c-0.1,2.4-0.1,4.9-0.1,7.4v0.7c0,3,0,5.4,0.1,7.9h-2.3c0.1-2.4,0.1-4.9,0.1-7.4V35.8z M111,36.7v-1.1h10.1
				v1.1H111z M117.8,29.3v-1h6.7v1l-3.1,0.4h-0.5L117.8,29.3z M121.4,43.1l3.1,0.4v1h-6.7v-1l3.1-0.4H121.4z M120,35.8
				c0-2.5,0-5-0.1-7.4h2.3c-0.1,2.4-0.1,4.9-0.1,7.4V37c0,2.5,0,5,0.1,7.4H120c0.1-2.4,0.1-4.9,0.1-7.9V35.8z"/>
			<path class="st5" d="M125.7,43.5l2.4-0.4h0.5l2.6,0.4v1h-5.5V43.5z M132.8,28.2h1.4l5.5,16.2h-2.2L132.7,30h0.6l-4.9,14.4h-1.1
				L132.8,28.2z M130,38.1h6.5l0.4,1.1h-7.2L130,38.1z M134.7,43.5l3-0.4h0.5l3,0.4v1h-6.5V43.5z"/>
			<path class="st5" d="M142.5,29.3v-1h3.4v1.3h-0.2L142.5,29.3z M146.1,43.1l3.1,0.4v1h-6.7v-1l3.1-0.4H146.1z M144.8,35.8
				c0-2.5,0-5-0.1-7.4h2.3c-0.1,2.5-0.1,4.8-0.1,7.7v0.7c0,2.7,0,5.2,0.1,7.7h-2.3c0.1-2.4,0.1-4.9,0.1-7.4V35.8z M145.9,35.9h3
				c2.6,0,3.8-1.4,3.8-3.3c0-2-1.1-3.1-3.6-3.1h-3.3v-1.1h3.3c3.7,0,5.8,1.6,5.8,4.2c0,2-1.6,3.9-4.8,4.2l0.1-0.2
				c1.7,0.2,2.8,1,3.4,3.1l1.2,4l-0.7-0.5l2.5,0.3v1c-0.4,0.1-1,0.2-1.7,0.2c-1.5,0-2.1-0.4-2.4-1.5l-1-3.9
				c-0.5-1.9-1.4-2.3-3.4-2.3h-2.3V35.9z"/>
			<path class="st5" d="M158.1,29.3v-1h3.4v1.3h-0.2L158.1,29.3z M161.5,43.1v1.3h-3.4v-1l3.1-0.4H161.5z M160.4,35.8
				c0-2.5,0-5-0.1-7.4h2.3c-0.1,2.4-0.1,4.9-0.1,7.4v0.9c0,2.8,0,5.3,0.1,7.7h-2.3c0.1-2.4,0.1-4.9,0.1-7.4V35.8z M168.1,28.3
				l1.1,1.2h-7.7v-1.2h8.6l0.2,4.3h-1.3L168.1,28.3z M166.9,36.8h-5.4v-1.1h5.4V36.8z M170.7,40.1l-0.2,4.3h-9v-1.2h8.2l-1.1,1.2
				l0.7-4.3H170.7z M166.1,35.9l0.4-2.5h1.1V39h-1.1l-0.4-2.7V35.9z"/>
			<path class="st5" d="M180.9,40.6c0-1.6-0.9-2.3-3-3.1l-0.9-0.4c-2.4-1-4.1-2.4-4.1-4.8c0-2.8,2.3-4.4,5.4-4.4
				c1.6,0,2.9,0.5,3.9,1.3l-0.1,3.1h-1.4l-0.7-3.6l1.5,0.8v1.2c-1.2-1.2-2.1-1.6-3.3-1.6c-1.9,0-3.3,0.9-3.3,2.7
				c0,1.5,1,2.4,2.7,3.1l0.9,0.4c3.2,1.2,4.4,2.6,4.4,4.9c0,2.8-2.4,4.6-5.7,4.6c-1.8,0-3.6-0.6-4.7-1.3l0.1-3.4h1.4l0.6,3.7
				l-1.6-0.7V42c1.5,1.1,2.3,1.6,3.9,1.6C179.4,43.6,180.9,42.5,180.9,40.6z"/>
		</g>
	</g>
</g>
</svg>
