<svg width="1440" height="453" viewBox="0 0 1440 453" fill="none" xmlns="http://www.w3.org/2000/svg">
<path d="M20.1263 40.5288H16.4784V504.944H20.1263V40.5288Z" fill="url(#paint0_linear)"/>
<path d="M14.1802 40.7474C14.1802 38.4857 16.0406 36.6252 18.3023 36.6252C20.564 36.6252 22.4245 38.4857 22.4245 40.7474C22.4245 43.0091 20.564 44.8695 18.3023 44.8695C16.0406 44.833 14.1802 43.0091 14.1802 40.7474Z" fill="url(#paint1_linear)"/>
<path d="M46.0265 99.7708H42.3786V445.739H46.0265V99.7708Z" fill="url(#paint2_linear)"/>
<path d="M40.1169 99.953C40.1169 97.6912 41.9773 95.8308 44.239 95.8308C46.5007 95.8308 48.3612 97.6912 48.3612 99.953C48.3612 102.215 46.5372 104.075 44.239 104.075C41.9408 104.075 40.1169 102.215 40.1169 99.953Z" fill="url(#paint3_linear)"/>
<path d="M31.8726 43.7385H28.2247V501.77H31.8726V43.7385Z" fill="url(#paint4_linear)"/>
<path d="M25.9265 43.9205C25.9265 41.6588 27.7869 39.7983 30.0486 39.7983C32.3103 39.7983 34.1707 41.6588 34.1707 43.9205C34.1707 46.1822 32.3103 48.0426 30.0486 48.0426C27.7504 48.0426 25.9265 46.2187 25.9265 43.9205Z" fill="url(#paint5_linear)"/>
<path d="M103.481 102.907H99.8332V442.601H103.481V102.907Z" fill="url(#paint6_linear)"/>
<path d="M97.535 103.09C97.535 100.828 99.3954 98.9675 101.657 98.9675C103.919 98.9675 105.779 100.828 105.779 103.09C105.779 105.351 103.919 107.212 101.657 107.212C99.3954 107.212 97.535 105.388 97.535 103.09Z" fill="url(#paint7_linear)"/>
<path d="M165.094 72.8486H161.446V472.66H165.094V72.8486Z" fill="url(#paint8_linear)"/>
<path d="M159.148 73.0308C159.148 70.7691 161.009 68.9087 163.27 68.9087C165.532 68.9087 167.392 70.7691 167.392 73.0308C167.392 75.2925 165.532 77.153 163.27 77.153C161.009 77.153 159.148 75.329 159.148 73.0308Z" fill="url(#paint9_linear)"/>
<path d="M91.6619 35.8594H88.014V509.614H91.6619V35.8594Z" fill="url(#paint10_linear)"/>
<path d="M85.7158 36.0779C85.7158 33.8162 87.5762 31.9558 89.838 31.9558C92.0997 31.9558 93.9601 33.8162 93.9601 36.0779C93.9601 38.3397 92.0997 40.2001 89.838 40.2001C87.5762 40.1636 85.7158 38.3397 85.7158 36.0779Z" fill="url(#paint11_linear)"/>
<path d="M113.513 68.5444H109.865V476.965H113.513V68.5444Z" fill="url(#paint12_linear)"/>
<path d="M107.567 68.7266C107.567 66.4649 109.427 64.6045 111.689 64.6045C113.951 64.6045 115.811 66.4649 115.811 68.7266C115.811 70.9883 113.951 72.8488 111.689 72.8488C109.427 72.8488 107.567 71.0248 107.567 68.7266Z" fill="url(#paint13_linear)"/>
<path d="M208.723 112.502H205.075V432.971H208.723V112.502Z" fill="url(#paint14_linear)"/>
<path d="M202.814 112.721C202.814 110.459 204.674 108.598 206.936 108.598C209.198 108.598 211.058 110.459 211.058 112.721C211.058 114.982 209.198 116.843 206.936 116.843C204.638 116.806 202.814 114.982 202.814 112.721Z" fill="url(#paint15_linear)"/>
<path d="M190.666 113.888H187.018V431.584H190.666V113.888Z" fill="url(#paint16_linear)"/>
<path d="M188.842 118.228C191.119 118.228 192.964 116.383 192.964 114.106C192.964 111.83 191.119 109.984 188.842 109.984C186.566 109.984 184.72 111.83 184.72 114.106C184.72 116.383 186.566 118.228 188.842 118.228Z" fill="url(#paint17_linear)"/>
<path d="M286.533 75.2935H282.885V470.18H286.533V75.2935Z" fill="url(#paint18_linear)"/>
<path d="M280.587 75.512C280.587 73.2503 282.448 71.3899 284.709 71.3899C286.971 71.3899 288.831 73.2503 288.831 75.512C288.831 77.7737 286.971 79.6342 284.709 79.6342C282.411 79.5977 280.587 77.7737 280.587 75.512Z" fill="url(#paint19_linear)"/>
<path d="M298.644 99.5518H294.996V445.885H298.644V99.5518Z" fill="url(#paint20_linear)"/>
<path d="M292.735 99.7703C292.735 97.5086 294.595 95.6482 296.857 95.6482C299.119 95.6482 300.979 97.5086 300.979 99.7703C300.979 102.032 299.119 103.892 296.857 103.892C294.559 103.892 292.735 102.032 292.735 99.7703Z" fill="url(#paint21_linear)"/>
<path d="M246.698 65.5894H243.05V479.883H246.698V65.5894Z" fill="url(#paint22_linear)"/>
<path d="M240.752 65.8079C240.752 63.5462 242.612 61.6858 244.874 61.6858C247.136 61.6858 248.996 63.5462 248.996 65.8079C248.996 68.0696 247.136 69.9301 244.874 69.9301C242.612 69.9301 240.752 68.0696 240.752 65.8079Z" fill="url(#paint23_linear)"/>
<path d="M358.434 3.93994H354.786V541.569H358.434V3.93994Z" fill="url(#paint24_linear)"/>
<path d="M352.488 4.12214C352.488 1.86044 354.348 0 356.61 0C358.871 0 360.732 1.86044 360.732 4.12214C360.732 6.38385 358.871 8.24428 356.61 8.24428C354.348 8.24428 352.488 6.38385 352.488 4.12214Z" fill="url(#paint25_linear)"/>
<path d="M371.165 34.1084H367.517V511.365H371.165V34.1084Z" fill="url(#paint26_linear)"/>
<path d="M365.219 34.327C365.219 32.0653 367.079 30.2048 369.341 30.2048C371.603 30.2048 373.463 32.0653 373.463 34.327C373.463 36.5887 371.603 38.4491 369.341 38.4491C367.043 38.4126 365.219 36.5887 365.219 34.327Z" fill="url(#paint27_linear)"/>
<path d="M402.756 18.5317H399.108V526.978H402.756V18.5317Z" fill="url(#paint28_linear)"/>
<path d="M396.81 18.7137C396.81 16.452 398.67 14.5916 400.932 14.5916C403.194 14.5916 405.054 16.452 405.054 18.7137C405.054 20.9754 403.194 22.8358 400.932 22.8358C398.634 22.8358 396.81 21.0119 396.81 18.7137Z" fill="url(#paint29_linear)"/>
<path d="M393.381 32.1018H389.733V513.407H393.381V32.1018Z" fill="url(#paint30_linear)"/>
<path d="M387.435 32.284C387.435 30.0223 389.295 28.1619 391.557 28.1619C393.818 28.1619 395.679 30.0223 395.679 32.284C395.679 34.5457 393.818 36.4061 391.557 36.4061C389.295 36.4061 387.435 34.5822 387.435 32.284Z" fill="url(#paint31_linear)"/>
<path d="M375.469 77.3721H371.821V468.136H375.469V77.3721Z" fill="url(#paint32_linear)"/>
<path d="M369.523 77.5543C369.523 75.2926 371.384 73.4321 373.645 73.4321C375.907 73.4321 377.768 75.2926 377.768 77.5543C377.768 79.816 375.907 81.6764 373.645 81.6764C371.347 81.6764 369.523 79.8525 369.523 77.5543Z" fill="url(#paint33_linear)"/>
<path d="M407.133 39.1421H403.485V506.33H407.133V39.1421Z" fill="url(#paint34_linear)"/>
<path d="M405.309 43.4828C407.586 43.4828 409.431 41.6373 409.431 39.3607C409.431 37.0841 407.586 35.2385 405.309 35.2385C403.033 35.2385 401.187 37.0841 401.187 39.3607C401.187 41.6373 403.033 43.4828 405.309 43.4828Z" fill="url(#paint35_linear)"/>
<path d="M415.378 104.731H411.73V440.741H415.378V104.731Z" fill="url(#paint36_linear)"/>
<path d="M409.431 104.95C409.431 102.688 411.292 100.828 413.554 100.828C415.815 100.828 417.676 102.688 417.676 104.95C417.676 107.212 415.815 109.072 413.554 109.072C411.255 109.072 409.431 107.212 409.431 104.95Z" fill="url(#paint37_linear)"/>
<path d="M492.75 63.1091H489.102V482.364H492.75V63.1091Z" fill="url(#paint38_linear)"/>
<path d="M486.804 63.3277C486.804 61.066 488.664 59.2056 490.926 59.2056C493.188 59.2056 495.048 61.066 495.048 63.3277C495.048 65.5894 493.188 67.4499 490.926 67.4499C488.664 67.4499 486.804 65.5894 486.804 63.3277Z" fill="url(#paint39_linear)"/>
<path d="M516.023 111.919H512.376V433.555H516.023V111.919Z" fill="url(#paint40_linear)"/>
<path d="M510.077 112.137C510.077 109.876 511.938 108.015 514.199 108.015C516.461 108.015 518.322 109.876 518.322 112.137C518.322 114.399 516.461 116.259 514.199 116.259C511.938 116.223 510.077 114.399 510.077 112.137Z" fill="url(#paint41_linear)"/>
<path d="M546.52 105.279H542.872V440.23H546.52V105.279Z" fill="url(#paint42_linear)"/>
<path d="M544.696 109.583C546.973 109.583 548.818 107.738 548.818 105.461C548.818 103.185 546.973 101.339 544.696 101.339C542.419 101.339 540.574 103.185 540.574 105.461C540.574 107.738 542.419 109.583 544.696 109.583Z" fill="url(#paint43_linear)"/>
<path d="M595.438 50.9612H591.791V494.511H595.438V50.9612Z" fill="url(#paint44_linear)"/>
<path d="M589.492 51.1797C589.492 48.918 591.316 47.0576 593.615 47.0576C595.876 47.0576 597.737 48.918 597.737 51.1797C597.737 53.4415 595.876 55.3019 593.615 55.3019C591.353 55.2654 589.492 53.4415 589.492 51.1797Z" fill="url(#paint45_linear)"/>
<path d="M641.548 5.3623H637.9V540.11H641.548V5.3623Z" fill="url(#paint46_linear)"/>
<path d="M639.724 9.70302C642.001 9.70302 643.846 7.85748 643.846 5.58088C643.846 3.30429 642.001 1.45874 639.724 1.45874C637.448 1.45874 635.602 3.30429 635.602 5.58088C635.602 7.85748 637.448 9.70302 639.724 9.70302Z" fill="url(#paint47_linear)"/>
<path d="M652.711 69.1643H649.063V476.308H652.711V69.1643Z" fill="url(#paint48_linear)"/>
<path d="M646.765 69.3829C646.765 67.1212 648.625 65.2607 650.887 65.2607C653.148 65.2607 655.009 67.1212 655.009 69.3829C655.009 71.6446 653.148 73.505 650.887 73.505C648.625 73.4686 646.765 71.6446 646.765 69.3829Z" fill="url(#paint49_linear)"/>
<path d="M662.852 36.7346H659.204V508.774H662.852V36.7346Z" fill="url(#paint50_linear)"/>
<path d="M656.942 36.9168C656.942 34.6551 658.803 32.7947 661.064 32.7947C663.326 32.7947 665.187 34.6186 665.187 36.9168C665.187 39.1785 663.326 41.039 661.064 41.039C658.766 41.039 656.942 39.215 656.942 36.9168Z" fill="url(#paint51_linear)"/>
<path d="M669.637 96.4514H665.989V449.059H669.637V96.4514Z" fill="url(#paint52_linear)"/>
<path d="M663.691 96.6336C663.691 94.3719 665.551 92.5115 667.813 92.5115C670.075 92.5115 671.935 94.3719 671.935 96.6336C671.935 98.8953 670.075 100.756 667.813 100.756C665.551 100.756 663.691 98.9318 663.691 96.6336Z" fill="url(#paint53_linear)"/>
<path d="M728.259 11.6741H724.611V533.836H728.259V11.6741Z" fill="url(#paint54_linear)"/>
<path d="M726.435 15.9784C728.712 15.9784 730.557 14.1329 730.557 11.8563C730.557 9.57967 728.712 7.73413 726.435 7.73413C724.158 7.73413 722.313 9.57967 722.313 11.8563C722.313 14.1329 724.158 15.9784 726.435 15.9784Z" fill="url(#paint55_linear)"/>
<path d="M740.078 83.8289H736.43V461.68H740.078V83.8289Z" fill="url(#paint56_linear)"/>
<path d="M734.132 84.011C734.132 81.7493 735.993 79.8889 738.254 79.8889C740.516 79.8889 742.376 81.7493 742.376 84.011C742.376 86.2728 740.516 88.1332 738.254 88.1332C735.956 88.1332 734.132 86.2728 734.132 84.011Z" fill="url(#paint57_linear)"/>
<path d="M786.297 109.583H782.649V435.926H786.297V109.583Z" fill="url(#paint58_linear)"/>
<path d="M780.351 109.765C780.351 107.504 782.212 105.643 784.473 105.643C786.735 105.643 788.595 107.504 788.595 109.765C788.595 112.027 786.735 113.888 784.473 113.888C782.212 113.888 780.351 112.064 780.351 109.765Z" fill="url(#paint59_linear)"/>
<path d="M741.319 5.39893H737.671V540.073H741.319V5.39893Z" fill="url(#paint60_linear)"/>
<path d="M739.495 9.73964C741.771 9.73964 743.617 7.8941 743.617 5.61751C743.617 3.34091 741.771 1.49536 739.495 1.49536C737.218 1.49536 735.372 3.34091 735.372 5.61751C735.372 7.8941 737.218 9.73964 739.495 9.73964Z" fill="url(#paint61_linear)"/>
<path d="M800.889 59.2056H797.241V486.303H800.889V59.2056Z" fill="url(#paint62_linear)"/>
<path d="M799.065 63.5099C801.342 63.5099 803.187 61.6644 803.187 59.3878C803.187 57.1112 801.342 55.2656 799.065 55.2656C796.788 55.2656 794.943 57.1112 794.943 59.3878C794.943 61.6644 796.788 63.5099 799.065 63.5099Z" fill="url(#paint63_linear)"/>
<path d="M856.082 52.7488H852.434V492.76H856.082V52.7488Z" fill="url(#paint64_linear)"/>
<path d="M850.136 52.9307C850.136 50.669 851.996 48.8086 854.258 48.8086C856.52 48.8086 858.38 50.669 858.38 52.9307C858.38 55.1924 856.52 57.0529 854.258 57.0529C851.996 57.0529 850.136 55.2289 850.136 52.9307Z" fill="url(#paint65_linear)"/>
<path d="M887.198 31.1533H883.551V514.283H887.198V31.1533Z" fill="url(#paint66_linear)"/>
<path d="M881.289 31.3719C881.289 29.1102 883.149 27.2498 885.411 27.2498C887.673 27.2498 889.533 29.1102 889.533 31.3719C889.533 33.6336 887.673 35.494 885.411 35.494C883.113 35.494 881.289 33.6336 881.289 31.3719Z" fill="url(#paint67_linear)"/>
<path d="M816.575 19.2976H812.927V526.138H816.575V19.2976Z" fill="url(#paint68_linear)"/>
<path d="M810.629 19.5162C810.629 17.2545 812.489 15.394 814.751 15.394C817.013 15.394 818.873 17.2545 818.873 19.5162C818.873 21.7779 817.013 23.6383 814.751 23.6383C812.489 23.6383 810.629 21.7779 810.629 19.5162Z" fill="url(#paint69_linear)"/>
<path d="M888.621 111.152H884.973V434.284H888.621V111.152Z" fill="url(#paint70_linear)"/>
<path d="M882.711 111.37C882.711 109.109 884.572 107.248 886.834 107.248C889.095 107.248 890.956 109.109 890.956 111.37C890.956 113.632 889.095 115.493 886.834 115.493C884.535 115.493 882.711 113.632 882.711 111.37Z" fill="url(#paint71_linear)"/>
<path d="M877.75 81.7139H874.102V463.76H877.75V81.7139Z" fill="url(#paint72_linear)"/>
<path d="M871.841 81.9324C871.841 79.6707 873.701 77.8103 875.963 77.8103C878.225 77.8103 880.085 79.6707 880.085 81.9324C880.085 84.1941 878.225 86.0546 875.963 86.0546C873.665 86.0181 871.841 84.1941 871.841 81.9324Z" fill="url(#paint73_linear)"/>
<path d="M951.365 17.7659H947.717V527.671H951.365V17.7659Z" fill="url(#paint74_linear)"/>
<path d="M945.456 17.9844C945.456 15.7227 947.316 13.8623 949.578 13.8623C951.839 13.8623 953.7 15.7227 953.7 17.9844C953.7 20.2461 951.839 22.1066 949.578 22.1066C947.28 22.1066 945.456 20.2461 945.456 17.9844Z" fill="url(#paint75_linear)"/>
<path d="M915.178 115.384H911.53V430.126H915.178V115.384Z" fill="url(#paint76_linear)"/>
<path d="M909.232 115.566C909.232 113.304 911.092 111.444 913.354 111.444C915.616 111.444 917.476 113.304 917.476 115.566C917.476 117.828 915.616 119.688 913.354 119.688C911.092 119.688 909.232 117.864 909.232 115.566Z" fill="url(#paint77_linear)"/>
<path d="M979.782 79.415H976.135V466.057H979.782V79.415Z" fill="url(#paint78_linear)"/>
<path d="M973.836 79.6339C973.836 77.3722 975.697 75.5117 977.959 75.5117C980.22 75.5117 982.081 77.3722 982.081 79.6339C982.081 81.8956 980.22 83.756 977.959 83.756C975.697 83.756 973.836 81.8956 973.836 79.6339Z" fill="url(#paint79_linear)"/>
<path d="M986.859 86.3101H983.212V459.2H986.859V86.3101Z" fill="url(#paint80_linear)"/>
<path d="M980.95 86.4922C980.95 84.2305 982.81 82.3701 985.072 82.3701C987.334 82.3701 989.194 84.2305 989.194 86.4922C989.194 88.754 987.334 90.6144 985.072 90.6144C982.774 90.6144 980.95 88.7904 980.95 86.4922Z" fill="url(#paint81_linear)"/>
<path d="M1062.92 35.9324H1059.27V509.541H1062.92V35.9324Z" fill="url(#paint82_linear)"/>
<path d="M1061.09 40.2731C1063.37 40.2731 1065.22 38.4275 1065.22 36.151C1065.22 33.8744 1063.37 32.0288 1061.09 32.0288C1058.82 32.0288 1056.97 33.8744 1056.97 36.151C1056.97 38.4275 1058.82 40.2731 1061.09 40.2731Z" fill="url(#paint83_linear)"/>
<path d="M1017.39 7.3689H1013.74V538.14H1017.39V7.3689Z" fill="url(#paint84_linear)"/>
<path d="M1011.45 7.55109C1011.45 5.28939 1013.31 3.42896 1015.57 3.42896C1017.83 3.42896 1019.69 5.28939 1019.69 7.55109C1019.69 9.8128 1017.83 11.6732 1015.57 11.6732C1013.31 11.6732 1011.45 9.84928 1011.45 7.55109Z" fill="url(#paint85_linear)"/>
<path d="M1059.27 14.7742H1055.62V530.698H1059.27V14.7742Z" fill="url(#paint86_linear)"/>
<path d="M1053.32 14.9928C1053.32 12.731 1055.18 10.8706 1057.45 10.8706C1059.71 10.8706 1061.57 12.731 1061.57 14.9928C1061.57 17.2545 1059.71 19.1149 1057.45 19.1149C1055.18 19.1149 1053.32 17.2545 1053.32 14.9928Z" fill="url(#paint87_linear)"/>
<path d="M1163.56 46.4014H1159.92V499.071H1163.56V46.4014Z" fill="url(#paint88_linear)"/>
<path d="M1157.62 46.6199C1157.62 44.3582 1159.48 42.4978 1161.74 42.4978C1164 42.4978 1165.86 44.3582 1165.86 46.6199C1165.86 48.8816 1164 50.7421 1161.74 50.7421C1159.48 50.7056 1157.62 48.8816 1157.62 46.6199Z" fill="url(#paint89_linear)"/>
<path d="M1159.11 81.6406H1155.47V463.832H1159.11V81.6406Z" fill="url(#paint90_linear)"/>
<path d="M1153.2 81.8594C1153.2 79.5977 1155.06 77.7373 1157.33 77.7373C1159.59 77.7373 1161.45 79.5977 1161.45 81.8594C1161.45 84.1211 1159.59 85.9816 1157.33 85.9816C1155.06 85.9816 1153.2 84.1211 1153.2 81.8594Z" fill="url(#paint91_linear)"/>
<path d="M1216.31 89.1912H1212.67V456.281H1216.31V89.1912Z" fill="url(#paint92_linear)"/>
<path d="M1210.37 89.41C1210.37 87.1483 1212.19 85.2878 1214.49 85.2878C1216.75 85.2878 1218.61 87.1483 1218.61 89.41C1218.61 91.6717 1216.75 93.5321 1214.49 93.5321C1212.23 93.5321 1210.37 91.6717 1210.37 89.41Z" fill="url(#paint93_linear)"/>
<path d="M1162.62 45.5989H1158.97V499.873H1162.62V45.5989Z" fill="url(#paint94_linear)"/>
<path d="M1156.67 45.8175C1156.67 43.5558 1158.53 41.6953 1160.79 41.6953C1163.05 41.6953 1164.91 43.5558 1164.91 45.8175C1164.91 48.0792 1163.05 49.9396 1160.79 49.9396C1158.53 49.9396 1156.67 48.0792 1156.67 45.8175Z" fill="url(#paint95_linear)"/>
<path d="M1183.77 57.054H1180.13V488.383H1183.77V57.054Z" fill="url(#paint96_linear)"/>
<path d="M1177.83 57.2725C1177.83 55.0108 1179.69 53.1504 1181.95 53.1504C1184.21 53.1504 1186.07 54.9744 1186.07 57.2725C1186.07 59.5342 1184.21 61.3947 1181.95 61.3947C1179.65 61.3947 1177.83 59.5342 1177.83 57.2725Z" fill="url(#paint97_linear)"/>
<path d="M1239.88 81.3486H1236.23V464.161H1239.88V81.3486Z" fill="url(#paint98_linear)"/>
<path d="M1233.93 81.5308C1233.93 79.2691 1235.79 77.4087 1238.05 77.4087C1240.32 77.4087 1242.18 79.2691 1242.18 81.5308C1242.18 83.7925 1240.32 85.653 1238.05 85.653C1235.76 85.653 1233.93 83.829 1233.93 81.5308Z" fill="url(#paint99_linear)"/>
<path d="M1219.56 76.5693H1215.91V468.902H1219.56V76.5693Z" fill="url(#paint100_linear)"/>
<path d="M1213.61 76.7881C1213.61 74.5264 1215.47 72.666 1217.74 72.666C1220 72.666 1221.86 74.5264 1221.86 76.7881C1221.86 79.0499 1220 80.9103 1217.74 80.9103C1215.47 80.8738 1213.61 79.0499 1213.61 76.7881Z" fill="url(#paint101_linear)"/>
<path d="M1243.56 7.77051H1239.92V537.703H1243.56V7.77051Z" fill="url(#paint102_linear)"/>
<path d="M1237.62 7.98908C1237.62 5.72738 1239.48 3.86694 1241.74 3.86694C1244 3.86694 1245.86 5.72738 1245.86 7.98908C1245.86 10.2508 1244 12.1112 1241.74 12.1112C1239.48 12.0747 1237.62 10.2508 1237.62 7.98908Z" fill="url(#paint103_linear)"/>
<path d="M1303.02 103.893H1299.38V441.616H1303.02V103.893Z" fill="url(#paint104_linear)"/>
<path d="M1297.08 104.075C1297.08 101.813 1298.94 99.9524 1301.2 99.9524C1303.46 99.9524 1305.32 101.813 1305.32 104.075C1305.32 106.336 1303.46 108.197 1301.2 108.197C1298.9 108.197 1297.08 106.373 1297.08 104.075Z" fill="url(#paint105_linear)"/>
<path d="M1374.89 112.976H1371.24V432.496H1374.89V112.976Z" fill="url(#paint106_linear)"/>
<path d="M1368.98 113.194C1368.98 110.933 1370.84 109.072 1373.1 109.072C1375.36 109.072 1377.22 110.933 1377.22 113.194C1377.22 115.456 1375.36 117.317 1373.1 117.317C1370.8 117.28 1368.98 115.456 1368.98 113.194Z" fill="url(#paint107_linear)"/>
<path d="M1382 18.8237H1378.35V526.65H1382V18.8237Z" fill="url(#paint108_linear)"/>
<path d="M1376.06 19.0426C1376.06 16.7808 1377.92 14.9204 1380.18 14.9204C1382.44 14.9204 1384.3 16.7808 1384.3 19.0426C1384.3 21.3043 1382.44 23.1647 1380.18 23.1647C1377.92 23.1647 1376.06 21.3043 1376.06 19.0426Z" fill="url(#paint109_linear)"/>
<path d="M1343.99 99.4055H1340.34V446.03H1343.99V99.4055Z" fill="url(#paint110_linear)"/>
<path d="M1338.04 99.6243C1338.04 97.3626 1339.9 95.5022 1342.17 95.5022C1344.43 95.5022 1346.29 97.3626 1346.29 99.6243C1346.29 101.886 1344.43 103.746 1342.17 103.746C1339.87 103.746 1338.04 101.886 1338.04 99.6243Z" fill="url(#paint111_linear)"/>
<path d="M1412.53 34.8743H1408.89V510.598H1412.53V34.8743Z" fill="url(#paint112_linear)"/>
<path d="M1406.62 35.0928C1406.62 32.8311 1408.49 30.9707 1410.75 30.9707C1413.01 30.9707 1414.87 32.7947 1414.87 35.0928C1414.87 37.3545 1413.01 39.215 1410.75 39.215C1408.49 39.215 1406.62 37.3545 1406.62 35.0928Z" fill="url(#paint113_linear)"/>
<path d="M1439.93 14.7742H1436.28V530.698H1439.93V14.7742Z" fill="url(#paint114_linear)"/>
<path d="M1433.98 14.9928C1433.98 12.731 1435.84 10.8706 1438.11 10.8706C1440.37 10.8706 1442.23 12.731 1442.23 14.9928C1442.23 17.2545 1440.37 19.1149 1438.11 19.1149C1435.84 19.1149 1433.98 17.2545 1433.98 14.9928Z" fill="url(#paint115_linear)"/>
<path d="M1429.5 74.345H1425.85V471.092H1429.5V74.345Z" fill="url(#paint116_linear)"/>
<path d="M1423.59 74.5635C1423.59 72.3018 1425.45 70.4414 1427.71 70.4414C1429.97 70.4414 1431.83 72.3018 1431.83 74.5635C1431.83 76.8252 1429.97 78.6857 1427.71 78.6857C1425.41 78.6857 1423.59 76.8252 1423.59 74.5635Z" fill="url(#paint117_linear)"/>
<path d="M1437.63 86.4553H1433.98V459.017H1437.63V86.4553Z" fill="url(#paint118_linear)"/>
<path d="M1431.69 86.6739C1431.69 84.4122 1433.55 82.5518 1435.81 82.5518C1438.07 82.5518 1439.93 84.4122 1439.93 86.6739C1439.93 88.9356 1438.11 90.796 1435.81 90.796C1433.51 90.796 1431.69 88.9356 1431.69 86.6739Z" fill="url(#paint119_linear)"/>
<defs>
<linearGradient id="paint0_linear" x1="18.31" y1="504.981" x2="18.31" y2="36.1241" gradientUnits="userSpaceOnUse">
<stop stop-color="#0F1145" stop-opacity="0"/>
<stop offset="1" stop-color="white" stop-opacity="0.07"/>
</linearGradient>
<linearGradient id="paint1_linear" x1="18.3196" y1="44.8702" x2="18.3196" y2="36.5471" gradientUnits="userSpaceOnUse">
<stop stop-color="#0F1145" stop-opacity="0"/>
<stop offset="1" stop-color="white" stop-opacity="0.07"/>
</linearGradient>
<linearGradient id="paint2_linear" x1="44.2102" y1="445.766" x2="44.2102" y2="96.4894" gradientUnits="userSpaceOnUse">
<stop stop-color="#0F1145" stop-opacity="0"/>
<stop offset="1" stop-color="white" stop-opacity="0.07"/>
</linearGradient>
<linearGradient id="paint3_linear" x1="44.2564" y1="104.076" x2="44.2564" y2="95.7526" gradientUnits="userSpaceOnUse">
<stop stop-color="#0F1145" stop-opacity="0"/>
<stop offset="1" stop-color="white" stop-opacity="0.07"/>
</linearGradient>
<linearGradient id="paint4_linear" x1="30.0563" y1="501.807" x2="30.0563" y2="39.3944" gradientUnits="userSpaceOnUse">
<stop stop-color="#0F1145" stop-opacity="0"/>
<stop offset="1" stop-color="white" stop-opacity="0.07"/>
</linearGradient>
<linearGradient id="paint5_linear" x1="30.0659" y1="48.0433" x2="30.0659" y2="39.7201" gradientUnits="userSpaceOnUse">
<stop stop-color="#0F1145" stop-opacity="0"/>
<stop offset="1" stop-color="white" stop-opacity="0.07"/>
</linearGradient>
<linearGradient id="paint6_linear" x1="101.665" y1="442.628" x2="101.665" y2="99.6857" gradientUnits="userSpaceOnUse">
<stop stop-color="#0F1145" stop-opacity="0"/>
<stop offset="1" stop-color="white" stop-opacity="0.07"/>
</linearGradient>
<linearGradient id="paint7_linear" x1="101.674" y1="107.212" x2="101.674" y2="98.8893" gradientUnits="userSpaceOnUse">
<stop stop-color="#0F1145" stop-opacity="0"/>
<stop offset="1" stop-color="white" stop-opacity="0.07"/>
</linearGradient>
<linearGradient id="paint8_linear" x1="163.278" y1="472.691" x2="163.278" y2="69.0567" gradientUnits="userSpaceOnUse">
<stop stop-color="#0F1145" stop-opacity="0"/>
<stop offset="1" stop-color="white" stop-opacity="0.07"/>
</linearGradient>
<linearGradient id="paint9_linear" x1="163.288" y1="77.1536" x2="163.288" y2="68.8305" gradientUnits="userSpaceOnUse">
<stop stop-color="#0F1145" stop-opacity="0"/>
<stop offset="1" stop-color="white" stop-opacity="0.07"/>
</linearGradient>
<linearGradient id="paint10_linear" x1="89.8456" y1="509.651" x2="89.8456" y2="31.3661" gradientUnits="userSpaceOnUse">
<stop stop-color="#0F1145" stop-opacity="0"/>
<stop offset="1" stop-color="white" stop-opacity="0.07"/>
</linearGradient>
<linearGradient id="paint11_linear" x1="89.8553" y1="40.2007" x2="89.8553" y2="31.8776" gradientUnits="userSpaceOnUse">
<stop stop-color="#0F1145" stop-opacity="0"/>
<stop offset="1" stop-color="white" stop-opacity="0.07"/>
</linearGradient>
<linearGradient id="paint12_linear" x1="111.697" y1="476.997" x2="111.697" y2="64.6708" gradientUnits="userSpaceOnUse">
<stop stop-color="#0F1145" stop-opacity="0"/>
<stop offset="1" stop-color="white" stop-opacity="0.07"/>
</linearGradient>
<linearGradient id="paint13_linear" x1="111.706" y1="72.8494" x2="111.706" y2="64.5263" gradientUnits="userSpaceOnUse">
<stop stop-color="#0F1145" stop-opacity="0"/>
<stop offset="1" stop-color="white" stop-opacity="0.07"/>
</linearGradient>
<linearGradient id="paint14_linear" x1="206.907" y1="432.996" x2="206.907" y2="109.462" gradientUnits="userSpaceOnUse">
<stop stop-color="#0F1145" stop-opacity="0"/>
<stop offset="1" stop-color="white" stop-opacity="0.07"/>
</linearGradient>
<linearGradient id="paint15_linear" x1="206.953" y1="116.843" x2="206.953" y2="108.52" gradientUnits="userSpaceOnUse">
<stop stop-color="#0F1145" stop-opacity="0"/>
<stop offset="1" stop-color="white" stop-opacity="0.07"/>
</linearGradient>
<linearGradient id="paint16_linear" x1="188.85" y1="431.609" x2="188.85" y2="110.875" gradientUnits="userSpaceOnUse">
<stop stop-color="#0F1145" stop-opacity="0"/>
<stop offset="1" stop-color="white" stop-opacity="0.07"/>
</linearGradient>
<linearGradient id="paint17_linear" x1="188.86" y1="118.229" x2="188.86" y2="109.906" gradientUnits="userSpaceOnUse">
<stop stop-color="#0F1145" stop-opacity="0"/>
<stop offset="1" stop-color="white" stop-opacity="0.07"/>
</linearGradient>
<linearGradient id="paint18_linear" x1="284.717" y1="470.211" x2="284.717" y2="71.5482" gradientUnits="userSpaceOnUse">
<stop stop-color="#0F1145" stop-opacity="0"/>
<stop offset="1" stop-color="white" stop-opacity="0.07"/>
</linearGradient>
<linearGradient id="paint19_linear" x1="284.727" y1="79.6348" x2="284.727" y2="71.3117" gradientUnits="userSpaceOnUse">
<stop stop-color="#0F1145" stop-opacity="0"/>
<stop offset="1" stop-color="white" stop-opacity="0.07"/>
</linearGradient>
<linearGradient id="paint20_linear" x1="296.828" y1="445.912" x2="296.828" y2="96.267" gradientUnits="userSpaceOnUse">
<stop stop-color="#0F1145" stop-opacity="0"/>
<stop offset="1" stop-color="white" stop-opacity="0.07"/>
</linearGradient>
<linearGradient id="paint21_linear" x1="296.874" y1="103.893" x2="296.874" y2="95.57" gradientUnits="userSpaceOnUse">
<stop stop-color="#0F1145" stop-opacity="0"/>
<stop offset="1" stop-color="white" stop-opacity="0.07"/>
</linearGradient>
<linearGradient id="paint22_linear" x1="244.882" y1="479.915" x2="244.882" y2="61.66" gradientUnits="userSpaceOnUse">
<stop stop-color="#0F1145" stop-opacity="0"/>
<stop offset="1" stop-color="white" stop-opacity="0.07"/>
</linearGradient>
<linearGradient id="paint23_linear" x1="244.891" y1="69.9307" x2="244.891" y2="61.6076" gradientUnits="userSpaceOnUse">
<stop stop-color="#0F1145" stop-opacity="0"/>
<stop offset="1" stop-color="white" stop-opacity="0.07"/>
</linearGradient>
<linearGradient id="paint24_linear" x1="356.617" y1="541.612" x2="356.617" y2="-1.15917" gradientUnits="userSpaceOnUse">
<stop stop-color="#0F1145" stop-opacity="0"/>
<stop offset="1" stop-color="white" stop-opacity="0.07"/>
</linearGradient>
<linearGradient id="paint25_linear" x1="356.627" y1="8.24493" x2="356.627" y2="-0.0781923" gradientUnits="userSpaceOnUse">
<stop stop-color="#0F1145" stop-opacity="0"/>
<stop offset="1" stop-color="white" stop-opacity="0.07"/>
</linearGradient>
<linearGradient id="paint26_linear" x1="369.349" y1="511.402" x2="369.349" y2="29.5819" gradientUnits="userSpaceOnUse">
<stop stop-color="#0F1145" stop-opacity="0"/>
<stop offset="1" stop-color="white" stop-opacity="0.07"/>
</linearGradient>
<linearGradient id="paint27_linear" x1="369.358" y1="38.4498" x2="369.358" y2="30.1266" gradientUnits="userSpaceOnUse">
<stop stop-color="#0F1145" stop-opacity="0"/>
<stop offset="1" stop-color="white" stop-opacity="0.07"/>
</linearGradient>
<linearGradient id="paint28_linear" x1="400.939" y1="527.018" x2="400.939" y2="13.7094" gradientUnits="userSpaceOnUse">
<stop stop-color="#0F1145" stop-opacity="0"/>
<stop offset="1" stop-color="white" stop-opacity="0.07"/>
</linearGradient>
<linearGradient id="paint29_linear" x1="400.949" y1="22.8365" x2="400.949" y2="14.5134" gradientUnits="userSpaceOnUse">
<stop stop-color="#0F1145" stop-opacity="0"/>
<stop offset="1" stop-color="white" stop-opacity="0.07"/>
</linearGradient>
<linearGradient id="paint30_linear" x1="391.564" y1="513.445" x2="391.564" y2="27.5369" gradientUnits="userSpaceOnUse">
<stop stop-color="#0F1145" stop-opacity="0"/>
<stop offset="1" stop-color="white" stop-opacity="0.07"/>
</linearGradient>
<linearGradient id="paint31_linear" x1="391.574" y1="36.4068" x2="391.574" y2="28.0837" gradientUnits="userSpaceOnUse">
<stop stop-color="#0F1145" stop-opacity="0"/>
<stop offset="1" stop-color="white" stop-opacity="0.07"/>
</linearGradient>
<linearGradient id="paint32_linear" x1="373.653" y1="468.167" x2="373.653" y2="73.6659" gradientUnits="userSpaceOnUse">
<stop stop-color="#0F1145" stop-opacity="0"/>
<stop offset="1" stop-color="white" stop-opacity="0.07"/>
</linearGradient>
<linearGradient id="paint33_linear" x1="373.663" y1="81.6771" x2="373.663" y2="73.3539" gradientUnits="userSpaceOnUse">
<stop stop-color="#0F1145" stop-opacity="0"/>
<stop offset="1" stop-color="white" stop-opacity="0.07"/>
</linearGradient>
<linearGradient id="paint34_linear" x1="405.317" y1="506.367" x2="405.317" y2="34.7111" gradientUnits="userSpaceOnUse">
<stop stop-color="#0F1145" stop-opacity="0"/>
<stop offset="1" stop-color="white" stop-opacity="0.07"/>
</linearGradient>
<linearGradient id="paint35_linear" x1="405.327" y1="43.4835" x2="405.327" y2="35.1603" gradientUnits="userSpaceOnUse">
<stop stop-color="#0F1145" stop-opacity="0"/>
<stop offset="1" stop-color="white" stop-opacity="0.07"/>
</linearGradient>
<linearGradient id="paint36_linear" x1="413.561" y1="440.767" x2="413.561" y2="101.545" gradientUnits="userSpaceOnUse">
<stop stop-color="#0F1145" stop-opacity="0"/>
<stop offset="1" stop-color="white" stop-opacity="0.07"/>
</linearGradient>
<linearGradient id="paint37_linear" x1="413.571" y1="109.073" x2="413.571" y2="100.75" gradientUnits="userSpaceOnUse">
<stop stop-color="#0F1145" stop-opacity="0"/>
<stop offset="1" stop-color="white" stop-opacity="0.07"/>
</linearGradient>
<linearGradient id="paint38_linear" x1="490.933" y1="482.397" x2="490.933" y2="59.1327" gradientUnits="userSpaceOnUse">
<stop stop-color="#0F1145" stop-opacity="0"/>
<stop offset="1" stop-color="white" stop-opacity="0.07"/>
</linearGradient>
<linearGradient id="paint39_linear" x1="490.943" y1="67.4505" x2="490.943" y2="59.1274" gradientUnits="userSpaceOnUse">
<stop stop-color="#0F1145" stop-opacity="0"/>
<stop offset="1" stop-color="white" stop-opacity="0.07"/>
</linearGradient>
<linearGradient id="paint40_linear" x1="514.207" y1="433.581" x2="514.207" y2="108.868" gradientUnits="userSpaceOnUse">
<stop stop-color="#0F1145" stop-opacity="0"/>
<stop offset="1" stop-color="white" stop-opacity="0.07"/>
</linearGradient>
<linearGradient id="paint41_linear" x1="514.217" y1="116.26" x2="514.217" y2="107.937" gradientUnits="userSpaceOnUse">
<stop stop-color="#0F1145" stop-opacity="0"/>
<stop offset="1" stop-color="white" stop-opacity="0.07"/>
</linearGradient>
<linearGradient id="paint42_linear" x1="544.704" y1="440.257" x2="544.704" y2="102.102" gradientUnits="userSpaceOnUse">
<stop stop-color="#0F1145" stop-opacity="0"/>
<stop offset="1" stop-color="white" stop-opacity="0.07"/>
</linearGradient>
<linearGradient id="paint43_linear" x1="544.713" y1="109.584" x2="544.713" y2="101.261" gradientUnits="userSpaceOnUse">
<stop stop-color="#0F1145" stop-opacity="0"/>
<stop offset="1" stop-color="white" stop-opacity="0.07"/>
</linearGradient>
<linearGradient id="paint44_linear" x1="593.622" y1="494.546" x2="593.622" y2="46.7544" gradientUnits="userSpaceOnUse">
<stop stop-color="#0F1145" stop-opacity="0"/>
<stop offset="1" stop-color="white" stop-opacity="0.07"/>
</linearGradient>
<linearGradient id="paint45_linear" x1="593.632" y1="55.3025" x2="593.632" y2="46.9794" gradientUnits="userSpaceOnUse">
<stop stop-color="#0F1145" stop-opacity="0"/>
<stop offset="1" stop-color="white" stop-opacity="0.07"/>
</linearGradient>
<linearGradient id="paint46_linear" x1="639.732" y1="540.152" x2="639.732" y2="0.29053" gradientUnits="userSpaceOnUse">
<stop stop-color="#0F1145" stop-opacity="0"/>
<stop offset="1" stop-color="white" stop-opacity="0.07"/>
</linearGradient>
<linearGradient id="paint47_linear" x1="639.741" y1="9.70367" x2="639.741" y2="1.38055" gradientUnits="userSpaceOnUse">
<stop stop-color="#0F1145" stop-opacity="0"/>
<stop offset="1" stop-color="white" stop-opacity="0.07"/>
</linearGradient>
<linearGradient id="paint48_linear" x1="650.894" y1="476.34" x2="650.894" y2="65.3028" gradientUnits="userSpaceOnUse">
<stop stop-color="#0F1145" stop-opacity="0"/>
<stop offset="1" stop-color="white" stop-opacity="0.07"/>
</linearGradient>
<linearGradient id="paint49_linear" x1="650.904" y1="73.5057" x2="650.904" y2="65.1825" gradientUnits="userSpaceOnUse">
<stop stop-color="#0F1145" stop-opacity="0"/>
<stop offset="1" stop-color="white" stop-opacity="0.07"/>
</linearGradient>
<linearGradient id="paint50_linear" x1="661.036" y1="508.812" x2="661.036" y2="32.2576" gradientUnits="userSpaceOnUse">
<stop stop-color="#0F1145" stop-opacity="0"/>
<stop offset="1" stop-color="white" stop-opacity="0.07"/>
</linearGradient>
<linearGradient id="paint51_linear" x1="661.082" y1="41.0396" x2="661.082" y2="32.7165" gradientUnits="userSpaceOnUse">
<stop stop-color="#0F1145" stop-opacity="0"/>
<stop offset="1" stop-color="white" stop-opacity="0.07"/>
</linearGradient>
<linearGradient id="paint52_linear" x1="667.821" y1="449.086" x2="667.821" y2="93.1071" gradientUnits="userSpaceOnUse">
<stop stop-color="#0F1145" stop-opacity="0"/>
<stop offset="1" stop-color="white" stop-opacity="0.07"/>
</linearGradient>
<linearGradient id="paint53_linear" x1="667.83" y1="100.756" x2="667.83" y2="92.4333" gradientUnits="userSpaceOnUse">
<stop stop-color="#0F1145" stop-opacity="0"/>
<stop offset="1" stop-color="white" stop-opacity="0.07"/>
</linearGradient>
<linearGradient id="paint54_linear" x1="726.443" y1="533.878" x2="726.443" y2="6.72166" gradientUnits="userSpaceOnUse">
<stop stop-color="#0F1145" stop-opacity="0"/>
<stop offset="1" stop-color="white" stop-opacity="0.07"/>
</linearGradient>
<linearGradient id="paint55_linear" x1="726.452" y1="15.9791" x2="726.452" y2="7.65594" gradientUnits="userSpaceOnUse">
<stop stop-color="#0F1145" stop-opacity="0"/>
<stop offset="1" stop-color="white" stop-opacity="0.07"/>
</linearGradient>
<linearGradient id="paint56_linear" x1="738.262" y1="461.709" x2="738.262" y2="80.2452" gradientUnits="userSpaceOnUse">
<stop stop-color="#0F1145" stop-opacity="0"/>
<stop offset="1" stop-color="white" stop-opacity="0.07"/>
</linearGradient>
<linearGradient id="paint57_linear" x1="738.272" y1="88.1338" x2="738.272" y2="79.8107" gradientUnits="userSpaceOnUse">
<stop stop-color="#0F1145" stop-opacity="0"/>
<stop offset="1" stop-color="white" stop-opacity="0.07"/>
</linearGradient>
<linearGradient id="paint58_linear" x1="784.481" y1="435.951" x2="784.481" y2="106.488" gradientUnits="userSpaceOnUse">
<stop stop-color="#0F1145" stop-opacity="0"/>
<stop offset="1" stop-color="white" stop-opacity="0.07"/>
</linearGradient>
<linearGradient id="paint59_linear" x1="784.491" y1="113.888" x2="784.491" y2="105.565" gradientUnits="userSpaceOnUse">
<stop stop-color="#0F1145" stop-opacity="0"/>
<stop offset="1" stop-color="white" stop-opacity="0.07"/>
</linearGradient>
<linearGradient id="paint60_linear" x1="739.502" y1="540.116" x2="739.502" y2="0.327842" gradientUnits="userSpaceOnUse">
<stop stop-color="#0F1145" stop-opacity="0"/>
<stop offset="1" stop-color="white" stop-opacity="0.07"/>
</linearGradient>
<linearGradient id="paint61_linear" x1="739.512" y1="9.7403" x2="739.512" y2="1.41717" gradientUnits="userSpaceOnUse">
<stop stop-color="#0F1145" stop-opacity="0"/>
<stop offset="1" stop-color="white" stop-opacity="0.07"/>
</linearGradient>
<linearGradient id="paint62_linear" x1="799.073" y1="486.337" x2="799.073" y2="55.1548" gradientUnits="userSpaceOnUse">
<stop stop-color="#0F1145" stop-opacity="0"/>
<stop offset="1" stop-color="white" stop-opacity="0.07"/>
</linearGradient>
<linearGradient id="paint63_linear" x1="799.082" y1="63.5106" x2="799.082" y2="55.1874" gradientUnits="userSpaceOnUse">
<stop stop-color="#0F1145" stop-opacity="0"/>
<stop offset="1" stop-color="white" stop-opacity="0.07"/>
</linearGradient>
<linearGradient id="paint64_linear" x1="854.265" y1="492.795" x2="854.265" y2="48.5755" gradientUnits="userSpaceOnUse">
<stop stop-color="#0F1145" stop-opacity="0"/>
<stop offset="1" stop-color="white" stop-opacity="0.07"/>
</linearGradient>
<linearGradient id="paint65_linear" x1="854.275" y1="57.0535" x2="854.275" y2="48.7304" gradientUnits="userSpaceOnUse">
<stop stop-color="#0F1145" stop-opacity="0"/>
<stop offset="1" stop-color="white" stop-opacity="0.07"/>
</linearGradient>
<linearGradient id="paint66_linear" x1="885.382" y1="514.321" x2="885.382" y2="26.5711" gradientUnits="userSpaceOnUse">
<stop stop-color="#0F1145" stop-opacity="0"/>
<stop offset="1" stop-color="white" stop-opacity="0.07"/>
</linearGradient>
<linearGradient id="paint67_linear" x1="885.428" y1="35.4947" x2="885.428" y2="27.1716" gradientUnits="userSpaceOnUse">
<stop stop-color="#0F1145" stop-opacity="0"/>
<stop offset="1" stop-color="white" stop-opacity="0.07"/>
</linearGradient>
<linearGradient id="paint68_linear" x1="814.759" y1="526.179" x2="814.759" y2="14.4905" gradientUnits="userSpaceOnUse">
<stop stop-color="#0F1145" stop-opacity="0"/>
<stop offset="1" stop-color="white" stop-opacity="0.07"/>
</linearGradient>
<linearGradient id="paint69_linear" x1="814.768" y1="23.639" x2="814.768" y2="15.3159" gradientUnits="userSpaceOnUse">
<stop stop-color="#0F1145" stop-opacity="0"/>
<stop offset="1" stop-color="white" stop-opacity="0.07"/>
</linearGradient>
<linearGradient id="paint70_linear" x1="886.805" y1="434.309" x2="886.805" y2="108.087" gradientUnits="userSpaceOnUse">
<stop stop-color="#0F1145" stop-opacity="0"/>
<stop offset="1" stop-color="white" stop-opacity="0.07"/>
</linearGradient>
<linearGradient id="paint71_linear" x1="886.851" y1="115.493" x2="886.851" y2="107.17" gradientUnits="userSpaceOnUse">
<stop stop-color="#0F1145" stop-opacity="0"/>
<stop offset="1" stop-color="white" stop-opacity="0.07"/>
</linearGradient>
<linearGradient id="paint72_linear" x1="875.934" y1="463.79" x2="875.934" y2="78.0904" gradientUnits="userSpaceOnUse">
<stop stop-color="#0F1145" stop-opacity="0"/>
<stop offset="1" stop-color="white" stop-opacity="0.07"/>
</linearGradient>
<linearGradient id="paint73_linear" x1="875.98" y1="86.0552" x2="875.98" y2="77.7321" gradientUnits="userSpaceOnUse">
<stop stop-color="#0F1145" stop-opacity="0"/>
<stop offset="1" stop-color="white" stop-opacity="0.07"/>
</linearGradient>
<linearGradient id="paint74_linear" x1="949.549" y1="527.711" x2="949.549" y2="12.9297" gradientUnits="userSpaceOnUse">
<stop stop-color="#0F1145" stop-opacity="0"/>
<stop offset="1" stop-color="white" stop-opacity="0.07"/>
</linearGradient>
<linearGradient id="paint75_linear" x1="949.595" y1="22.1072" x2="949.595" y2="13.7841" gradientUnits="userSpaceOnUse">
<stop stop-color="#0F1145" stop-opacity="0"/>
<stop offset="1" stop-color="white" stop-opacity="0.07"/>
</linearGradient>
<linearGradient id="paint76_linear" x1="913.362" y1="430.151" x2="913.362" y2="112.399" gradientUnits="userSpaceOnUse">
<stop stop-color="#0F1145" stop-opacity="0"/>
<stop offset="1" stop-color="white" stop-opacity="0.07"/>
</linearGradient>
<linearGradient id="paint77_linear" x1="913.371" y1="119.689" x2="913.371" y2="111.366" gradientUnits="userSpaceOnUse">
<stop stop-color="#0F1145" stop-opacity="0"/>
<stop offset="1" stop-color="white" stop-opacity="0.07"/>
</linearGradient>
<linearGradient id="paint78_linear" x1="977.966" y1="466.088" x2="977.966" y2="75.748" gradientUnits="userSpaceOnUse">
<stop stop-color="#0F1145" stop-opacity="0"/>
<stop offset="1" stop-color="white" stop-opacity="0.07"/>
</linearGradient>
<linearGradient id="paint79_linear" x1="977.976" y1="83.7566" x2="977.976" y2="75.4335" gradientUnits="userSpaceOnUse">
<stop stop-color="#0F1145" stop-opacity="0"/>
<stop offset="1" stop-color="white" stop-opacity="0.07"/>
</linearGradient>
<linearGradient id="paint80_linear" x1="985.043" y1="459.229" x2="985.043" y2="82.7734" gradientUnits="userSpaceOnUse">
<stop stop-color="#0F1145" stop-opacity="0"/>
<stop offset="1" stop-color="white" stop-opacity="0.07"/>
</linearGradient>
<linearGradient id="paint81_linear" x1="985.089" y1="90.615" x2="985.089" y2="82.2919" gradientUnits="userSpaceOnUse">
<stop stop-color="#0F1145" stop-opacity="0"/>
<stop offset="1" stop-color="white" stop-opacity="0.07"/>
</linearGradient>
<linearGradient id="paint82_linear" x1="1061.1" y1="509.578" x2="1061.1" y2="31.4405" gradientUnits="userSpaceOnUse">
<stop stop-color="#0F1145" stop-opacity="0"/>
<stop offset="1" stop-color="white" stop-opacity="0.07"/>
</linearGradient>
<linearGradient id="paint83_linear" x1="1061.11" y1="40.2737" x2="1061.11" y2="31.9506" gradientUnits="userSpaceOnUse">
<stop stop-color="#0F1145" stop-opacity="0"/>
<stop offset="1" stop-color="white" stop-opacity="0.07"/>
</linearGradient>
<linearGradient id="paint84_linear" x1="1015.58" y1="538.182" x2="1015.58" y2="2.33483" gradientUnits="userSpaceOnUse">
<stop stop-color="#0F1145" stop-opacity="0"/>
<stop offset="1" stop-color="white" stop-opacity="0.07"/>
</linearGradient>
<linearGradient id="paint85_linear" x1="1015.59" y1="11.6739" x2="1015.59" y2="3.35076" gradientUnits="userSpaceOnUse">
<stop stop-color="#0F1145" stop-opacity="0"/>
<stop offset="1" stop-color="white" stop-opacity="0.07"/>
</linearGradient>
<linearGradient id="paint86_linear" x1="1057.45" y1="530.739" x2="1057.45" y2="9.88092" gradientUnits="userSpaceOnUse">
<stop stop-color="#0F1145" stop-opacity="0"/>
<stop offset="1" stop-color="white" stop-opacity="0.07"/>
</linearGradient>
<linearGradient id="paint87_linear" x1="1057.46" y1="19.1155" x2="1057.46" y2="10.7924" gradientUnits="userSpaceOnUse">
<stop stop-color="#0F1145" stop-opacity="0"/>
<stop offset="1" stop-color="white" stop-opacity="0.07"/>
</linearGradient>
<linearGradient id="paint88_linear" x1="1161.75" y1="499.107" x2="1161.75" y2="42.1081" gradientUnits="userSpaceOnUse">
<stop stop-color="#0F1145" stop-opacity="0"/>
<stop offset="1" stop-color="white" stop-opacity="0.07"/>
</linearGradient>
<linearGradient id="paint89_linear" x1="1161.76" y1="50.7427" x2="1161.76" y2="42.4196" gradientUnits="userSpaceOnUse">
<stop stop-color="#0F1145" stop-opacity="0"/>
<stop offset="1" stop-color="white" stop-opacity="0.07"/>
</linearGradient>
<linearGradient id="paint90_linear" x1="1157.3" y1="463.863" x2="1157.3" y2="78.0158" gradientUnits="userSpaceOnUse">
<stop stop-color="#0F1145" stop-opacity="0"/>
<stop offset="1" stop-color="white" stop-opacity="0.07"/>
</linearGradient>
<linearGradient id="paint91_linear" x1="1157.34" y1="85.9822" x2="1157.34" y2="77.6591" gradientUnits="userSpaceOnUse">
<stop stop-color="#0F1145" stop-opacity="0"/>
<stop offset="1" stop-color="white" stop-opacity="0.07"/>
</linearGradient>
<linearGradient id="paint92_linear" x1="1214.5" y1="456.31" x2="1214.5" y2="85.7095" gradientUnits="userSpaceOnUse">
<stop stop-color="#0F1145" stop-opacity="0"/>
<stop offset="1" stop-color="white" stop-opacity="0.07"/>
</linearGradient>
<linearGradient id="paint93_linear" x1="1214.51" y1="93.5328" x2="1214.51" y2="85.2096" gradientUnits="userSpaceOnUse">
<stop stop-color="#0F1145" stop-opacity="0"/>
<stop offset="1" stop-color="white" stop-opacity="0.07"/>
</linearGradient>
<linearGradient id="paint94_linear" x1="1160.8" y1="499.909" x2="1160.8" y2="41.2903" gradientUnits="userSpaceOnUse">
<stop stop-color="#0F1145" stop-opacity="0"/>
<stop offset="1" stop-color="white" stop-opacity="0.07"/>
</linearGradient>
<linearGradient id="paint95_linear" x1="1160.81" y1="49.9402" x2="1160.81" y2="41.6171" gradientUnits="userSpaceOnUse">
<stop stop-color="#0F1145" stop-opacity="0"/>
<stop offset="1" stop-color="white" stop-opacity="0.07"/>
</linearGradient>
<linearGradient id="paint96_linear" x1="1181.96" y1="488.417" x2="1181.96" y2="52.963" gradientUnits="userSpaceOnUse">
<stop stop-color="#0F1145" stop-opacity="0"/>
<stop offset="1" stop-color="white" stop-opacity="0.07"/>
</linearGradient>
<linearGradient id="paint97_linear" x1="1181.97" y1="61.3953" x2="1181.97" y2="53.0722" gradientUnits="userSpaceOnUse">
<stop stop-color="#0F1145" stop-opacity="0"/>
<stop offset="1" stop-color="white" stop-opacity="0.07"/>
</linearGradient>
<linearGradient id="paint98_linear" x1="1238.06" y1="464.191" x2="1238.06" y2="77.7179" gradientUnits="userSpaceOnUse">
<stop stop-color="#0F1145" stop-opacity="0"/>
<stop offset="1" stop-color="white" stop-opacity="0.07"/>
</linearGradient>
<linearGradient id="paint99_linear" x1="1238.07" y1="85.6536" x2="1238.07" y2="77.3305" gradientUnits="userSpaceOnUse">
<stop stop-color="#0F1145" stop-opacity="0"/>
<stop offset="1" stop-color="white" stop-opacity="0.07"/>
</linearGradient>
<linearGradient id="paint100_linear" x1="1217.74" y1="468.933" x2="1217.74" y2="72.8483" gradientUnits="userSpaceOnUse">
<stop stop-color="#0F1145" stop-opacity="0"/>
<stop offset="1" stop-color="white" stop-opacity="0.07"/>
</linearGradient>
<linearGradient id="paint101_linear" x1="1217.75" y1="80.9109" x2="1217.75" y2="72.5878" gradientUnits="userSpaceOnUse">
<stop stop-color="#0F1145" stop-opacity="0"/>
<stop offset="1" stop-color="white" stop-opacity="0.07"/>
</linearGradient>
<linearGradient id="paint102_linear" x1="1241.75" y1="537.745" x2="1241.75" y2="2.7444" gradientUnits="userSpaceOnUse">
<stop stop-color="#0F1145" stop-opacity="0"/>
<stop offset="1" stop-color="white" stop-opacity="0.07"/>
</linearGradient>
<linearGradient id="paint103_linear" x1="1241.76" y1="12.1119" x2="1241.76" y2="3.78875" gradientUnits="userSpaceOnUse">
<stop stop-color="#0F1145" stop-opacity="0"/>
<stop offset="1" stop-color="white" stop-opacity="0.07"/>
</linearGradient>
<linearGradient id="paint104_linear" x1="1301.21" y1="441.643" x2="1301.21" y2="100.689" gradientUnits="userSpaceOnUse">
<stop stop-color="#0F1145" stop-opacity="0"/>
<stop offset="1" stop-color="white" stop-opacity="0.07"/>
</linearGradient>
<linearGradient id="paint105_linear" x1="1301.22" y1="108.197" x2="1301.22" y2="99.8742" gradientUnits="userSpaceOnUse">
<stop stop-color="#0F1145" stop-opacity="0"/>
<stop offset="1" stop-color="white" stop-opacity="0.07"/>
</linearGradient>
<linearGradient id="paint106_linear" x1="1373.07" y1="432.522" x2="1373.07" y2="109.945" gradientUnits="userSpaceOnUse">
<stop stop-color="#0F1145" stop-opacity="0"/>
<stop offset="1" stop-color="white" stop-opacity="0.07"/>
</linearGradient>
<linearGradient id="paint107_linear" x1="1373.12" y1="117.317" x2="1373.12" y2="108.994" gradientUnits="userSpaceOnUse">
<stop stop-color="#0F1145" stop-opacity="0"/>
<stop offset="1" stop-color="white" stop-opacity="0.07"/>
</linearGradient>
<linearGradient id="paint108_linear" x1="1380.19" y1="526.69" x2="1380.19" y2="14.0073" gradientUnits="userSpaceOnUse">
<stop stop-color="#0F1145" stop-opacity="0"/>
<stop offset="1" stop-color="white" stop-opacity="0.07"/>
</linearGradient>
<linearGradient id="paint109_linear" x1="1380.19" y1="23.1653" x2="1380.19" y2="14.8422" gradientUnits="userSpaceOnUse">
<stop stop-color="#0F1145" stop-opacity="0"/>
<stop offset="1" stop-color="white" stop-opacity="0.07"/>
</linearGradient>
<linearGradient id="paint110_linear" x1="1342.17" y1="446.058" x2="1342.17" y2="96.118" gradientUnits="userSpaceOnUse">
<stop stop-color="#0F1145" stop-opacity="0"/>
<stop offset="1" stop-color="white" stop-opacity="0.07"/>
</linearGradient>
<linearGradient id="paint111_linear" x1="1342.18" y1="103.747" x2="1342.18" y2="95.424" gradientUnits="userSpaceOnUse">
<stop stop-color="#0F1145" stop-opacity="0"/>
<stop offset="1" stop-color="white" stop-opacity="0.07"/>
</linearGradient>
<linearGradient id="paint112_linear" x1="1410.72" y1="510.636" x2="1410.72" y2="30.3623" gradientUnits="userSpaceOnUse">
<stop stop-color="#0F1145" stop-opacity="0"/>
<stop offset="1" stop-color="white" stop-opacity="0.07"/>
</linearGradient>
<linearGradient id="paint113_linear" x1="1410.76" y1="39.2156" x2="1410.76" y2="30.8925" gradientUnits="userSpaceOnUse">
<stop stop-color="#0F1145" stop-opacity="0"/>
<stop offset="1" stop-color="white" stop-opacity="0.07"/>
</linearGradient>
<linearGradient id="paint114_linear" x1="1438.11" y1="530.739" x2="1438.11" y2="9.88092" gradientUnits="userSpaceOnUse">
<stop stop-color="#0F1145" stop-opacity="0"/>
<stop offset="1" stop-color="white" stop-opacity="0.07"/>
</linearGradient>
<linearGradient id="paint115_linear" x1="1438.12" y1="19.1155" x2="1438.12" y2="10.7924" gradientUnits="userSpaceOnUse">
<stop stop-color="#0F1145" stop-opacity="0"/>
<stop offset="1" stop-color="white" stop-opacity="0.07"/>
</linearGradient>
<linearGradient id="paint116_linear" x1="1427.68" y1="471.123" x2="1427.68" y2="70.5821" gradientUnits="userSpaceOnUse">
<stop stop-color="#0F1145" stop-opacity="0"/>
<stop offset="1" stop-color="white" stop-opacity="0.07"/>
</linearGradient>
<linearGradient id="paint117_linear" x1="1427.73" y1="78.6863" x2="1427.73" y2="70.3632" gradientUnits="userSpaceOnUse">
<stop stop-color="#0F1145" stop-opacity="0"/>
<stop offset="1" stop-color="white" stop-opacity="0.07"/>
</linearGradient>
<linearGradient id="paint118_linear" x1="1435.82" y1="459.046" x2="1435.82" y2="82.9218" gradientUnits="userSpaceOnUse">
<stop stop-color="#0F1145" stop-opacity="0"/>
<stop offset="1" stop-color="white" stop-opacity="0.07"/>
</linearGradient>
<linearGradient id="paint119_linear" x1="1435.83" y1="90.7967" x2="1435.83" y2="82.4736" gradientUnits="userSpaceOnUse">
<stop stop-color="#0F1145" stop-opacity="0"/>
<stop offset="1" stop-color="white" stop-opacity="0.07"/>
</linearGradient>
</defs>
</svg>
