<svg width="245" height="337" viewBox="0 0 245 337" fill="none" xmlns="http://www.w3.org/2000/svg">
<path d="M124.997 10.0709L122.127 8.88206L119.257 10.0709L12.1299 54.4442L7.5 56.362L7.5 61.3733L7.50003 168.5C7.50001 236.379 48.3896 297.575 111.102 323.551L119.257 326.929L122.127 328.118L124.997 326.929L133.151 323.551C195.864 297.575 236.753 236.379 236.753 168.5V61.3733V56.362L232.123 54.4442L124.997 10.0709Z" stroke="url(#paint0_angular)" stroke-width="15"/>
<path d="M122.127 17L229.253 61.3733V168.5V168.5C229.253 233.346 190.191 291.807 130.281 316.622L122.127 320L113.972 316.622C54.0623 291.807 15 233.346 15 168.5V168.5L15 61.3733L122.127 17Z" fill="url(#paint1_angular)"/>
<path d="M109.445 228.75C111.496 229.336 113.254 228.164 113.84 226.406L153.977 88.7109C154.562 86.6602 153.391 84.6094 151.633 84.3164L133.762 79.043C131.711 78.457 129.953 79.6289 129.367 81.3867L89.2305 219.082C88.6445 221.133 89.8164 222.891 91.5742 223.477L109.445 228.75ZM76.0469 195.938L88.9375 182.168C90.4023 180.703 90.1094 178.652 88.6445 177.188L62.2773 153.75L88.6445 130.605C90.1094 129.141 90.4023 126.797 88.9375 125.625L76.0469 111.855C74.875 110.391 72.5312 110.391 71.0664 111.855L28.8789 151.406C27.4141 152.578 27.4141 154.922 28.8789 156.387L71.0664 195.938C72.5312 197.402 74.875 197.402 76.0469 195.938ZM172.141 195.938L214.328 156.387C215.793 155.215 215.793 152.578 214.328 151.406L172.141 111.855C170.676 110.391 168.332 110.391 167.16 111.855L154.27 125.332C153.098 126.797 153.098 129.141 154.562 130.605L181.223 153.75L154.562 177.188C153.098 178.652 152.805 180.703 154.27 182.168L167.16 195.938C168.332 197.402 170.676 197.402 172.141 195.938Z" fill="url(#paint2_angular)"/>
<defs>
<radialGradient id="paint0_angular" cx="0" cy="0" r="1" gradientUnits="userSpaceOnUse" gradientTransform="translate(122.127 168.5) rotate(90) scale(151.5 107.127)">
<stop stop-color="#6A6A6A"/>
<stop offset="1"/>
</radialGradient>
<radialGradient id="paint1_angular" cx="0" cy="0" r="1" gradientUnits="userSpaceOnUse" gradientTransform="translate(121.869 17) rotate(90) scale(176.745 262.725)">
<stop stop-color="#75D978"/>
<stop offset="1" stop-color="#19811C"/>
</radialGradient>
<radialGradient id="paint2_angular" cx="0" cy="0" r="1" gradientUnits="userSpaceOnUse" gradientTransform="translate(122 16.5) rotate(90) scale(277.5 185.658)">
<stop stop-color="white"/>
<stop offset="1" stop-color="#C8C8C8" stop-opacity="0.71"/>
</radialGradient>
</defs>
</svg>
