<svg width="1440" height="582" viewBox="0 0 1440 582" fill="none" xmlns="http://www.w3.org/2000/svg">
<path d="M-41.9434 800.103C31.6706 800.103 91.3466 740.427 91.3466 666.813C91.3466 593.199 31.6706 533.523 -41.9434 533.523C-115.557 533.523 -175.233 593.199 -175.233 666.813C-175.233 740.427 -115.557 800.103 -41.9434 800.103Z" fill="url(#paint0_radial)"/>
<path d="M107.696 95.9151C111.562 95.9151 114.695 92.7815 114.695 88.916C114.695 85.0506 111.562 81.917 107.696 81.917C103.831 81.917 100.697 85.0506 100.697 88.916C100.697 92.7815 103.831 95.9151 107.696 95.9151Z" fill="url(#paint1_radial)"/>
<path d="M1180.48 450.543C1180.48 441.948 1173.51 434.949 1164.89 434.949C1156.29 434.949 1149.3 441.92 1149.3 450.543C1149.3 459.138 1156.27 466.137 1164.89 466.137C1173.48 466.109 1180.48 459.138 1180.48 450.543Z" fill="url(#paint2_radial)"/>
<path opacity="0.2" d="M464.06 341.386C464.06 332.792 457.089 325.792 448.466 325.792C439.871 325.792 432.872 332.764 432.872 341.386C432.872 349.981 439.843 356.98 448.466 356.98C457.089 356.952 464.06 349.981 464.06 341.386Z" fill="url(#paint3_radial)"/>
<path opacity="0.2" d="M14.3849 494.805C14.3849 486.21 7.41387 479.211 -1.20897 479.211C-9.8038 479.211 -16.8029 486.182 -16.8029 494.805C-16.8029 503.4 -9.8318 510.399 -1.20897 510.399C7.41387 510.371 14.3849 503.4 14.3849 494.805Z" fill="url(#paint4_radial)"/>
<path d="M1418.12 163.61C1421.98 163.61 1425.11 160.476 1425.11 156.611C1425.11 152.745 1421.98 149.612 1418.12 149.612C1414.25 149.612 1411.12 152.745 1411.12 156.611C1411.12 160.476 1414.25 163.61 1418.12 163.61Z" fill="url(#paint5_radial)"/>
<path d="M223.237 436.041C227.102 436.041 230.236 432.907 230.236 429.042C230.236 425.177 227.102 422.043 223.237 422.043C219.371 422.043 216.238 425.177 216.238 429.042C216.238 432.907 219.371 436.041 223.237 436.041Z" fill="url(#paint6_radial)"/>
<path d="M1014.77 547.242C1014.77 543.379 1011.64 540.243 1007.77 540.243C1003.91 540.243 1000.78 543.379 1000.78 547.242C1000.78 551.106 1003.91 554.241 1007.77 554.241C1011.67 554.241 1014.77 551.106 1014.77 547.242Z" fill="url(#paint7_radial)"/>
<path d="M1321 537.164C1324.86 537.164 1328 534.03 1328 530.165C1328 526.299 1324.86 523.166 1321 523.166C1317.13 523.166 1314 526.299 1314 530.165C1314 534.03 1317.13 537.164 1321 537.164Z" fill="url(#paint8_radial)"/>
<path d="M459.049 434.865C462.914 434.865 466.048 431.732 466.048 427.866C466.048 424.001 462.914 420.867 459.049 420.867C455.183 420.867 452.05 424.001 452.05 427.866C452.05 431.732 455.183 434.865 459.049 434.865Z" fill="url(#paint9_radial)"/>
<path d="M408.516 503.792C412.381 503.792 415.515 500.658 415.515 496.793C415.515 492.927 412.381 489.793 408.516 489.793C404.65 489.793 401.517 492.927 401.517 496.793C401.517 500.658 404.65 503.792 408.516 503.792Z" fill="url(#paint10_radial)"/>
<path opacity="0.2" d="M595.502 15.5939C595.502 6.99905 588.531 0 579.908 0C571.314 0 564.315 6.97106 564.315 15.5939C564.315 24.1887 571.286 31.1878 579.908 31.1878C588.531 31.1598 595.502 24.1887 595.502 15.5939Z" fill="url(#paint11_radial)"/>
<path d="M946.575 38.1588C950.44 38.1588 953.574 35.0252 953.574 31.1597C953.574 27.2942 950.44 24.1606 946.575 24.1606C942.709 24.1606 939.576 27.2942 939.576 31.1597C939.576 35.0252 942.709 38.1588 946.575 38.1588Z" fill="url(#paint12_radial)"/>
<path d="M810.681 97.7344C814.547 97.7344 817.68 94.6009 817.68 90.7354C817.68 86.8699 814.547 83.7363 810.681 83.7363C806.816 83.7363 803.682 86.8699 803.682 90.7354C803.682 94.6009 806.816 97.7344 810.681 97.7344Z" fill="url(#paint13_radial)"/>
<path d="M590.491 109.073C594.356 109.073 597.49 105.94 597.49 102.074C597.49 98.2088 594.356 95.0752 590.491 95.0752C586.626 95.0752 583.492 98.2088 583.492 102.074C583.492 105.94 586.626 109.073 590.491 109.073Z" fill="url(#paint14_radial)"/>
<path d="M222.285 524.09C226.15 524.09 229.284 520.956 229.284 517.091C229.284 513.225 226.15 510.092 222.285 510.092C218.419 510.092 215.286 513.225 215.286 517.091C215.286 520.956 218.419 524.09 222.285 524.09Z" fill="url(#paint15_radial)"/>
<defs>
<radialGradient id="paint0_radial" cx="0" cy="0" r="1" gradientUnits="userSpaceOnUse" gradientTransform="translate(-41.9431 666.812) scale(133.277)">
<stop offset="0.5642" stop-color="#DE0000"/>
<stop offset="0.6313" stop-color="#DA0000"/>
<stop offset="0.6907" stop-color="#D00000"/>
<stop offset="0.7473" stop-color="#BE0000"/>
<stop offset="0.8021" stop-color="#A40000"/>
<stop offset="0.8556" stop-color="#830000"/>
<stop offset="0.9082" stop-color="#5B0000"/>
<stop offset="0.959" stop-color="#2C0000"/>
<stop offset="1"/>
</radialGradient>
<radialGradient id="paint1_radial" cx="0" cy="0" r="1" gradientUnits="userSpaceOnUse" gradientTransform="translate(107.707 88.9113) scale(6.99904)">
<stop offset="0.5642" stop-color="#F50000"/>
<stop offset="0.6284" stop-color="#F10000"/>
<stop offset="0.6852" stop-color="#E70000"/>
<stop offset="0.7393" stop-color="#D50000"/>
<stop offset="0.7917" stop-color="#BB0000"/>
<stop offset="0.8429" stop-color="#9A0000"/>
<stop offset="0.8933" stop-color="#720000"/>
<stop offset="0.9428" stop-color="#420000"/>
<stop offset="0.9906" stop-color="#0C0000"/>
<stop offset="1"/>
</radialGradient>
<radialGradient id="paint2_radial" cx="0" cy="0" r="1" gradientUnits="userSpaceOnUse" gradientTransform="translate(1164.89 450.535) scale(15.581)">
<stop offset="0.5642" stop-color="#6E008B"/>
<stop offset="0.6471" stop-color="#6B0087"/>
<stop offset="0.7204" stop-color="#63007D"/>
<stop offset="0.7902" stop-color="#54006B"/>
<stop offset="0.8578" stop-color="#400051"/>
<stop offset="0.9239" stop-color="#260030"/>
<stop offset="0.9879" stop-color="#070008"/>
<stop offset="1"/>
</radialGradient>
<radialGradient id="paint3_radial" cx="0" cy="0" r="1" gradientUnits="userSpaceOnUse" gradientTransform="translate(448.489 341.374) scale(15.581)">
<stop offset="0.5642" stop-color="#EA8100"/>
<stop offset="0.6297" stop-color="#E67F00"/>
<stop offset="0.6877" stop-color="#DC7900"/>
<stop offset="0.743" stop-color="#CA6F00"/>
<stop offset="0.7965" stop-color="#B06100"/>
<stop offset="0.8487" stop-color="#8F4F00"/>
<stop offset="0.9001" stop-color="#673900"/>
<stop offset="0.95" stop-color="#371F00"/>
<stop offset="0.9989" stop-color="#010100"/>
<stop offset="1"/>
</radialGradient>
<radialGradient id="paint4_radial" cx="0" cy="0" r="1" gradientUnits="userSpaceOnUse" gradientTransform="translate(-1.19777 494.794) scale(15.581)">
<stop offset="0.5642" stop-color="#EA8100"/>
<stop offset="0.6297" stop-color="#E67F00"/>
<stop offset="0.6877" stop-color="#DC7900"/>
<stop offset="0.743" stop-color="#CA6F00"/>
<stop offset="0.7965" stop-color="#B06100"/>
<stop offset="0.8487" stop-color="#8F4F00"/>
<stop offset="0.9001" stop-color="#673900"/>
<stop offset="0.95" stop-color="#371F00"/>
<stop offset="0.9989" stop-color="#010100"/>
<stop offset="1"/>
</radialGradient>
<radialGradient id="paint5_radial" cx="0" cy="0" r="1" gradientUnits="userSpaceOnUse" gradientTransform="translate(1418.11 156.616) scale(6.99905)">
<stop offset="0.5642" stop-color="#7000B2"/>
<stop offset="0.6383" stop-color="#6E00AE"/>
<stop offset="0.704" stop-color="#6700A4"/>
<stop offset="0.7664" stop-color="#5C0092"/>
<stop offset="0.8269" stop-color="#4C0078"/>
<stop offset="0.886" stop-color="#370057"/>
<stop offset="0.9432" stop-color="#1E002F"/>
<stop offset="0.9994" stop-color="#000001"/>
<stop offset="1"/>
</radialGradient>
<radialGradient id="paint6_radial" cx="0" cy="0" r="1" gradientUnits="userSpaceOnUse" gradientTransform="translate(223.25 429.031) scale(6.99905)">
<stop offset="0.5642" stop-color="#7000B2"/>
<stop offset="0.6383" stop-color="#6E00AE"/>
<stop offset="0.704" stop-color="#6700A4"/>
<stop offset="0.7664" stop-color="#5C0092"/>
<stop offset="0.8269" stop-color="#4C0078"/>
<stop offset="0.886" stop-color="#370057"/>
<stop offset="0.9432" stop-color="#1E002F"/>
<stop offset="0.9994" stop-color="#000001"/>
<stop offset="1"/>
</radialGradient>
<radialGradient id="paint7_radial" cx="0" cy="0" r="1" gradientUnits="userSpaceOnUse" gradientTransform="translate(1007.79 547.254) scale(6.99933)">
<stop offset="0.5642" stop-color="#7000B2"/>
<stop offset="0.6383" stop-color="#6E00AE"/>
<stop offset="0.704" stop-color="#6700A4"/>
<stop offset="0.7664" stop-color="#5C0092"/>
<stop offset="0.8269" stop-color="#4C0078"/>
<stop offset="0.886" stop-color="#370057"/>
<stop offset="0.9432" stop-color="#1E002F"/>
<stop offset="0.9994" stop-color="#000001"/>
<stop offset="1"/>
</radialGradient>
<radialGradient id="paint8_radial" cx="0" cy="0" r="1" gradientUnits="userSpaceOnUse" gradientTransform="translate(1321 530.157) scale(6.99905)">
<stop offset="0.5642" stop-color="#F50000"/>
<stop offset="0.6284" stop-color="#F10000"/>
<stop offset="0.6852" stop-color="#E70000"/>
<stop offset="0.7393" stop-color="#D50000"/>
<stop offset="0.7917" stop-color="#BB0000"/>
<stop offset="0.8429" stop-color="#9A0000"/>
<stop offset="0.8933" stop-color="#720000"/>
<stop offset="0.9428" stop-color="#420000"/>
<stop offset="0.9906" stop-color="#0C0000"/>
<stop offset="1"/>
</radialGradient>
<radialGradient id="paint9_radial" cx="0" cy="0" r="1" gradientUnits="userSpaceOnUse" gradientTransform="translate(459.05 427.853) scale(6.99905)">
<stop offset="0.5642" stop-color="#F50000"/>
<stop offset="0.6284" stop-color="#F10000"/>
<stop offset="0.6852" stop-color="#E70000"/>
<stop offset="0.7393" stop-color="#D50000"/>
<stop offset="0.7917" stop-color="#BB0000"/>
<stop offset="0.8429" stop-color="#9A0000"/>
<stop offset="0.8933" stop-color="#720000"/>
<stop offset="0.9428" stop-color="#420000"/>
<stop offset="0.9906" stop-color="#0C0000"/>
<stop offset="1"/>
</radialGradient>
<radialGradient id="paint10_radial" cx="0" cy="0" r="1" gradientUnits="userSpaceOnUse" gradientTransform="translate(408.515 496.788) scale(6.99905)">
<stop offset="0.5642" stop-color="#F50000"/>
<stop offset="0.6284" stop-color="#F10000"/>
<stop offset="0.6852" stop-color="#E70000"/>
<stop offset="0.7393" stop-color="#D50000"/>
<stop offset="0.7917" stop-color="#BB0000"/>
<stop offset="0.8429" stop-color="#9A0000"/>
<stop offset="0.8933" stop-color="#720000"/>
<stop offset="0.9428" stop-color="#420000"/>
<stop offset="0.9906" stop-color="#0C0000"/>
<stop offset="1"/>
</radialGradient>
<radialGradient id="paint11_radial" cx="0" cy="0" r="1" gradientUnits="userSpaceOnUse" gradientTransform="translate(579.919 15.5813) scale(15.5813)">
<stop offset="0.5642" stop-color="#EA8100"/>
<stop offset="0.6297" stop-color="#E67F00"/>
<stop offset="0.6877" stop-color="#DC7900"/>
<stop offset="0.743" stop-color="#CA6F00"/>
<stop offset="0.7965" stop-color="#B06100"/>
<stop offset="0.8487" stop-color="#8F4F00"/>
<stop offset="0.9001" stop-color="#673900"/>
<stop offset="0.95" stop-color="#371F00"/>
<stop offset="0.9989" stop-color="#010100"/>
<stop offset="1"/>
</radialGradient>
<radialGradient id="paint12_radial" cx="0" cy="0" r="1" gradientUnits="userSpaceOnUse" gradientTransform="translate(946.568 31.1622) scale(6.99905)">
<stop offset="0.5642" stop-color="#7000B2"/>
<stop offset="0.6383" stop-color="#6E00AE"/>
<stop offset="0.704" stop-color="#6700A4"/>
<stop offset="0.7664" stop-color="#5C0092"/>
<stop offset="0.8269" stop-color="#4C0078"/>
<stop offset="0.886" stop-color="#370057"/>
<stop offset="0.9432" stop-color="#1E002F"/>
<stop offset="0.9994" stop-color="#000001"/>
<stop offset="1"/>
</radialGradient>
<radialGradient id="paint13_radial" cx="0" cy="0" r="1" gradientUnits="userSpaceOnUse" gradientTransform="translate(810.678 90.7469) scale(6.99905)">
<stop offset="0.5642" stop-color="#7000B2"/>
<stop offset="0.6383" stop-color="#6E00AE"/>
<stop offset="0.704" stop-color="#6700A4"/>
<stop offset="0.7664" stop-color="#5C0092"/>
<stop offset="0.8269" stop-color="#4C0078"/>
<stop offset="0.886" stop-color="#370057"/>
<stop offset="0.9432" stop-color="#1E002F"/>
<stop offset="0.9994" stop-color="#000001"/>
<stop offset="1"/>
</radialGradient>
<radialGradient id="paint14_radial" cx="0" cy="0" r="1" gradientUnits="userSpaceOnUse" gradientTransform="translate(590.481 102.062) scale(6.99905)">
<stop offset="0.5642" stop-color="#F50000"/>
<stop offset="0.6284" stop-color="#F10000"/>
<stop offset="0.6852" stop-color="#E70000"/>
<stop offset="0.7393" stop-color="#D50000"/>
<stop offset="0.7917" stop-color="#BB0000"/>
<stop offset="0.8429" stop-color="#9A0000"/>
<stop offset="0.8933" stop-color="#720000"/>
<stop offset="0.9428" stop-color="#420000"/>
<stop offset="0.9906" stop-color="#0C0000"/>
<stop offset="1"/>
</radialGradient>
<radialGradient id="paint15_radial" cx="0" cy="0" r="1" gradientUnits="userSpaceOnUse" gradientTransform="translate(222.279 517.078) scale(6.99905)">
<stop offset="0.5642" stop-color="#7000B2"/>
<stop offset="0.6383" stop-color="#6E00AE"/>
<stop offset="0.704" stop-color="#6700A4"/>
<stop offset="0.7664" stop-color="#5C0092"/>
<stop offset="0.8269" stop-color="#4C0078"/>
<stop offset="0.886" stop-color="#370057"/>
<stop offset="0.9432" stop-color="#1E002F"/>
<stop offset="0.9994" stop-color="#000001"/>
<stop offset="1"/>
</radialGradient>
</defs>
</svg>
