<?xml version="1.0" encoding="utf-8"?>
<!-- Generator: Adobe Illustrator 23.0.5, SVG Export Plug-In . SVG Version: 6.00 Build 0)  -->
<svg version="1.1" xmlns="http://www.w3.org/2000/svg" xmlns:xlink="http://www.w3.org/1999/xlink" x="0px" y="0px"
	 viewBox="0 0 604 586" style="enable-background:new 0 0 604 586;" xml:space="preserve">
<style type="text/css">
	.st0{opacity:0.3;}
	.st1{opacity:0.3;fill:url(#SVGID_1_);enable-background:new    ;}
	.st2{opacity:0.3;fill:#0F054C;enable-background:new    ;}
	.st3{opacity:0.3;fill:url(#SVGID_2_);enable-background:new    ;}
	.st4{fill:#42E8E0;}
	.st5{opacity:0.4;fill:#42E8E0;enable-background:new    ;}
	.st6{fill:url(#SVGID_3_);}
	.st7{fill:url(#SVGID_4_);}
	.st8{fill:#FFFFFF;}
	.st9{fill:url(#SVGID_5_);}
	.st10{opacity:0.3;fill:url(#SVGID_6_);enable-background:new    ;}
	.st11{opacity:0.3;fill:url(#SVGID_7_);enable-background:new    ;}
	.st12{fill:url(#SVGID_8_);}
	.st13{fill:url(#SVGID_9_);}
	.st14{fill:#5351AF;}
	.st15{fill:url(#SVGID_10_);}
	.st16{opacity:0.3;fill:url(#SVGID_11_);enable-background:new    ;}
	.st17{opacity:0.3;fill:url(#SVGID_12_);enable-background:new    ;}
	.st18{fill:url(#SVGID_13_);}
	.st19{fill:url(#SVGID_14_);}
	.st20{fill:url(#SVGID_15_);}
	.st21{fill:url(#SVGID_16_);}
	.st22{fill:url(#SVGID_17_);}
	.st23{opacity:0.5;fill:#758EF5;enable-background:new    ;}
	.st24{opacity:0.2;fill:#758EF5;enable-background:new    ;}
	.st25{opacity:0.4;fill:#0F054C;enable-background:new    ;}
	.st26{fill:url(#SVGID_18_);}
	.st27{opacity:0.48;fill:url(#SVGID_19_);enable-background:new    ;}
	.st28{opacity:0.48;fill:url(#SVGID_20_);enable-background:new    ;}
	.st29{fill:url(#SVGID_21_);}
	.st30{opacity:0.3;fill:#91A2FA;enable-background:new    ;}
	.st31{opacity:5.000000e-02;}
	.st32{opacity:5.000000e-02;fill:url(#SVGID_22_);enable-background:new    ;}
	.st33{opacity:5.000000e-02;fill:#91A2FA;enable-background:new    ;}
	.st34{fill:url(#SVGID_23_);}
	.st35{fill:url(#SVGID_24_);}
	.st36{fill:url(#SVGID_25_);}
	.st37{fill:url(#SVGID_26_);}
	.st38{fill:url(#SVGID_27_);}
	.st39{fill:url(#SVGID_28_);}
	.st40{fill:url(#SVGID_29_);}
	.st41{fill:url(#SVGID_30_);}
	.st42{fill:url(#SVGID_31_);}
	.st43{fill:url(#SVGID_32_);}
	.st44{fill:url(#SVGID_33_);}
	.st45{fill:#91A2FA;}
	.st46{fill:#97A6FC;}
	.st47{opacity:0.8;fill:#91A2FA;enable-background:new    ;}
	.st48{opacity:0.6;fill:#91A2FA;enable-background:new    ;}
	.st49{opacity:0.4;fill:#91A2FA;enable-background:new    ;}
	.st50{opacity:0.2;fill:#91A2FA;enable-background:new    ;}
	.st51{opacity:0.1;fill:#91A2FA;enable-background:new    ;}
	.st52{opacity:0.6;fill:#97A6FC;enable-background:new    ;}
	.st53{opacity:0.8;fill:#97A6FC;enable-background:new    ;}
	.st54{opacity:0.2;fill:#97A6FC;enable-background:new    ;}
	.st55{fill:url(#SVGID_34_);}
</style>
<g id="Layer_1">
	<g class="st0">
		
			<linearGradient id="SVGID_1_" gradientUnits="userSpaceOnUse" x1="513.9282" y1="55.739" x2="593.2604" y2="9.9617" gradientTransform="matrix(1 0 0 -1 0 585.896)">
			<stop  offset="0" style="stop-color:#BCBEFF"/>
			<stop  offset="0.23" style="stop-color:#AAADF8"/>
			<stop  offset="0.68" style="stop-color:#7C83E5"/>
			<stop  offset="1" style="stop-color:#5761D7"/>
		</linearGradient>
		<path class="st1" d="M603.9,556.1v-8.7l-2.4-1.3c-0.7,4.1-5.5,6.8-9.6,7.4l-27.5,16.1l-12,4.3L514,554.1l0.9-0.5
			c-3.3-1.5-5.1-5-6.8-8.2l-2.6,1.5l-1.5,0.4v8.9c0.1,1,0.5,2,1.1,2.8c0.6,0.8,1.4,1.5,2.3,1.9l38.5,22.2c2.5,1.3,5.3,1.9,8.2,1.9
			c2.8,0,5.6-0.7,8.2-1.9l38.4-22.2c0.9-0.4,1.7-1.1,2.3-1.9c0.6-0.8,1-1.8,1.1-2.8C604,556.3,604,556.2,603.9,556.1L603.9,556.1z"
			/>
		<path class="st2" d="M592,553.5l-27.5,16.1l-10.5,3.8v11.8c2.8,0.1,5.7-0.6,8.2-1.9l38.4-22.2c0.9-0.4,1.7-1.1,2.3-1.9
			s1-1.8,1.1-2.8c0-0.1,0-0.2,0-0.2v-8.7l-2.2-1.2h-0.2C600.8,550.3,596,552.8,592,553.5z"/>
		
			<linearGradient id="SVGID_2_" gradientUnits="userSpaceOnUse" x1="504.061" y1="38.462" x2="603.998" y2="38.462" gradientTransform="matrix(1 0 0 -1 0 585.896)">
			<stop  offset="0" style="stop-color:#E9E9FD"/>
			<stop  offset="0.36" style="stop-color:#D3D2F9"/>
			<stop  offset="0.71" style="stop-color:#C5C4F7"/>
			<stop  offset="1" style="stop-color:#C0BFF6"/>
		</linearGradient>
		<path class="st3" d="M545.9,574.3l-38.4-22.2c-4.5-2.6-4.5-6.8,0-9.4l38.4-22.2c2.5-1.3,5.3-1.9,8.2-1.9c2.8,0,5.6,0.7,8.2,1.9
			l38.4,22.2c4.5,2.6,4.5,6.8,0,9.4l-38.4,22.2c-2.5,1.3-5.3,2-8.2,2S548.4,575.6,545.9,574.3z"/>
		<g class="st0">
			<path class="st2" d="M545.9,574.3l-38.4-22.2c-4.5-2.6-4.5-6.8,0-9.4l38.4-22.2c2.5-1.3,5.3-1.9,8.2-1.9c2.8,0,5.6,0.7,8.2,1.9
				l38.4,22.2c4.5,2.6,4.5,6.8,0,9.4l-38.4,22.2c-2.5,1.3-5.3,2-8.2,2S548.4,575.6,545.9,574.3z"/>
		</g>
	</g>
	<path class="st4" d="M554,546.3c-2.5,0-5-0.5-7.2-1.7l-38.4-22.2c-0.9-0.3-1.7-0.9-2.3-1.7c-0.6-0.8-0.9-1.7-0.9-2.7
		c0-1,0.3-1.9,0.9-2.7c0.6-0.8,1.3-1.4,2.3-1.7l38.4-22.2c2.2-1.1,4.7-1.7,7.2-1.7c2.5,0,5,0.6,7.2,1.7l38.5,22.2
		c0.9,0.3,1.7,0.9,2.3,1.7c0.6,0.8,0.9,1.7,0.9,2.7c0,1-0.3,1.9-0.9,2.7c-0.6,0.8-1.3,1.4-2.3,1.7l-38.4,22.2
		C559,545.7,556.5,546.3,554,546.3z M554,490.3c-2.4,0-4.8,0.5-6.9,1.6l-38.4,22.2c-0.8,0.3-1.5,0.8-2,1.5s-0.8,1.5-0.8,2.3
		c0,0.8,0.3,1.7,0.8,2.3c0.5,0.7,1.2,1.2,2,1.5l38.4,22.2c2.1,1.1,4.5,1.6,6.9,1.6c2.4,0,4.8-0.6,6.9-1.6l38.4-22.2
		c0.8-0.3,1.5-0.8,2-1.5c0.5-0.7,0.8-1.5,0.8-2.3c0-0.8-0.3-1.7-0.8-2.3s-1.2-1.2-2-1.5l-38.4-22.2
		C558.7,490.8,556.4,490.3,554,490.3z"/>
	<path class="st5" d="M603.9,509.5v-13.2l-2.4-1.3c-0.7,4.1-5.5,6.8-9.6,7.4l-27.5,16.1l-12,4.3L514,503l0.9-0.5
		c-3.3-1.5-5.1-5-6.8-8.2l-2.6,1.5l-1.5,0.4v13.4c0.1,1,0.5,2,1.1,2.8c0.6,0.8,1.4,1.5,2.3,1.9l38.5,22.2c2.5,1.3,5.3,2,8.2,2
		s5.6-0.7,8.2-2l38.4-22.2c0.9-0.4,1.7-1.1,2.3-1.9c0.6-0.8,1-1.8,1.1-2.8C604,509.6,604,509.5,603.9,509.5L603.9,509.5z"/>
	
		<linearGradient id="SVGID_3_" gradientUnits="userSpaceOnUse" x1="21447.4629" y1="-30237.7969" x2="23198.8613" y2="-32780.1758" gradientTransform="matrix(1 0 0 -1 0 585.896)">
		<stop  offset="0" style="stop-color:#BCBEFF"/>
		<stop  offset="0.23" style="stop-color:#AAADF8"/>
		<stop  offset="0.68" style="stop-color:#7C83E5"/>
		<stop  offset="1" style="stop-color:#5761D7"/>
	</linearGradient>
	<path class="st6" d="M603.9,497.7V489l-2.4-1.3c-0.7,4.1-5.5,6.8-9.6,7.4l-27.5,16.1l-12,4.3L514,495.7l0.9-0.5
		c-3.3-1.5-5.1-5-6.8-8.2l-2.6,1.6L504,489v8.9c0.1,1,0.5,2,1.1,2.8c0.6,0.8,1.4,1.5,2.3,1.9l38.5,22.2c2.5,1.3,5.3,2,8.2,2
		s5.6-0.7,8.2-2l38.4-22.2c0.9-0.4,1.7-1.1,2.3-1.9c0.6-0.8,1-1.8,1.1-2.8C604,497.9,604,497.8,603.9,497.7L603.9,497.7z"/>
	<path class="st2" d="M592,495.1l-27.5,16.1L554,515v11.8c2.8,0.1,5.7-0.6,8.2-1.9l38.4-22.2c0.9-0.4,1.7-1.1,2.3-1.9
		c0.6-0.8,1-1.8,1.1-2.8c0-0.1,0-0.2,0-0.2V489l-2.2-1.2h-0.2C600.8,491.9,596,494.5,592,495.1z"/>
	
		<linearGradient id="SVGID_4_" gradientUnits="userSpaceOnUse" x1="51817" y1="96.8915" x2="56956.6992" y2="96.8915" gradientTransform="matrix(1 0 0 -1 0 585.896)">
		<stop  offset="0" style="stop-color:#E9E9FD"/>
		<stop  offset="0.36" style="stop-color:#D3D2F9"/>
		<stop  offset="0.71" style="stop-color:#C5C4F7"/>
		<stop  offset="1" style="stop-color:#C0BFF6"/>
	</linearGradient>
	<path class="st7" d="M545.9,515.9l-38.4-22.2c-4.5-2.6-4.5-6.8,0-9.4l38.4-22.1c2.5-1.3,5.3-2,8.2-2s5.6,0.7,8.2,2l38.4,22.2
		c4.5,2.6,4.5,6.8,0,9.4l-38.5,22.1c-2.5,1.3-5.3,1.9-8.1,1.9C551.2,517.8,548.4,517.2,545.9,515.9z"/>
	<path class="st8" d="M600.6,493.8l-38.4,22.1c-2.5,1.3-5.3,1.9-8.2,1.9s-5.6-0.7-8.2-1.9l-38.4-22.2c-0.8-0.4-1.6-1-2.2-1.7
		c-0.6-0.7-1-1.6-1.2-2.5c-0.3,1.9,0.9,3.9,3.3,5.2l38.5,22.3c2.5,1.3,5.3,2,8.2,2s5.6-0.7,8.2-2l38.4-22.2c1-0.4,1.9-1.2,2.5-2.1
		c0.6-0.9,0.9-2,0.8-3.1c-0.2,0.9-0.6,1.8-1.2,2.5C602.2,492.8,601.4,493.4,600.6,493.8z"/>
	
		<linearGradient id="SVGID_5_" gradientUnits="userSpaceOnUse" x1="365" y1="132.396" x2="535" y2="132.396" gradientTransform="matrix(1 0 0 -1 0 585.896)">
		<stop  offset="0" style="stop-color:#5778FF"/>
		<stop  offset="0.1042" style="stop-color:#567FFF"/>
		<stop  offset="0.2607" style="stop-color:#5394FF"/>
		<stop  offset="0.4503" style="stop-color:#4DB6FF"/>
		<stop  offset="0.6638" style="stop-color:#46E4FF"/>
		<stop  offset="0.7742" style="stop-color:#42FFFF"/>
	</linearGradient>
	<path class="st9" d="M534.7,488l-87.4-52.3l-27.8,16h-0.3L365,419.8l0.3-0.8l54.1,31.7l27.8-16l0.6,0.3l87.1,52.2L534.7,488z"/>
	<g class="st0">
		
			<linearGradient id="SVGID_6_" gradientUnits="userSpaceOnUse" x1="19160.8926" y1="-27710.4355" x2="20912.1934" y2="-30252.9355" gradientTransform="matrix(1 0 0 -1 0 585.896)">
			<stop  offset="0" style="stop-color:#BCBEFF"/>
			<stop  offset="0.23" style="stop-color:#AAADF8"/>
			<stop  offset="0.68" style="stop-color:#7C83E5"/>
			<stop  offset="1" style="stop-color:#5761D7"/>
		</linearGradient>
		<path class="st10" d="M100,555.2v-8.7l-2.4-1.3c-0.7,4.1-5.5,6.8-9.6,7.4l-27.6,16.1l-12,4.3l-38.4-19.8l0.9-0.5
			c-3.3-1.5-5.1-5-6.8-8.2L1.5,546L0,546.4v8.9c0.1,1,0.5,2,1.1,2.8c0.6,0.8,1.4,1.5,2.3,1.9l38.5,22.2c2.5,1.3,5.3,2,8.2,2
			c2.8,0,5.6-0.7,8.2-2l38.5-22.2c0.9-0.4,1.7-1.1,2.3-1.9c0.6-0.8,1-1.8,1.1-2.8C100,555.4,100,555.3,100,555.2z"/>
		<path class="st2" d="M88,552.6l-27.6,16.1L50,572.5v11.8c2.8,0.1,5.7-0.6,8.2-1.9l38.5-22.2c0.9-0.4,1.7-1.1,2.3-1.9
			c0.6-0.8,1-1.8,1.1-2.8c0,0,0-0.2,0-0.2v-8.7l-2.2-1.2h-0.2C96.8,549.3,92,552,88,552.6z"/>
		
			<linearGradient id="SVGID_7_" gradientUnits="userSpaceOnUse" x1="42531.6016" y1="39.4285" x2="47674.8008" y2="39.4285" gradientTransform="matrix(1 0 0 -1 0 585.896)">
			<stop  offset="0" style="stop-color:#E9E9FD"/>
			<stop  offset="0.36" style="stop-color:#D3D2F9"/>
			<stop  offset="0.71" style="stop-color:#C5C4F7"/>
			<stop  offset="1" style="stop-color:#C0BFF6"/>
		</linearGradient>
		<path class="st11" d="M41.8,573.4L3.4,551.2c-4.5-2.6-4.5-6.8,0-9.4l38.5-22.3c2.5-1.3,5.3-2,8.2-2c2.8,0,5.6,0.7,8.2,2l38.5,22.2
			c4.5,2.6,4.5,6.8,0,9.4l-38.5,22.3c-2.5,1.3-5.3,1.9-8.2,1.9C47.2,575.4,44.4,574.7,41.8,573.4z"/>
		<g class="st0">
			<path class="st2" d="M41.8,573.4L3.4,551.2c-4.5-2.6-4.5-6.8,0-9.4l38.5-22.3c2.5-1.3,5.3-2,8.2-2c2.8,0,5.6,0.7,8.2,2l38.5,22.2
				c4.5,2.6,4.5,6.8,0,9.4l-38.5,22.3c-2.5,1.3-5.3,1.9-8.2,1.9C47.2,575.4,44.4,574.7,41.8,573.4z"/>
		</g>
	</g>
	<path class="st4" d="M50,541.1c-2.5,0.1-5-0.5-7.3-1.7L4.3,517.2c-0.9-0.3-1.7-0.9-2.2-1.7s-0.8-1.7-0.8-2.7c0-1,0.3-1.9,0.8-2.7
		c0.6-0.8,1.3-1.4,2.2-1.7l38.5-22.2c2.2-1.1,4.7-1.7,7.3-1.7c2.5,0,5,0.6,7.3,1.7l38.5,22.2c0.9,0.3,1.7,0.9,2.2,1.7
		c0.6,0.8,0.8,1.7,0.8,2.7c0,1-0.3,1.9-0.8,2.7c-0.6,0.8-1.3,1.4-2.2,1.7l-38.5,22.2C55,540.6,52.5,541.2,50,541.1z M43.1,538.8
		c2.1,1.1,4.5,1.6,6.9,1.6c2.4,0,4.8-0.6,6.9-1.6l38.5-22.2c0.9-0.2,1.6-0.7,2.2-1.4c0.5-0.7,0.8-1.5,0.8-2.4s-0.3-1.7-0.8-2.4
		c-0.5-0.7-1.3-1.2-2.2-1.4l-38.5-22.2c-2.1-1.1-4.5-1.7-6.9-1.7c-2.4,0-4.8,0.6-6.9,1.7L4.6,509c-0.9,0.2-1.6,0.7-2.2,1.4
		c-0.5,0.7-0.8,1.5-0.8,2.4s0.3,1.7,0.8,2.4c0.5,0.7,1.3,1.2,2.2,1.4L43.1,538.8z"/>
	<path class="st5" d="M100,504.3v-13.2l-2.4-1.3c-0.7,4.1-5.5,6.8-9.6,7.4l-27.6,16.1l-12,4.3l-38.4-19.8l0.9-0.5
		c-3.3-1.5-5.1-5-6.8-8.2l-2.6,1.6L0,491v13.4c0.1,1,0.5,2,1.1,2.8c0.6,0.8,1.4,1.5,2.3,1.9l38.5,22.2c2.5,1.3,5.3,2,8.2,2
		c2.8,0,5.6-0.7,8.2-2l38.5-22.2c0.9-0.4,1.7-1.1,2.3-1.9c0.6-0.8,1-1.8,1.1-2.8C100,504.5,100,504.3,100,504.3L100,504.3z"/>
	
		<linearGradient id="SVGID_8_" gradientUnits="userSpaceOnUse" x1="18559.793" y1="-26775.4082" x2="20310.5938" y2="-29317.207" gradientTransform="matrix(1 0 0 -1 0 585.896)">
		<stop  offset="0" style="stop-color:#BCBEFF"/>
		<stop  offset="0.23" style="stop-color:#AAADF8"/>
		<stop  offset="0.68" style="stop-color:#7C83E5"/>
		<stop  offset="1" style="stop-color:#5761D7"/>
	</linearGradient>
	<path class="st12" d="M100,492.6v-8.7l-2.4-1.3c-0.7,4.1-5.5,6.8-9.6,7.4L60.5,506l-12,4.3l-38.4-19.8l0.9-0.5
		c-3.3-1.5-5.1-5-6.8-8.2l-2.6,1.5L0,483.8v8.9c0.1,1,0.5,2,1.1,2.8c0.6,0.8,1.4,1.5,2.3,1.9l38.5,22.2c2.5,1.3,5.3,2,8.2,2
		c2.8,0,5.6-0.7,8.2-2l38.5-22.2c0.9-0.4,1.7-1.1,2.3-1.9c0.6-0.8,1-1.8,1.1-2.8C100,492.8,100,492.6,100,492.6z"/>
	
		<linearGradient id="SVGID_9_" gradientUnits="userSpaceOnUse" x1="42531.6016" y1="102.028" x2="47674.8008" y2="102.028" gradientTransform="matrix(1 0 0 -1 0 585.896)">
		<stop  offset="0" style="stop-color:#E9E9FD"/>
		<stop  offset="0.36" style="stop-color:#D3D2F9"/>
		<stop  offset="0.71" style="stop-color:#C5C4F7"/>
		<stop  offset="1" style="stop-color:#C0BFF6"/>
	</linearGradient>
	<path class="st13" d="M41.8,510.8L3.4,488.6c-4.5-2.6-4.5-6.8,0-9.4L41.8,457c2.5-1.3,5.3-2,8.2-2c2.8,0,5.6,0.7,8.2,2l38.5,22.2
		c4.5,2.6,4.5,6.8,0,9.4l-38.5,22.2c-2.5,1.3-5.3,2-8.2,2C47.2,512.7,44.4,512.1,41.8,510.8z"/>
	<path class="st14" d="M50,506.7c-2.3,0.1-4.5-0.5-6.6-1.6l-30-17.3c-0.8-0.3-1.5-0.8-2-1.5s-0.8-1.6-0.8-2.4c0-0.9,0.3-1.7,0.8-2.4
		c0.5-0.7,1.2-1.3,2-1.5l30-17.3c2-1,4.3-1.6,6.6-1.6c2.3,0,4.5,0.5,6.6,1.6l30,17.3c0.8,0.3,1.5,0.8,2,1.5c0.5,0.7,0.8,1.6,0.8,2.4
		c0,0.9-0.3,1.7-0.8,2.4s-1.2,1.3-2,1.5l-30,17.3C54.5,506.3,52.3,506.8,50,506.7z M43.8,504.6c1.9,1,4.1,1.5,6.2,1.5
		c2.2,0,4.3-0.5,6.2-1.5l30.1-17.3c0.7-0.2,1.4-0.7,1.8-1.3c0.4-0.6,0.7-1.3,0.7-2.1c0-0.8-0.2-1.5-0.7-2.1
		c-0.4-0.6-1.1-1.1-1.8-1.3l-30.1-17.3c-1.9-1-4.1-1.5-6.2-1.5c-2.2,0-4.3,0.5-6.2,1.5l-30,17.3c-0.7,0.3-1.3,0.8-1.7,1.4
		c-0.4,0.6-0.7,1.3-0.8,2c0.1,0.7,0.3,1.4,0.8,2c0.4,0.6,1,1.1,1.7,1.4L43.8,504.6z"/>
	<path class="st8" d="M96.6,488.6l-38.5,22.2c-2.5,1.3-5.3,2-8.2,2c-2.8,0-5.6-0.7-8.2-2L3.4,488.6c-0.8-0.4-1.6-1-2.2-1.7
		c-0.6-0.7-1-1.6-1.2-2.5c0,1.1,0.3,2.2,0.8,3.2c0.6,0.9,1.5,1.7,2.5,2.1l38.5,22.2c2.5,1.3,5.3,1.9,8.2,1.9c2.8,0,5.6-0.7,8.2-1.9
		l38.5-22.2c1-0.4,1.9-1.2,2.5-2.1c0.6-0.9,0.9-2,0.8-3.2c-0.2,0.9-0.6,1.8-1.2,2.5C98.2,487.6,97.5,488.2,96.6,488.6z"/>
	
		<linearGradient id="SVGID_10_" gradientUnits="userSpaceOnUse" x1="224.1906" y1="116.1762" x2="54.1931" y2="115.1728" gradientTransform="matrix(1 0 0 -1 0 585.896)">
		<stop  offset="0" style="stop-color:#5778FF"/>
		<stop  offset="0.1042" style="stop-color:#567FFF"/>
		<stop  offset="0.2607" style="stop-color:#5394FF"/>
		<stop  offset="0.4503" style="stop-color:#4DB6FF"/>
		<stop  offset="0.6638" style="stop-color:#46E4FF"/>
		<stop  offset="0.7742" style="stop-color:#42FFFF"/>
	</linearGradient>
	<path class="st15" d="M54.7,503.4l87.1-50.1l27.9,15l0.3,0l54-30.6l-0.3-0.8l-54,30.4l-27.9-15l-0.6,0.3l-86.8,50L54.7,503.4z"/>
	<g class="st0">
		
			<linearGradient id="SVGID_11_" gradientUnits="userSpaceOnUse" x1="11267.6465" y1="-15154.2568" x2="13019.0469" y2="-17694.5371" gradientTransform="matrix(1 0 0 -1 0 585.896)">
			<stop  offset="0" style="stop-color:#BCBEFF"/>
			<stop  offset="0.23" style="stop-color:#AAADF8"/>
			<stop  offset="0.68" style="stop-color:#7C83E5"/>
			<stop  offset="1" style="stop-color:#5761D7"/>
		</linearGradient>
		<path class="st16" d="M602.9,202.9v-8.7l-2.4-1.3c-0.7,4.1-5.5,6.8-9.6,7.4l-27.5,16.1l-12,4.4L513,200.9l0.9-0.5
			c-3.3-1.5-5-5-6.8-8.2l-2.6,1.5l-1.5,0.4v8.9c0.1,1,0.5,2,1,2.8c0.6,0.8,1.4,1.5,2.3,1.9l38.4,22.2c2.5,1.3,5.3,2,8.2,2
			c2.8,0,5.6-0.7,8.2-2l38.4-22.2c0.9-0.4,1.7-1.1,2.3-1.9c0.6-0.8,1-1.8,1.1-2.8V202.9z"/>
		<path class="st2" d="M590.9,200.2l-27.5,16.1l-10.4,3.8v11.8c2.8,0.1,5.6-0.6,8.2-1.9l38.4-22.2c0.9-0.4,1.7-1.1,2.3-1.9
			c0.6-0.8,1-1.8,1.1-2.8v-0.2v-8.7l-2.2-1.2h-0.2C599.7,197,594.9,199.7,590.9,200.2z"/>
		
			<linearGradient id="SVGID_12_" gradientUnits="userSpaceOnUse" x1="26074.4004" y1="391.7774" x2="31208.5" y2="391.7774" gradientTransform="matrix(1 0 0 -1 0 585.896)">
			<stop  offset="0" style="stop-color:#E9E9FD"/>
			<stop  offset="0.36" style="stop-color:#D3D2F9"/>
			<stop  offset="0.71" style="stop-color:#C5C4F7"/>
			<stop  offset="1" style="stop-color:#C0BFF6"/>
		</linearGradient>
		<path class="st17" d="M544.8,221.1l-38.3-22.2c-4.5-2.6-4.5-6.8,0-9.4l38.3-22.3c2.5-1.3,5.3-2,8.2-2c2.8,0,5.6,0.7,8.2,2
			l38.4,22.2c4.5,2.6,4.5,6.8,0,9.4L561.1,221c-2.5,1.3-5.3,2-8.1,2C550.1,223,547.3,222.4,544.8,221.1z"/>
		<g class="st0">
			<path class="st2" d="M544.8,221.1l-38.3-22.2c-4.5-2.6-4.5-6.8,0-9.4l38.3-22.3c2.5-1.3,5.3-2,8.2-2c2.8,0,5.6,0.7,8.2,2
				l38.4,22.2c4.5,2.6,4.5,6.8,0,9.4L561.1,221c-2.5,1.3-5.3,2-8.1,2C550.1,223,547.3,222.4,544.8,221.1z"/>
		</g>
	</g>
	<path class="st4" d="M553,194.5c-2.5,0-5-0.6-7.2-1.7l-38.4-22.2c-0.9-0.3-1.7-0.9-2.2-1.7c-0.6-0.8-0.9-1.7-0.9-2.7
		c0-1,0.3-1.9,0.9-2.7c0.6-0.8,1.3-1.4,2.2-1.7l38.4-22.2c2.2-1.1,4.7-1.7,7.2-1.7c2.5,0,5,0.6,7.2,1.7l38.4,22.2
		c0.9,0.3,1.7,0.9,2.2,1.7c0.6,0.8,0.9,1.7,0.9,2.7c0,1-0.3,1.9-0.9,2.7c-0.6,0.8-1.3,1.4-2.2,1.7l-38.4,22.2
		C558,193.9,555.5,194.5,553,194.5z M553,138.5c-2.4,0-4.8,0.5-6.9,1.7l-38.4,22.2c-0.8,0.3-1.5,0.8-2,1.5c-0.5,0.7-0.8,1.5-0.8,2.3
		c0,0.8,0.3,1.7,0.8,2.3c0.5,0.7,1.2,1.2,2,1.5l38.4,22.2c2.1,1.1,4.5,1.6,6.9,1.6c2.4,0,4.8-0.6,6.9-1.6l38.4-22.2
		c0.8-0.3,1.5-0.8,2-1.5c0.5-0.7,0.8-1.5,0.8-2.3c0-0.8-0.3-1.7-0.8-2.3c-0.5-0.7-1.2-1.2-2-1.5l-38.4-22.2
		C557.7,139.1,555.4,138.5,553,138.5z"/>
	<path class="st5" d="M602.9,157.7v-13.2l-2.4-1.3c-0.7,4.1-5.5,6.8-9.6,7.4l-27.5,16.1l-12,4.4L513,151.3l0.9-0.5
		c-3.3-1.5-5-5-6.8-8.2l-2.6,1.5l-1.5,0.4v13.4c0.1,1,0.5,2,1.1,2.8c0.6,0.8,1.4,1.5,2.4,1.9l38.3,22.2c2.5,1.3,5.3,2,8.2,2
		c2.8,0,5.6-0.7,8.2-2l38.4-22.2c0.9-0.4,1.7-1.1,2.3-1.9c0.6-0.8,1-1.8,1.1-2.8V157.7L602.9,157.7z"/>
	
		<linearGradient id="SVGID_13_" gradientUnits="userSpaceOnUse" x1="10752.499" y1="-14318.8271" x2="12508.8994" y2="-16860.9766" gradientTransform="matrix(1 0 0 -1 0 585.896)">
		<stop  offset="0" style="stop-color:#BCBEFF"/>
		<stop  offset="0.23" style="stop-color:#AAADF8"/>
		<stop  offset="0.68" style="stop-color:#7C83E5"/>
		<stop  offset="1" style="stop-color:#5761D7"/>
	</linearGradient>
	<path class="st18" d="M602.9,146v-8.7l-2.4-1.3c-0.7,4.1-5.5,6.8-9.6,7.4l-27.5,16.1l-12,4.3L513,143.9l0.9-0.5
		c-3.3-1.5-5-5-6.8-8.2l-2.6,1.5l-1.5,0.4v8.9c0.1,1,0.5,2,1.1,2.8c0.6,0.8,1.4,1.5,2.3,1.9l38.4,22.3c2.5,1.3,5.3,1.9,8.2,1.9
		c2.8,0,5.6-0.7,8.2-1.9l38.4-22.2c0.9-0.4,1.7-1.1,2.3-1.9c0.6-0.8,1-1.8,1.1-2.8V146z"/>
	<path class="st2" d="M590.9,143.3l-27.5,16.1l-10.4,3.8V175c2.8,0.1,5.6-0.6,8.2-1.9l38.4-22.2c0.9-0.4,1.7-1.1,2.3-1.9
		c0.6-0.8,1-1.8,1.1-2.8V146v-8.7l-2.2-1.2h-0.2C599.7,140.1,594.9,142.7,590.9,143.3z"/>
	
		<linearGradient id="SVGID_14_" gradientUnits="userSpaceOnUse" x1="517.7073" y1="468.959" x2="588.413" y2="428.1764" gradientTransform="matrix(1 0 0 -1 0 585.896)">
		<stop  offset="0.24" style="stop-color:#5761D7"/>
		<stop  offset="0.39" style="stop-color:#7A82E5"/>
		<stop  offset="0.55" style="stop-color:#979CF0"/>
		<stop  offset="0.7" style="stop-color:#ACAFF8"/>
		<stop  offset="0.85" style="stop-color:#B8BAFD"/>
		<stop  offset="1" style="stop-color:#BCBEFF"/>
	</linearGradient>
	<path class="st19" d="M513.9,143.4l36.4-21c0.8-0.4,1.7-0.6,2.6-0.6s1.8,0.2,2.6,0.6l35.8,20.7l-0.4,0.2c4-0.6,8.9-3.3,9.6-7.4
		l-40.1-22.4l-11.7-3.1l-9.5,5.6l-32,19.1C508.9,138.4,510.7,141.9,513.9,143.4z"/>
	<path class="st2" d="M553,111.6l-4.3-1.1l-9.5,5.6l-32,19.1c1.8,3.2,3.5,6.7,6.8,8.2l36.4-21c0.8-0.4,1.7-0.7,2.6-0.6V111.6z"/>
	
		<linearGradient id="SVGID_15_" gradientUnits="userSpaceOnUse" x1="26099.3008" y1="448.669" x2="31238.3008" y2="448.669" gradientTransform="matrix(1 0 0 -1 0 585.896)">
		<stop  offset="0" style="stop-color:#E9E9FD"/>
		<stop  offset="0.36" style="stop-color:#D3D2F9"/>
		<stop  offset="0.71" style="stop-color:#C5C4F7"/>
		<stop  offset="1" style="stop-color:#C0BFF6"/>
	</linearGradient>
	<path class="st20" d="M544.8,164.2l-38.3-22.2c-4.5-2.6-4.5-6.8,0-9.4l38.4-22.2c2.5-1.3,5.3-1.9,8.2-1.9c2.8,0,5.6,0.7,8.2,1.9
		l38.4,22.2c4.5,2.6,4.5,6.8,0,9.4l-38.4,22.2c-2.5,1.3-5.3,2-8.2,2C550.2,166.1,547.3,165.4,544.8,164.2z M555.6,113.6
		c-0.8-0.4-1.7-0.6-2.6-0.6s-1.8,0.2-2.6,0.6l-38.4,22.2c-0.3,0.1-0.6,0.3-0.8,0.6c-0.2,0.3-0.3,0.6-0.3,0.9c0,0.3,0.1,0.7,0.3,0.9
		c0.2,0.3,0.5,0.5,0.8,0.6l38.4,22.2c0.8,0.4,1.7,0.6,2.6,0.6s1.8-0.2,2.6-0.6l38.4-22.2c0.3-0.1,0.6-0.3,0.8-0.6s0.3-0.6,0.3-0.9
		c0-0.3-0.1-0.7-0.3-0.9s-0.5-0.5-0.8-0.6L555.6,113.6z"/>
	<path class="st8" d="M594,135.7l-38.4-22.2c-0.8-0.4-1.7-0.6-2.6-0.6c-0.9,0-1.8,0.2-2.6,0.6l-38.4,22.2c-1,0.6-1.3,1.3-1,2.1
		c0.2-0.4,0.6-0.8,1-1l38.4-22.1c0.8-0.4,1.7-0.6,2.6-0.6c0.9,0,1.8,0.2,2.6,0.6l38.4,22.2c0.4,0.2,0.7,0.6,1,1
		C595.3,137.1,594.9,136.3,594,135.7z"/>
	<path class="st8" d="M599.5,141.9l-38.4,22.2c-2.5,1.3-5.3,2-8.2,2c-2.8,0-5.6-0.7-8.2-2l-38.3-22.2c-0.8-0.4-1.6-1-2.2-1.7
		c-0.6-0.7-1-1.6-1.2-2.5c0,1.1,0.3,2.2,0.9,3.1c0.6,0.9,1.5,1.7,2.5,2.1l38.3,22.2c2.5,1.3,5.3,2,8.2,2c2.8,0,5.6-0.7,8.2-2
		l38.4-22.2c1-0.4,1.9-1.2,2.5-2.1s0.9-2,0.9-3.1c-0.2,0.9-0.6,1.7-1.2,2.4C601.1,141,600.4,141.5,599.5,141.9z"/>
	
		<linearGradient id="SVGID_16_" gradientUnits="userSpaceOnUse" x1="25381.125" y1="448.649" x2="30207.3262" y2="448.649" gradientTransform="matrix(1 0 0 -1 0 585.896)">
		<stop  offset="0" style="stop-color:#E9E9FD"/>
		<stop  offset="0.36" style="stop-color:#D3D2F9"/>
		<stop  offset="0.71" style="stop-color:#C5C4F7"/>
		<stop  offset="1" style="stop-color:#C0BFF6"/>
	</linearGradient>
	<path class="st21" d="M545.9,163.5l-38.4-22.2c-3.9-2.3-3.9-5.8,0-8.2l38.4-22.2c2.2-1.1,4.6-1.7,7.1-1.7s4.9,0.6,7.1,1.7
		l38.4,22.2c3.9,2.3,3.9,5.8,0,8.2L560,163.5c-2.2,1.1-4.6,1.7-7.1,1.7S548.1,164.6,545.9,163.5z M556.6,113
		c-1.1-0.6-2.4-0.9-3.7-0.9c-1.3,0-2.5,0.3-3.7,0.9l-38.4,22.1c-0.4,0.1-0.8,0.4-1.1,0.8c-0.3,0.4-0.4,0.8-0.4,1.3
		c0,0.5,0.1,0.9,0.4,1.3s0.7,0.7,1.1,0.8l38.4,22.2c1.1,0.6,2.4,0.9,3.7,0.9s2.5-0.3,3.7-0.9l38.4-22.2c0.4-0.1,0.8-0.4,1.1-0.8
		s0.4-0.8,0.4-1.3c0-0.5-0.1-0.9-0.4-1.3c-0.3-0.4-0.7-0.7-1.1-0.8L556.6,113z"/>
	<path class="st5" d="M555.6,113.5c-0.8-0.4-1.7-0.6-2.6-0.6c-0.9,0-1.8,0.2-2.6,0.6l-38.4,22.2c-0.3,0.1-0.6,0.3-0.8,0.6
		c-0.2,0.3-0.3,0.6-0.3,0.9c0,0.3,0.1,0.7,0.3,0.9c0.2,0.3,0.5,0.5,0.8,0.6l38.4,22.2c0.8,0.4,1.7,0.6,2.6,0.6
		c0.9,0,1.8-0.2,2.6-0.6l38.4-22.2c0.3-0.1,0.6-0.3,0.8-0.6s0.3-0.6,0.3-0.9c0-0.3-0.1-0.7-0.3-0.9s-0.5-0.5-0.8-0.6L555.6,113.5z"
		/>
	
		<linearGradient id="SVGID_17_" gradientUnits="userSpaceOnUse" x1="411.8777" y1="274.4217" x2="496.878" y2="421.6458" gradientTransform="matrix(1 0 0 -1 0 585.896)">
		<stop  offset="0" style="stop-color:#5778FF"/>
		<stop  offset="0.1042" style="stop-color:#567FFF"/>
		<stop  offset="0.2607" style="stop-color:#5394FF"/>
		<stop  offset="0.4503" style="stop-color:#4DB6FF"/>
		<stop  offset="0.6638" style="stop-color:#46E4FF"/>
		<stop  offset="0.7742" style="stop-color:#42FFFF"/>
	</linearGradient>
	<path class="st22" d="M526.6,181.8l-89,49.6l0,32.1l-0.2,0.3l-54.7,30.9l-0.5-0.7l54.6-31l0-32.1l0.6-0.4l88.7-49.4L526.6,181.8z"
		/>
	<path class="st23" d="M471,322.3l15.1,8.7v34.8l-15.1-8.7V322.3z"/>
	<path class="st24" d="M456,331l15.1,8.7v17.4l-15.1-8.7V331z"/>
	<path class="st23" d="M440.9,270.1l15.1,8.7v69.6l-15.1-8.7V270.1z"/>
	<path class="st24" d="M425.8,243.9l15.1,8.7v87.1l-15.1-8.7V243.9z"/>
	<path class="st23" d="M410.8,252.7l15.1,8.7V331l-15.1-8.7V252.7z"/>
	<path class="st24" d="M395.7,191.7l15.1,8.7v121.9l-15.1-8.7V191.7z"/>
	<path class="st23" d="M380.6,200.4l15.1,8.7v104.5l-15.1-8.7V200.4z"/>
	<path class="st24" d="M365.6,209.1l15.1,8.7v87.1l-15.1-8.7V209.1z"/>
	<path class="st23" d="M350.5,165.6l15.1,8.7v121.9l-15.1-8.7V165.6z"/>
	<path class="st24" d="M335.4,122.1l15.1,8.7v156.7l-15.1-8.7V122.1z"/>
	<path class="st23" d="M320.4,130.8l15.1,8.7v139.3l-15.1-8.7V130.8z"/>
	<path class="st24" d="M305.3,87.2l15.1,8.7v174.1l-15.1-8.7V87.2z"/>
	<path class="st23" d="M290.2,78.5l15.1,8.7v174.1l-15.1-8.7V78.5z"/>
	<path class="st24" d="M275.2,35l15.1,8.7v208.9l-15.1-8.7V35z"/>
	<path class="st25" d="M290,495c76.2,0,138-35.7,138-79.7c0-44-61.8-79.7-138-79.7s-138,35.7-138,79.7C152,459.3,213.7,495,290,495z
		"/>
	
		<linearGradient id="SVGID_18_" gradientUnits="userSpaceOnUse" x1="20289.1563" y1="-32257.5332" x2="39251.1563" y2="-63044.4297" gradientTransform="matrix(1 0 0 -1 0 585.896)">
		<stop  offset="0" style="stop-color:#35068C"/>
		<stop  offset="2.000000e-02" style="stop-color:#40DDDA"/>
		<stop  offset="9.000000e-02" style="stop-color:#3AAEC0"/>
		<stop  offset="0.17" style="stop-color:#3484A9"/>
		<stop  offset="0.26" style="stop-color:#2F6195"/>
		<stop  offset="0.35" style="stop-color:#2B4486"/>
		<stop  offset="0.44" style="stop-color:#282E79"/>
		<stop  offset="0.54" style="stop-color:#261E71"/>
		<stop  offset="0.66" style="stop-color:#24156C"/>
		<stop  offset="0.82" style="stop-color:#24126A"/>
	</linearGradient>
	<path class="st26" d="M290,463.3c86.7,0,157.1-40.6,157.1-90.8s-70.3-90.8-157.1-90.8c-86.7,0-157.1,40.6-157.1,90.8
		S203.2,463.3,290,463.3z"/>
	
		<linearGradient id="SVGID_19_" gradientUnits="userSpaceOnUse" x1="109.179" y1="223.1725" x2="420.214" y2="223.1725" gradientTransform="matrix(1 0 0 -1 0 585.896)">
		<stop  offset="0" style="stop-color:#3671E9"/>
		<stop  offset="0.15" style="stop-color:#91A2FA"/>
		<stop  offset="0.33" style="stop-color:#8B97F1"/>
		<stop  offset="0.52" style="stop-color:#7366C8"/>
		<stop  offset="0.72" style="stop-color:#654CB3"/>
		<stop  offset="0.93" style="stop-color:#4127A7"/>
		<stop  offset="1" style="stop-color:#260672"/>
	</linearGradient>
	<path class="st27" d="M447,342.6h-3.9c-6.3-16.2-20.3-31.5-42.1-44.1c-61.3-35.5-160.8-35.5-222.1,0c-20.6,11.9-34.2,26.3-41,41.4
		H133v20.1c-1.2,24.1,14.1,48.4,45.9,66.8c61.3,35.4,160.8,35.4,222.1,0c30.7-17.7,46-41,46-64.2L447,342.6z"/>
	
		<linearGradient id="SVGID_20_" gradientUnits="userSpaceOnUse" x1="22161.8008" y1="222.7865" x2="84817.2031" y2="222.7865" gradientTransform="matrix(1 0 0 -1 0 585.896)">
		<stop  offset="0" style="stop-color:#42E8E0"/>
		<stop  offset="0.15" style="stop-color:#43E3E0"/>
		<stop  offset="0.33" style="stop-color:#45D5DF"/>
		<stop  offset="0.52" style="stop-color:#49BDDD"/>
		<stop  offset="0.72" style="stop-color:#4E9CDB"/>
		<stop  offset="0.93" style="stop-color:#5472D8"/>
		<stop  offset="1" style="stop-color:#5761D7"/>
	</linearGradient>
	<path class="st28" d="M443.2,334.8c-0.2-0.6-0.5-1.1-0.7-1.7v-13.2h-8.2V319c-2.1-2.9-4.5-5.6-7-8.2v9.2h-4.7v-13.7
		c-2.2-2-4.5-3.9-7-5.8V320h-4.7v-23.1c-2.3-1.6-4.7-3.1-7-4.6v27.6h-4.7v-30.3c-2.3-1.3-4.7-2.5-7.1-3.7v34h-4.7v-36.2
		c-2.3-1-4.7-2.1-7.1-3.1v39.3h-4.7v-31.8h-7.1v31.8H364v-23h-7.1V320h-4.7v-14.4h-7.1V320h-4.6v-5.6h-7.1v5.6h-86.7v-5.6h-7.2v5.6
		h-4.6v-14.4h-7.1V320h-4.7v-23.1H216V320h-4.7v-31.9h-7.1v31.8h-4.7v-39.3c-2.4,1-4.8,2-7.1,3.1V320h-4.7v-34.1
		c-2.4,1.2-4.8,2.4-7.1,3.7v30.4h-4.7v-27.6c-2.5,1.5-4.8,3-7.1,4.6v23.1h-4.7v-19.6c-2.5,1.9-4.8,3.9-7,5.8v13.8h-4.7v-9.3
		c-2.5,2.6-4.8,5.3-7,8.2v1h-8.2v12.2H134v33.7c1.4,6.3,3.7,12.3,7,17.9v-21h4.8v28.2c2.2,2.9,4.5,5.6,7,8.2v-36.4h4.7v41
		c2.2,2,4.5,3.9,7,5.8v-46.8h4.7v50.2c2.3,1.6,4.6,3.1,7.1,4.6v-54.8h4.7v57.5c2.3,1.3,4.7,2.5,7.1,3.7v-61.2h4.7v63.5
		c2.3,1,4.7,2.1,7.1,3.1v-66.5h4.7v68.4c2.3,0.9,4.7,1.7,7.1,2.5v-71h4.7V435c2.4,0.7,4.7,1.4,7.1,2.1v-74.4h4.7v75.6
		c2.4,0.6,4.7,1.1,7.1,1.6v-77.2h4.6v78.2c2.4,0.5,4.8,0.9,7.2,1.3v-79.5h4.5v80.2c2.4,0.4,4.8,0.7,7.2,1v-81.1h4.5v81.6
		c2.4,0.2,4.8,0.4,7.2,0.6v-82.3h4.5v82.6c2.4,0.1,4.8,0.2,7.3,0.3v-82.9h4.5v83c2.4,0,4.9,0,7.3,0v-83h4.5v82.9
		c2.4,0,4.8-0.2,7.3-0.3v-82.6h4.5v82.3c2.4-0.2,4.8-0.4,7.2-0.6v-81.6h4.5v81.1c2.4-0.3,4.8-0.6,7.2-0.9v-80.2h4.6v79.5
		c2.4-0.4,4.8-0.8,7.2-1.3v-78.2h4.6v77.2c2.4-0.5,4.8-1.1,7.1-1.7v-75.5h4.7v74.4c2.4-0.7,4.8-1.4,7.1-2.1v-72.3h4.7v70.8
		c2.4-0.8,4.8-1.6,7.1-2.5v-68.3h4.7v66.5c2.4-1,4.8-2,7.1-3.1v-63.4h4.7v61.2c2.4-1.2,4.8-2.4,7.1-3.7v-57.5h4.7v54.8
		c2.5-1.5,4.8-3,7-4.6v-50.2h4.7v46.8c2.5-1.9,4.8-3.9,7-5.8v-40.9h4.7v36.4c2.5-2.6,4.8-5.3,7-8.2v-28.2h4.7v21
		c3.3-5.6,5.6-11.7,7-18.1v-30.7L443.2,334.8z"/>
	
		<linearGradient id="SVGID_21_" gradientUnits="userSpaceOnUse" x1="18359.2832" y1="-29086.5723" x2="37321.2813" y2="-59873.5352" gradientTransform="matrix(1 0 0 -1 0 585.896)">
		<stop  offset="0" style="stop-color:#654CB2"/>
		<stop  offset="2.000000e-02" style="stop-color:#40DDDA"/>
		<stop  offset="9.000000e-02" style="stop-color:#3AAEC0"/>
		<stop  offset="0.17" style="stop-color:#3484A9"/>
		<stop  offset="0.26" style="stop-color:#2F6195"/>
		<stop  offset="0.35" style="stop-color:#2B4486"/>
		<stop  offset="0.44" style="stop-color:#282E79"/>
		<stop  offset="0.54" style="stop-color:#261E71"/>
		<stop  offset="0.66" style="stop-color:#24156C"/>
		<stop  offset="0.82" style="stop-color:#24126A"/>
	</linearGradient>
	<path class="st29" d="M290,425.6c86.7,0,157.1-40.6,157.1-90.8c0-50.1-70.3-90.8-157.1-90.8c-86.7,0-157.1,40.6-157.1,90.8
		C132.9,385,203.2,425.6,290,425.6z"/>
	<path class="st30" d="M290,244c-35.6,0-71.2,6.9-100.2,20.8l-46.9,102c7.6,11.7,19.6,22.7,35.9,32.2c10.5,6,21.7,10.9,33.2,14.6
		L290,244z"/>
	<path class="st30" d="M334,247.7l-80.6,175.4c19.5,2.6,39.2,3.2,58.8,1.6l74.2-161.5C369.7,255.9,352.1,250.6,334,247.7z"/>
	<g class="st31">
		
			<linearGradient id="SVGID_22_" gradientUnits="userSpaceOnUse" x1="265.399" y1="373.6604" x2="343.25" y2="-15.0376" gradientTransform="matrix(1 0 0 -1 0 585.896)">
			<stop  offset="0" style="stop-color:#42E8E0"/>
			<stop  offset="2.000000e-02" style="stop-color:#40DDDA"/>
			<stop  offset="9.000000e-02" style="stop-color:#3AAEC0"/>
			<stop  offset="0.17" style="stop-color:#3484A9"/>
			<stop  offset="0.26" style="stop-color:#2F6195"/>
			<stop  offset="0.35" style="stop-color:#2B4486"/>
			<stop  offset="0.44" style="stop-color:#282E79"/>
			<stop  offset="0.54" style="stop-color:#261E71"/>
			<stop  offset="0.66" style="stop-color:#24156C"/>
			<stop  offset="0.82" style="stop-color:#24126A"/>
		</linearGradient>
		<path class="st32" d="M290,415.3c76.8,0,139.1-36,139.1-80.4s-62.3-80.4-139.1-80.4s-139.1,36-139.1,80.4S213.1,415.3,290,415.3z"
			/>
		<g class="st31">
			<path class="st33" d="M41.5,334.5l-1.5-0.9l242.3-140l1.5,0.9L41.5,334.5z"/>
			<path class="st33" d="M45.8,337l-1.5-0.9l242.3-140l1.5,0.9L45.8,337z"/>
			<path class="st33" d="M50,339.5l-1.5-0.9l242.3-140l1.5,0.9L50,339.5z"/>
			<path class="st33" d="M54.3,341.9l-1.5-0.9l242.3-140l1.5,0.9L54.3,341.9z"/>
			<path class="st33" d="M58.6,344.4l-1.5-0.9l242.3-140l1.5,0.9L58.6,344.4z"/>
			<path class="st33" d="M62.8,346.9l-1.5-0.9l242.3-140l1.5,0.9L62.8,346.9z"/>
			<path class="st33" d="M67.1,349.3l-1.5-0.9l242.3-140l1.5,0.9L67.1,349.3z"/>
			<path class="st33" d="M71.4,351.8l-1.5-0.9l242.3-140l1.5,0.9L71.4,351.8z"/>
			<path class="st33" d="M75.7,354.3l-1.5-0.9l242.3-140l1.5,0.9L75.7,354.3z"/>
			<path class="st33" d="M79.9,356.7l-1.5-0.9l242.3-140l1.5,0.9L79.9,356.7z"/>
			<path class="st33" d="M84.2,359.2l-1.5-0.9l242.3-140l1.5,0.9L84.2,359.2z"/>
			<path class="st33" d="M88.4,361.7l-1.5-0.9l242.3-140l1.5,0.9L88.4,361.7z"/>
			<path class="st33" d="M92.7,364.1l-1.5-0.9l242.3-140l1.5,0.9L92.7,364.1z"/>
			<path class="st33" d="M97,366.6l-1.5-0.9l242.3-140l1.5,0.9L97,366.6z"/>
			<path class="st33" d="M101.3,369.1l-1.5-0.9l242.3-140l1.5,0.9L101.3,369.1z"/>
			<path class="st33" d="M105.5,371.5l-1.5-0.9l242.3-140l1.5,0.9L105.5,371.5z"/>
			<path class="st33" d="M109.8,374l-1.5-0.9l242.3-140l1.5,0.9L109.8,374z"/>
			<path class="st33" d="M114.1,376.5l-1.5-0.9l242.3-140l1.5,0.9L114.1,376.5z"/>
			<path class="st33" d="M118.3,378.9l-1.5-0.9l242.3-140l1.5,0.9L118.3,378.9z"/>
			<path class="st33" d="M122.6,381.4l-1.5-0.9l242.3-140l1.5,0.9L122.6,381.4z"/>
			<path class="st33" d="M126.9,383.9l-1.5-0.9l242.3-140l1.5,0.9L126.9,383.9z"/>
			<path class="st33" d="M131.2,386.3l-1.5-0.9l242.3-140l1.5,0.9L131.2,386.3z"/>
			<path class="st33" d="M135.4,388.8l-1.5-0.9l242.3-140l1.5,0.9L135.4,388.8z"/>
			<path class="st33" d="M139.7,391.3l-1.5-0.9l242.3-140l1.5,0.9L139.7,391.3z"/>
			<path class="st33" d="M144,393.7l-1.5-0.9l242.3-140l1.5,0.9L144,393.7z"/>
			<path class="st33" d="M148.2,396.2l-1.5-0.9l242.3-140l1.5,0.9L148.2,396.2z"/>
			<path class="st33" d="M152.5,398.7l-1.5-0.9l242.3-140l1.5,0.9L152.5,398.7z"/>
			<path class="st33" d="M156.8,401.1l-1.5-0.9l242.3-140l1.5,0.9L156.8,401.1z"/>
			<path class="st33" d="M161,403.6l-1.5-0.9l242.3-140l1.5,0.9L161,403.6z"/>
			<path class="st33" d="M165.3,406.1l-1.5-0.9l242.3-140l1.5,0.9L165.3,406.1z"/>
			<path class="st33" d="M169.6,408.5l-1.5-0.9l242.3-140l1.5,0.9L169.6,408.5z"/>
			<path class="st33" d="M173.8,411l-1.5-0.9l242.3-140l1.5,0.9L173.8,411z"/>
			<path class="st33" d="M178.1,413.5l-1.5-0.9l242.3-140l1.5,0.9L178.1,413.5z"/>
			<path class="st33" d="M182.4,415.9l-1.5-0.9l242.3-140l1.5,0.9L182.4,415.9z"/>
			<path class="st33" d="M186.7,418.4l-1.5-0.9l242.3-140l1.5,0.9L186.7,418.4z"/>
			<path class="st33" d="M190.9,420.9l-1.5-0.9l242.3-140l1.5,0.9L190.9,420.9z"/>
			<path class="st33" d="M195.2,423.3l-1.5-0.9l242.3-140l1.5,0.9L195.2,423.3z"/>
			<path class="st33" d="M199.5,425.8L198,425l242.3-140l1.5,0.9L199.5,425.8z"/>
			<path class="st33" d="M203.7,428.3l-1.5-0.9l242.3-140.1l1.5,0.9L203.7,428.3z"/>
			<path class="st33" d="M208,430.7l-1.5-0.9l242.3-140l1.5,0.9L208,430.7z"/>
			<path class="st33" d="M212.3,433.2l-1.5-0.9l242.3-140l1.5,0.9L212.3,433.2z"/>
			<path class="st33" d="M216.5,435.7l-1.5-0.9l242.3-140l1.5,0.9L216.5,435.7z"/>
			<path class="st33" d="M220.8,438.1l-1.5-0.9l242.3-140l1.5,0.9L220.8,438.1z"/>
			<path class="st33" d="M225.1,440.6l-1.5-0.9l242.3-140l1.5,0.9L225.1,440.6z"/>
			<path class="st33" d="M229.4,443.1l-1.5-0.9l242.3-140l1.5,0.9L229.4,443.1z"/>
			<path class="st33" d="M233.6,445.5l-1.5-0.9l242.3-140l1.5,0.9L233.6,445.5z"/>
			<path class="st33" d="M237.9,448l-1.5-0.9l242.3-140.1l1.5,0.9L237.9,448z"/>
			<path class="st33" d="M242.2,450.5l-1.5-0.9l242.3-140l1.5,0.9L242.2,450.5z"/>
			<path class="st33" d="M246.4,452.9l-1.5-0.9l242.3-140l1.5,0.9L246.4,452.9z"/>
			<path class="st33" d="M250.7,455.4l-1.5-0.9l242.3-140l1.5,0.9L250.7,455.4z"/>
			<path class="st33" d="M255,457.9l-1.5-0.9L495.8,317l1.5,0.9L255,457.9z"/>
			<path class="st33" d="M259.2,460.3l-1.5-0.9l242.3-140l1.5,0.9L259.2,460.3z"/>
			<path class="st33" d="M263.5,462.8L262,462l242.3-140l1.5,0.9L263.5,462.8z"/>
			<path class="st33" d="M267.8,465.3l-1.5-0.9l242.3-140l1.5,0.9L267.8,465.3z"/>
			<path class="st33" d="M272,467.8l-1.5-0.9l242.3-140l1.5,0.9L272,467.8z"/>
			<path class="st33" d="M276.3,470.2l-1.5-0.9l242.3-140l1.5,0.9L276.3,470.2z"/>
			<path class="st33" d="M280.6,472.7l-1.5-0.9l242.3-140l1.5,0.9L280.6,472.7z"/>
			<path class="st33" d="M284.9,475.2l-1.5-0.9l242.3-140l1.5,0.9L284.9,475.2z"/>
			<path class="st33" d="M289.1,477.6l-1.5-0.9l242.3-140l1.5,0.9L289.1,477.6z"/>
			<path class="st33" d="M293.4,480.1l-1.5-0.9l242.3-140l1.5,0.9L293.4,480.1z"/>
			<path class="st33" d="M297.7,482.6l-1.5-0.9l242.3-140l1.5,0.9L297.7,482.6z"/>
		</g>
	</g>
	
		<linearGradient id="SVGID_23_" gradientUnits="userSpaceOnUse" x1="150.8691" y1="289.8661" x2="429.0663" y2="289.8661" gradientTransform="matrix(1 0 0 -1 0 585.896)">
		<stop  offset="0" style="stop-color:#2B237C"/>
		<stop  offset="1" style="stop-color:#180D5B"/>
	</linearGradient>
	<path class="st34" d="M191.6,283.4c54.3-31.4,142.4-31.4,196.7,0c26,15,39.5,34.5,40.7,54.1c1.2-21.5-12.3-43.2-40.7-59.5
		c-54.3-31.4-142.4-31.4-196.7,0c-28.4,16.4-41.9,38.1-40.7,59.5C152.1,317.9,165.7,298.4,191.6,283.4z"/>
	
		<linearGradient id="SVGID_24_" gradientUnits="userSpaceOnUse" x1="345.2395" y1="-1649.3271" x2="349.3494" y2="-1709.0371" gradientTransform="matrix(1 0 0 -1 0 585.896)">
		<stop  offset="0" style="stop-color:#2B237D"/>
		<stop  offset="2.000000e-02" style="stop-color:#40DDDA"/>
		<stop  offset="9.000000e-02" style="stop-color:#3AAEC0"/>
		<stop  offset="0.17" style="stop-color:#3484A9"/>
		<stop  offset="0.26" style="stop-color:#2F6195"/>
		<stop  offset="0.35" style="stop-color:#2B4486"/>
		<stop  offset="0.44" style="stop-color:#282E79"/>
		<stop  offset="0.54" style="stop-color:#261E71"/>
		<stop  offset="0.66" style="stop-color:#24156C"/>
		<stop  offset="0.82" style="stop-color:#24126A"/>
	</linearGradient>
	<path class="st35" d="M208.7,297.5v8.3l7.1-4.1L208.7,297.5z"/>
	
		<linearGradient id="SVGID_25_" gradientUnits="userSpaceOnUse" x1="358.5002" y1="-1577.1349" x2="362.4802" y2="-1636.8549" gradientTransform="matrix(1 0 0 -1 0 585.896)">
		<stop  offset="0" style="stop-color:#2C247E"/>
		<stop  offset="2.000000e-02" style="stop-color:#40DDDA"/>
		<stop  offset="9.000000e-02" style="stop-color:#3AAEC0"/>
		<stop  offset="0.17" style="stop-color:#3484A9"/>
		<stop  offset="0.26" style="stop-color:#2F6195"/>
		<stop  offset="0.35" style="stop-color:#2B4486"/>
		<stop  offset="0.44" style="stop-color:#282E79"/>
		<stop  offset="0.54" style="stop-color:#261E71"/>
		<stop  offset="0.66" style="stop-color:#24156C"/>
		<stop  offset="0.82" style="stop-color:#24126A"/>
	</linearGradient>
	<path class="st36" d="M230.2,285.1v8.3l7.2-4.1L230.2,285.1z"/>
	
		<linearGradient id="SVGID_26_" gradientUnits="userSpaceOnUse" x1="523.4879" y1="-2073.2229" x2="531.0778" y2="-2157.4128" gradientTransform="matrix(1 0 0 -1 0 585.896)">
		<stop  offset="0" style="stop-color:#2B237C"/>
		<stop  offset="1" style="stop-color:#180D5B"/>
	</linearGradient>
	<path class="st37" d="M314.5,301.7v9.8l-6.5-4L314.5,301.7z"/>
	
		<linearGradient id="SVGID_27_" gradientUnits="userSpaceOnUse" x1="2949.75" y1="-191.7647" x2="3033.54" y2="-205.9847" gradientTransform="matrix(1 0 0 -1 0 585.896)">
		<stop  offset="0" style="stop-color:#2B237C"/>
		<stop  offset="1" style="stop-color:#180D5B"/>
	</linearGradient>
	<path class="st38" d="M376,334.9v12l-9.7-6L376,334.9z"/>
	
		<linearGradient id="SVGID_28_" gradientUnits="userSpaceOnUse" x1="3830.1638" y1="-300.0021" x2="3968.8237" y2="-320.9318" gradientTransform="matrix(1 0 0 -1 0 585.896)">
		<stop  offset="0" style="stop-color:#2B237C"/>
		<stop  offset="1" style="stop-color:#180D5B"/>
	</linearGradient>
	<path class="st39" d="M376.2,354.6v10.5l-12.9,7.4v-10.5L376.2,354.6z"/>
	
		<linearGradient id="SVGID_29_" gradientUnits="userSpaceOnUse" x1="3655.8896" y1="-289.3322" x2="3794.5496" y2="-310.2623" gradientTransform="matrix(1 0 0 -1 0 585.896)">
		<stop  offset="0" style="stop-color:#2B237C"/>
		<stop  offset="1" style="stop-color:#180D5B"/>
	</linearGradient>
	<path class="st40" d="M354.8,367v10.5l-12.9,7.4v-10.5L354.8,367z"/>
	
		<linearGradient id="SVGID_30_" gradientUnits="userSpaceOnUse" x1="3227.5386" y1="-244.5918" x2="3398.3687" y2="-270.4121" gradientTransform="matrix(1 0 0 -1 0 585.896)">
		<stop  offset="0" style="stop-color:#2B237C"/>
		<stop  offset="1" style="stop-color:#180D5B"/>
	</linearGradient>
	<path class="st41" d="M306.5,386.5V397l-12.9-7.4v-10.5L306.5,386.5z"/>
	
		<linearGradient id="SVGID_31_" gradientUnits="userSpaceOnUse" x1="555.4077" y1="-4119.834" x2="579.4977" y2="-4411.874" gradientTransform="matrix(1 0 0 -1 0 585.896)">
		<stop  offset="0" style="stop-color:#2C247D"/>
		<stop  offset="2.000000e-02" style="stop-color:#40DDDA"/>
		<stop  offset="9.000000e-02" style="stop-color:#3AAEC0"/>
		<stop  offset="0.17" style="stop-color:#3484A9"/>
		<stop  offset="0.26" style="stop-color:#2F6195"/>
		<stop  offset="0.35" style="stop-color:#2B4486"/>
		<stop  offset="0.44" style="stop-color:#282E79"/>
		<stop  offset="0.54" style="stop-color:#261E71"/>
		<stop  offset="0.66" style="stop-color:#24156C"/>
		<stop  offset="0.82" style="stop-color:#24126A"/>
	</linearGradient>
	<path class="st42" d="M187.8,317.9v10.5l12.9,7.4v-10.5L187.8,317.9z"/>
	
		<linearGradient id="SVGID_32_" gradientUnits="userSpaceOnUse" x1="562.4467" y1="-4397.2432" x2="585.3666" y2="-4698.4028" gradientTransform="matrix(1 0 0 -1 0 585.896)">
		<stop  offset="0" style="stop-color:#2B237C"/>
		<stop  offset="1" style="stop-color:#180D5B"/>
	</linearGradient>
	<path class="st43" d="M215.4,327.3v-10.5l-14.8,8.5v10.5L215.4,327.3z"/>
	
		<linearGradient id="SVGID_33_" gradientUnits="userSpaceOnUse" x1="793.7405" y1="-13946.5986" x2="917.7405" y2="-17253.5996" gradientTransform="matrix(1 0 0 -1 0 585.896)">
		<stop  offset="0" style="stop-color:#91A2FA"/>
		<stop  offset="1.990000e-02" style="stop-color:#91A2FA"/>
		<stop  offset="2.000000e-02" style="stop-color:#654DB3"/>
		<stop  offset="9.000000e-02" style="stop-color:#654DB3"/>
		<stop  offset="0.17" style="stop-color:#654DB3"/>
		<stop  offset="0.26" style="stop-color:#654CB3"/>
		<stop  offset="0.35" style="stop-color:#35068C"/>
		<stop  offset="0.44" style="stop-color:#35068C"/>
		<stop  offset="0.54" style="stop-color:#35068C"/>
		<stop  offset="0.66" style="stop-color:#35068C"/>
		<stop  offset="0.82" style="stop-color:#35068C"/>
	</linearGradient>
	<path class="st44" d="M215.4,316.8v10.5l83.9,48.5l9.1-5.2L215.4,316.8z"/>
	<path class="st45" d="M291.9,259.2c-5.5,0.1-10.9-1.2-15.7-3.8c-4.4-2.5-6.8-5.9-6.8-9.6s2.4-7.1,6.8-9.6c8.7-5,22.8-5,31.5,0
		c4.4,2.5,6.8,6,6.8,9.6c0,3.7-2.4,7.1-6.8,9.6C302.8,258,297.4,259.3,291.9,259.2z M291.9,234.2c-5.2-0.1-10.3,1.1-14.9,3.6
		c-3.8,2.2-5.9,5.1-5.9,8.1s2.1,5.9,5.9,8.1c8.2,4.7,21.6,4.7,29.8,0c3.8-2.2,5.9-5.1,5.9-8.1s-2.1-5.9-5.9-8.1
		C302.2,235.3,297.1,234.1,291.9,234.2z"/>
	<path class="st46" d="M301.2,251.3c-2.9,1.5-6.1,2.2-9.3,2.2c-3.2,0-6.4-0.8-9.3-2.2c-5.2-3-5.2-7.8,0-10.8
		c2.9-1.5,6.1-2.2,9.3-2.2c3.2,0,6.4,0.8,9.3,2.2C306.4,243.5,306.4,248.3,301.2,251.3z"/>
	<path class="st45" d="M346.3,219.8l-9.2-5.3l15.7-9.1l9.3,5.3L346.3,219.8z"/>
	<path class="st47" d="M329.7,211.3l-11.6-3.4l10.1-11.5l11.6,3.4L329.7,211.3z"/>
	<path class="st48" d="M309.4,206.3l-12.9-1.2l3.5-12.7l12.9,1.2L309.4,206.3z"/>
	<path class="st49" d="M287.3,205.1l-12.9,1.2l-3.5-12.7l12.9-1.2L287.3,205.1z"/>
	<path class="st50" d="M265.8,207.9l-11.6,3.4L244,199.9l11.6-3.4L265.8,207.9z"/>
	<path class="st51" d="M246.7,214.4l-9.2,5.3l-15.7-9.1l9.2-5.3L246.7,214.4z"/>
	<path class="st50" d="M315.4,234.1l-3.2-1.9l23.5-13.6l3.2,1.9L315.4,234.1z"/>
	<path class="st49" d="M308,230.5l-4.1-1.2l15.1-17.1l4.1,1.2L308,230.5z"/>
	<path class="st48" d="M299,228.4l-4.5-0.4l5.2-18.9l4.5,0.4L299,228.4z"/>
	<path class="st47" d="M289.3,228l-4.5,0.4l-5.2-18.9l4.5-0.4L289.3,228z"/>
	<path class="st45" d="M279.9,229.3l-4.1,1.2l-15.1-17.1l4.1-1.2L279.9,229.3z"/>
	<path class="st45" d="M271.6,232.3l-3.2,1.9l-23.5-13.6l3.2-1.9L271.6,232.3z"/>
	<path class="st45" d="M265.3,236.6l-2.1,2.4l-29.6-8.7l2.1-2.4L265.3,236.6z"/>
	<path class="st45" d="M261.6,241.8l-0.7,2.6l-32.8-3l0.7-2.6L261.6,241.8z"/>
	<path class="st45" d="M260.9,247.4l0.7,2.6l-32.8,3l-0.7-2.6L260.9,247.4z"/>
	<path class="st45" d="M263.2,252.8l2.1,2.4l-29.6,8.7l-2.1-2.4L263.2,252.8z"/>
	<path class="st45" d="M268.3,257.6l3.2,1.9L248.1,273l-3.2-1.9L268.3,257.6z"/>
	<path class="st52" d="M384.1,201.8c34.5,24.1,36.4,58.5,5.8,83.7l12.4,11.5c42.3-30.4,41.3-74.2-2.7-104.1L384.1,201.8z"/>
	<path class="st50" d="M310.6,314.2c-36.5,3.3-75.2-3.1-103.3-19.4c-6.1-3.5-11.9-7.7-17.1-12.4l-21.1,4.2
		c6.8,6.7,14.4,12.4,22.7,17.1c35.6,20.5,85.4,27.9,131.1,21.9L310.6,314.2z"/>
	<path class="st46" d="M151.9,257.5l21.1-4.2c-3.7-20.1,7.8-40.9,34.3-56.3c44-25.4,113.8-26.9,160.9-4.4l15.5-8.9
		c-55.6-27.4-139.2-26-191.7,4.4C159.1,207,145.8,232.9,151.9,257.5z"/>
	<path class="st46" d="M279,291.6l-8.2-4.8l105.9-61.2l8.2,4.8L279,291.6z"/>
	<path class="st53" d="M290.7,298.4l-8.2-4.8l46-26.6l8.2,4.8L290.7,298.4z"/>
	<path class="st52" d="M303.2,305.6l-8.2-4.8l73.3-42.3l8.2,4.8L303.2,305.6z"/>
	<path class="st54" d="M315.6,312.7l-8.3-4.8l57-32.9l8.2,4.8L315.6,312.7z"/>
</g>
<g id="Layer_2">
	<linearGradient id="SVGID_34_" gradientUnits="userSpaceOnUse" x1="20115.5176" y1="330.6885" x2="43102.2813" y2="330.6885">
		<stop  offset="0" style="stop-color:#2B237C"/>
		<stop  offset="1" style="stop-color:#180D5B"/>
	</linearGradient>
	<path class="st55" d="M200.6,323.9l14.8-8.5l92.9,53.7l-14.8,8.5l12.9,7.4l28.1-16.2l7.3,4.2l12.9-7.4l-7.3-4.2l8.6-4.9l7.3,4.2
		l12.9-7.4l-8.4-4.8c1-0.8,2-1.9,3.1-3.1c0.2-0.3,2-2.4,3.3-4.8c3.9-7.1,2.9-14.4,2.9-14.4c-0.9-6.3-4.5-10.5-5.9-12.1
		c-2.1-2.4-4.5-4.3-6.9-6.2c-2.1-1.7-4-2.9-5.3-3.8c-1.4-0.6-3.6-1.6-6.1-3.2c-6.3-4.2-7.4-7.8-10.7-7.7c-1.9,0-2.3,1.2-7.7,5.9
		c-5.8,4.9-9.2,6.9-8.8,7.6c0.5,1.1,6.8-3,14-0.9c0.5,0.2,2.5,1.2,6.5,3.4c8,4.4,9.3,5.3,10.8,6.9c1.7,1.7,3.4,3.4,4.1,6.3
		c1,4.1-0.7,7.6-1.4,9c-0.8,1.7-1.9,3.1-9.1,8.6c-2.6,2-5.9,4.2-12.6,8.5c-2,1.3-4.7,3-8,2.5c-1.2-0.2-2.1-0.6-2.5-0.9
		c-26.9-15.5-53.9-31-80.8-46.4c5.3-4.4,10.2-7.4,13.8-9.4c5.8-3.2,9.2-4.1,10.9-4.6c3.1-0.8,5.7-1,7.6-1.1
		c12.9,2.5,16.5,5.7,16.9,8.4c0.4,2.8-2.7,5.2-1.7,6.5c0.8,1,3.1,0.1,10.9-2.5c8.2-2.8,10.2-3.4,10.3-4.7c0.1-0.7-0.5-1.4-5.6-5.1
		c-3.6-2.5-5.4-3.7-7.4-5c-4.3-2.9-8.3-4.7-11.2-5.8c-2.6-1-5.9-2.4-10.6-2.9c-2.5-0.3-5.7-0.5-9.4-0.3c-1.4,0.1-4.1,0.3-7.5,0.9
		c-2.7,0.5-6.2,1.4-10.2,3c-3.5-1.5-7-3-10.6-4.5c-4.4,2.5-8.8,5-13.2,7.5c2.7,1.4,5.4,2.8,8.2,4.2c-3.1,1.6-6.1,3.2-9.2,4.9
		l-7.1-4.1l-12.9,7.4l6.6,5.2l-27.6,15.2L200.6,323.9z"/>
</g>
</svg>
