<?xml version="1.0" encoding="utf-8"?>
<!-- Generator: Adobe Illustrator 23.0.5, SVG Export Plug-In . SVG Version: 6.00 Build 0)  -->
<svg version="1.1" id="Layer_1" xmlns="http://www.w3.org/2000/svg" xmlns:xlink="http://www.w3.org/1999/xlink" x="0px" y="0px"
	 viewBox="0 0 40 40" style="enable-background:new 0 0 40 40;" xml:space="preserve">
<style type="text/css">
	.st0{fill:#FFFFFF;fill-opacity:0.1;}
	.st1{fill:#FFFFFF;}
	.st2{fill:url(#SVGID_1_);}
</style>
<path class="st0" d="M20,40c11,0,20-9,20-20S31,0,20,0C9,0,0,9,0,20S9,40,20,40z"/>
<path class="st1" d="M18.8,28c-3.9-0.6-6.9-4-6.9-8.1s3-7.5,6.9-8.1V7.7C12.6,8.3,7.7,13.6,7.7,20c0,6.4,4.9,11.7,11.2,12.3V28z"/>
<path class="st1" d="M27,12l-0.1,0.4v10.8l0.1,0.1l5-3L27,12z"/>
<path class="st1" d="M27,12l-5,8.3l5,3V18V12z"/>
<path class="st1" d="M27,24.9L27,24.9l-0.1,3.9L27,29l5-7L27,24.9z"/>
<path class="st1" d="M27,29v-4.1l-5-3L27,29z"/>
<path class="st1" d="M27,23.2l5-3L27,18V23.2z"/>
<path class="st1" d="M22,20.3l5,3V18L22,20.3z"/>
<g>
	<linearGradient id="SVGID_1_" gradientUnits="userSpaceOnUse" x1="0.1869" y1="19.5354" x2="39.7892" y2="19.5354">
		<stop  offset="0" style="stop-color:#F9AA4B"/>
		<stop  offset="1" style="stop-color:#F7931A"/>
	</linearGradient>
	<ellipse class="st2" cx="20" cy="19.5" rx="19.8" ry="19.5"/>
	<path class="st1" d="M12.1,7.2l2.4,1.5l-0.1,17.6L12,24.9l0,2.4l4.6,2.9l0,1.4l2.1,1.3l0-1.4l1.4,0.9l0,1.4l2.1,1.3l0-1.6
		c0.2,0.1,0.4,0.2,0.7,0.2c0.1,0,0.5,0.1,0.9,0.1c1.3,0,2.3-0.7,2.3-0.7c0.8-0.6,1.1-1.4,1.2-1.8c0.2-0.5,0.2-1,0.3-1.5
		c0.1-0.4,0.1-0.8,0.1-1.1c0-0.3-0.1-0.7,0-1.1c0.1-1.2,0.5-1.7,0.2-2.1c-0.2-0.3-0.4-0.2-1.4-0.7c-1.2-0.5-1.7-0.8-1.8-0.7
		c-0.1,0.2,1,0.8,1.3,2c0,0.1,0,0.5,0,1.2c0,1.5,0,1.8-0.1,2.1c-0.1,0.4-0.2,0.8-0.6,1.1C24.8,31,24.2,31,23.9,31
		c-0.3,0-0.6,0-1.9-0.7c-0.5-0.2-1.1-0.6-2.2-1.2c-0.3-0.2-0.8-0.5-1-1c-0.1-0.2-0.1-0.3-0.1-0.4c0-5.1,0-10.2,0.1-15.3
		c1.1,0.4,1.9,0.9,2.4,1.3c0.9,0.6,1.3,1,1.5,1.3c0.4,0.4,0.6,0.8,0.8,1c0.7,2.1,0.5,2.8,0.2,3.1c-0.4,0.3-1,0-1.1,0.2
		c-0.1,0.2,0.2,0.5,1.2,1.4c1.1,1,1.3,1.2,1.5,1.1c0.1,0,0.2-0.2,0.3-1.2c0.1-0.7,0.1-1.1,0.1-1.5c0.1-0.8,0-1.6-0.1-2.1
		c-0.1-0.5-0.1-1-0.4-1.8C25,15,24.8,14.5,24.5,14c-0.1-0.2-0.4-0.6-0.7-1c-0.3-0.4-0.7-0.8-1.2-1.3c-0.1-0.6-0.1-1.3-0.2-1.9
		c-0.7-0.5-1.4-0.9-2.1-1.4c0,0.5,0,1,0.1,1.5c-0.5-0.3-0.9-0.6-1.4-1l0-1.4l-2.1-1.3l-0.2,1.4l-4.4-2.9L12.1,7.2z"/>
</g>
</svg>
