<?xml version="1.0" encoding="utf-8"?>
<!-- Generator: Adobe Illustrator 23.0.5, SVG Export Plug-In . SVG Version: 6.00 Build 0)  -->
<svg version="1.1" id="Layer_2" xmlns="http://www.w3.org/2000/svg" xmlns:xlink="http://www.w3.org/1999/xlink" x="0px" y="0px"
	 viewBox="0 0 135 40" style="enable-background:new 0 0 135 40;" xml:space="preserve">
<style type="text/css">
	.st0{fill:url(#SVGID_1_);}
	.st1{fill:#FFFFFF;}
</style>
<g>
	<linearGradient id="SVGID_1_" gradientUnits="userSpaceOnUse" x1="0.3569" y1="20.4022" x2="39.8997" y2="20.4022">
		<stop  offset="0" style="stop-color:#F9AA4B"/>
		<stop  offset="1" style="stop-color:#F7931A"/>
	</linearGradient>
	<ellipse class="st0" cx="20.1" cy="20.4" rx="19.8" ry="19.5"/>
	<path class="st1" d="M12.3,8.1l2.4,1.5l-0.1,17.6l-2.4-1.5l0,2.4l4.5,2.9l0,1.4l2.1,1.3l0-1.4l1.4,0.9l0,1.4l2.1,1.3l0-1.6
		c0.2,0.1,0.4,0.2,0.7,0.2c0.1,0,0.5,0.1,0.9,0.1c1.3,0,2.3-0.7,2.3-0.7c0.8-0.6,1.1-1.4,1.2-1.8c0.2-0.5,0.2-1,0.3-1.5
		c0.1-0.4,0.1-0.8,0.1-1.1c0-0.3-0.1-0.7,0-1.1c0.1-1.2,0.5-1.7,0.2-2.1c-0.2-0.3-0.4-0.2-1.4-0.7c-1.2-0.5-1.7-0.8-1.8-0.7
		c-0.1,0.2,1,0.8,1.3,2c0,0.1,0,0.5,0,1.2c0,1.5,0,1.8-0.1,2.1c-0.1,0.4-0.2,0.7-0.6,1.1c-0.5,0.5-1.1,0.5-1.4,0.5
		c-0.3,0-0.6,0-1.9-0.7C21.6,31,21,30.6,19.9,30c-0.3-0.2-0.8-0.5-1-1c-0.1-0.2-0.1-0.3-0.1-0.4c0-5.1,0-10.2,0.1-15.3
		c1.1,0.4,1.9,0.9,2.4,1.3c0.9,0.6,1.3,1,1.5,1.3c0.4,0.4,0.6,0.8,0.8,1c0.7,2.1,0.5,2.8,0.2,3.1c-0.4,0.3-0.9,0-1,0.2
		c-0.1,0.2,0.2,0.5,1.2,1.4c1.1,1,1.3,1.2,1.5,1.1c0.1,0,0.2-0.2,0.3-1.2c0.1-0.7,0.1-1.1,0.1-1.5c0.1-0.8,0-1.6-0.1-2.1
		c-0.1-0.5-0.1-1-0.4-1.8c-0.2-0.4-0.4-0.9-0.7-1.4c-0.1-0.2-0.4-0.6-0.7-1c-0.3-0.4-0.7-0.8-1.2-1.3c-0.1-0.6-0.1-1.3-0.2-1.9
		c-0.7-0.5-1.4-0.9-2.1-1.4c0,0.5,0,1,0.1,1.5c-0.5-0.3-0.9-0.6-1.4-1l0-1.4l-2.1-1.3l-0.2,1.4l-4.3-2.9L12.3,8.1z"/>
</g>
<g>
	<g>
		<path class="st1" d="M52.9,26.9c-0.3,1-0.8,2.4-1.1,3c-0.6,0.1-2.1,0.5-3.7,0.5c-4.8,0-7.2-3.2-7.2-6.7c0-4.1,3.1-6.9,7.6-6.9
			c1.7,0,3.1,0.4,3.8,0.5c0.1,0.9,0.2,2.1,0.4,3.1L52,20.5c-0.4-1.3-0.9-2.2-1.9-2.6c-0.5-0.2-1.3-0.4-2.1-0.4c-3.3,0-5,2.4-5,5.7
			c0,3.9,2,6.3,5.2,6.3c2,0,3-0.9,4.1-2.9L52.9,26.9z"/>
		<path class="st1" d="M61.4,30.1v-0.6c1.3-0.2,1.5-0.4,1.2-1.1c-0.3-0.8-0.7-1.8-1.1-3h-4.3c-0.3,0.9-0.6,1.7-0.9,2.5
			c-0.4,1.3-0.2,1.5,1.5,1.7v0.6h-4.6v-0.6c1.3-0.2,1.6-0.3,2.3-2.1L59.6,17l0.6-0.1c1.3,3.4,2.6,7.2,3.9,10.7
			c0.6,1.7,0.8,1.9,2.2,2.1v0.6H61.4z M59.4,19.5c-0.6,1.7-1.3,3.5-1.9,5.1h3.7L59.4,19.5z"/>
		<path class="st1" d="M73.8,20.2c-0.3-1.3-0.9-2.6-2.8-2.6c-1.6,0-2.1,1.1-2.1,2.2c0,1.4,0.9,2.1,2.5,2.9c2.4,1.2,3.4,2.2,3.4,4.1
			c0,2.1-1.8,3.7-4.4,3.7c-1.2,0-2.2-0.3-3.1-0.7c-0.2-0.6-0.4-1.9-0.5-3l0.6-0.2c0.4,1.3,1.3,3.1,3.4,3.1c1.4,0,2.3-1,2.3-2.3
			c0-1.5-0.8-2.2-2.6-3.1c-2.1-1.1-3.3-2.1-3.3-4c0-1.8,1.5-3.5,4.1-3.5c1.1,0,2.2,0.3,2.6,0.4c0.1,0.7,0.2,1.5,0.3,2.8L73.8,20.2z"
			/>
		<path class="st1" d="M90.6,17.7c-1.7,0.2-1.8,0.3-1.8,1.9v8c0,1.7,0.2,1.7,1.8,1.9v0.6h-5.4v-0.6c1.7-0.2,1.8-0.2,1.8-1.9v-4h-6.8
			v4c0,1.7,0.2,1.7,1.8,1.9v0.6h-5.3v-0.6c1.6-0.2,1.8-0.2,1.8-1.9v-8c0-1.7-0.2-1.8-1.8-1.9v-0.6H82v0.6c-1.6,0.1-1.8,0.3-1.8,1.9
			v3.2h6.8v-3.2c0-1.7-0.2-1.8-1.8-1.9v-0.6h5.4V17.7z"/>
		<path class="st1" d="M97.5,17.1c1.4,0,2.6,0.3,3.4,0.9c0.8,0.6,1.3,1.5,1.3,2.8c0,2.9-2.5,4.1-4.4,4.1c-0.2,0-0.4,0-0.5,0
			l-1.4-0.4v3.1c0,1.7,0.1,1.7,2,1.9v0.6h-5.5v-0.6c1.7-0.2,1.8-0.3,1.8-2v-7.9c0-1.8-0.2-1.8-1.8-2v-0.6H97.5z M95.9,23.8
			c0.2,0.1,0.8,0.3,1.5,0.3c1.3,0,3-0.7,3-3.2c0-2.2-1.4-3.1-3.1-3.1c-0.6,0-1,0.1-1.1,0.2c-0.2,0.1-0.2,0.4-0.2,0.9V23.8z"/>
		<path class="st1" d="M115.8,30.3c-0.3,0-0.5,0-0.7,0c-1.5-0.1-2.2-0.5-3.1-1.7c-0.7-1-1.5-2.3-2.1-3.3c-0.4-0.6-0.7-0.8-1.7-0.8
			h-0.7v3.1c0,1.7,0.2,1.8,1.8,2v0.6h-5.3v-0.6c1.7-0.2,1.8-0.3,1.8-2v-8c0-1.7-0.2-1.8-1.8-1.9v-0.6h5.1c1.5,0,2.4,0.2,3.2,0.7
			c0.8,0.5,1.4,1.4,1.4,2.6c0,1.7-1.1,2.8-2.6,3.4c0.4,0.6,1.2,2,1.8,2.9c0.7,1.1,1.1,1.6,1.6,2.1c0.5,0.6,1,0.8,1.5,0.9L115.8,30.3
			z M108.4,23.8c1,0,1.7-0.2,2.2-0.6c0.8-0.6,1.1-1.4,1.1-2.5c0-2.1-1.4-2.9-3-2.9c-0.6,0-0.9,0.1-1.1,0.2c-0.2,0.1-0.2,0.3-0.2,0.9
			v4.9H108.4z"/>
		<path class="st1" d="M122.9,16.8c3.4,0,6.5,2.6,6.5,6.6c0,4.3-2.9,7-6.6,7c-3.8,0-6.6-2.9-6.6-6.7
			C116.2,20.2,118.7,16.8,122.9,16.8z M122.5,17.6c-2.2,0-4.3,1.9-4.3,5.6c0,3.7,2,6.5,4.9,6.5c2.4,0,4.2-1.8,4.2-5.7
			C127.4,19.8,125.2,17.6,122.5,17.6z"/>
	</g>
</g>
<path class="st1" d="M144.3-61.3h8.6c0.2,0,0.4,0,0.5,0.1c0.2,0.1,0.3,0.2,0.4,0.3c0.1,0.1,0.2,0.3,0.2,0.5c0,0.2,0,0.4,0,0.5
	l-6.8,23.1l6.4-1.9l-1.4,4.6l-6.4,1.9l-4.2,14h22.3c0.2,0,0.4,0,0.5,0.1c0.2,0.1,0.3,0.2,0.4,0.3c0.1,0.1,0.2,0.3,0.2,0.5
	c0,0.2,0,0.4,0,0.5l-1.9,6.7c-0.1,0.3-0.3,0.6-0.6,0.8c-0.3,0.2-0.6,0.3-0.9,0.3h-34l5.7-19.4l-6.4,1.9l1.4-4.5l6.4-1.9l8.1-27.3
	c0.1-0.3,0.3-0.6,0.5-0.8C143.6-61.2,143.9-61.3,144.3-61.3L144.3-61.3z"/>
</svg>
