<svg width="325" height="565" viewBox="0 0 325 565" fill="none" xmlns="http://www.w3.org/2000/svg">
<path d="M192.775 380.722C192.775 378.497 194.579 376.693 196.803 376.693C199.027 376.693 200.832 378.497 200.832 380.722C200.832 382.946 199.027 384.75 196.803 384.75C194.579 384.775 192.775 382.946 192.775 380.722Z" fill="url(#paint0_linear)"/>
<path d="M197.47 316.366H196.136V378.423H197.47V316.366Z" fill="url(#paint1_linear)"/>
<path d="M88.8517 290.614C88.8517 288.389 90.6559 286.585 92.8802 286.585C95.1044 286.585 96.9085 288.389 96.9085 290.614C96.9085 292.838 95.1044 294.642 92.8802 294.642C90.6559 294.642 88.8517 292.838 88.8517 290.614Z" fill="url(#paint2_linear)"/>
<path d="M93.5474 127.673H92.2128V288.291H93.5474V127.673Z" fill="url(#paint3_linear)"/>
<path d="M42.9081 151.745C42.9081 149.521 44.7122 147.717 46.9365 147.717C49.1608 147.717 50.9649 149.521 50.9649 151.745C50.9649 153.969 49.1608 155.773 46.9365 155.773C44.7369 155.798 42.9081 153.994 42.9081 151.745Z" fill="url(#paint4_linear)"/>
<path d="M47.6286 60.4508H46.294V149.446H47.6286V60.4508Z" fill="url(#paint5_linear)"/>
<path d="M167.641 221.884C167.641 219.659 169.445 217.855 171.669 217.855C173.893 217.855 175.697 219.659 175.697 221.884C175.697 224.108 173.893 225.912 171.669 225.912C169.445 225.937 167.641 224.108 167.641 221.884Z" fill="url(#paint6_linear)"/>
<path d="M172.336 130.59H171.002V219.585H172.336V130.59Z" fill="url(#paint7_linear)"/>
<path d="M295.165 228.903C295.165 226.678 296.97 224.874 299.194 224.874C301.418 224.874 303.222 226.678 303.222 228.903C303.222 231.127 301.418 232.931 299.194 232.931C296.97 232.931 295.165 231.127 295.165 228.903Z" fill="url(#paint8_linear)"/>
<path d="M299.886 137.608H298.551V226.604H299.886V137.608Z" fill="url(#paint9_linear)"/>
<path d="M155.802 296.273C155.802 294.049 157.606 292.245 159.831 292.245C162.055 292.245 163.859 294.049 163.859 296.273C163.859 298.498 162.055 300.302 159.831 300.302C157.606 300.326 155.802 298.498 155.802 296.273Z" fill="url(#paint10_linear)"/>
<path d="M160.523 127.055H159.188V293.95H160.523V127.055Z" fill="url(#paint11_linear)"/>
<path d="M179.256 265.677C179.256 263.453 181.06 261.649 183.285 261.649C185.509 261.649 187.313 263.453 187.313 265.677C187.313 267.901 185.509 269.706 183.285 269.706C181.06 269.706 179.256 267.901 179.256 265.677Z" fill="url(#paint12_linear)"/>
<path d="M183.976 130.12H182.642V263.354H183.976V130.12Z" fill="url(#paint13_linear)"/>
<path d="M121.771 442.655C121.771 440.431 123.575 438.627 125.799 438.627C128.024 438.627 129.828 440.431 129.828 442.655C129.828 444.879 128.024 446.684 125.799 446.684C123.6 446.684 121.771 444.879 121.771 442.655Z" fill="url(#paint14_linear)"/>
<path d="M126.491 133.308H125.157V440.332H126.491V133.308Z" fill="url(#paint15_linear)"/>
<path d="M239.287 309.347C239.287 307.123 241.091 305.319 243.315 305.319C245.539 305.319 247.344 307.123 247.344 309.347C247.344 311.571 245.539 313.375 243.315 313.375C241.091 313.375 239.287 311.571 239.287 309.347Z" fill="url(#paint16_linear)"/>
<path d="M244.007 0H242.673V307.024H244.007V0Z" fill="url(#paint17_linear)"/>
<path d="M300.454 326.523C300.454 324.299 302.258 322.495 304.483 322.495C306.707 322.495 308.511 324.299 308.511 326.523C308.511 328.748 306.707 330.552 304.483 330.552C302.258 330.552 300.454 328.748 300.454 326.523Z" fill="url(#paint18_linear)"/>
<path d="M305.15 17.1764H303.815V324.2H305.15V17.1764Z" fill="url(#paint19_linear)"/>
<path d="M53.6093 510.248C53.6093 508.024 55.4135 506.22 57.6378 506.22C59.862 506.22 61.6662 508.024 61.6662 510.248C61.6662 512.473 59.862 514.277 57.6378 514.277C55.4382 514.277 53.6093 512.473 53.6093 510.248Z" fill="url(#paint20_linear)"/>
<path d="M58.3298 200.901H56.9952V507.925H58.3298V200.901Z" fill="url(#paint21_linear)"/>
<path d="M311.427 388.63C311.427 386.406 313.232 384.602 315.456 384.602C317.68 384.602 319.484 386.406 319.484 388.63C319.484 390.854 317.68 392.659 315.456 392.659C313.232 392.659 311.427 390.854 311.427 388.63Z" fill="url(#paint22_linear)"/>
<path d="M316.148 79.2831H314.813V386.307H316.148V79.2831Z" fill="url(#paint23_linear)"/>
<path d="M0.894073 428.197C0.894073 425.973 2.69814 424.169 4.92242 424.169C7.14669 424.169 8.95084 425.973 8.95084 428.197C8.95084 430.422 7.14669 432.226 4.92242 432.226C2.69814 432.251 0.894073 430.446 0.894073 428.197Z" fill="url(#paint24_linear)"/>
<path d="M5.58974 256.014H4.25516V425.874H5.58974V256.014Z" fill="url(#paint25_linear)"/>
<path d="M70.3408 243.089C70.3408 240.864 72.1449 239.06 74.3692 239.06C76.5935 239.06 78.3976 240.864 78.3976 243.089C78.3976 245.313 76.5935 247.117 74.3692 247.117C72.1449 247.142 70.3408 245.338 70.3408 243.089Z" fill="url(#paint26_linear)"/>
<path d="M75.0612 117.763H73.7267V240.79H75.0612V117.763Z" fill="url(#paint27_linear)"/>
<path d="M289.976 460.202C289.976 457.978 291.78 456.174 294.004 456.174C296.228 456.174 298.032 457.978 298.032 460.202C298.032 462.427 296.228 464.231 294.004 464.231C291.78 464.231 289.976 462.427 289.976 460.202Z" fill="url(#paint28_linear)"/>
<path d="M294.696 287.994H293.361V457.855H294.696V287.994Z" fill="url(#paint29_linear)"/>
<defs>
<linearGradient id="paint0_linear" x1="196.804" y1="358.066" x2="196.804" y2="288.068" gradientUnits="userSpaceOnUse">
<stop stop-color="#A4FFFF"/>
<stop offset="1" stop-color="#A4FFFF" stop-opacity="0"/>
</linearGradient>
<linearGradient id="paint1_linear" x1="196.803" y1="364.217" x2="196.803" y2="315.388" gradientUnits="userSpaceOnUse">
<stop stop-color="#A4FFFF"/>
<stop offset="1" stop-color="#A4FFFF" stop-opacity="0"/>
</linearGradient>
<linearGradient id="paint2_linear" x1="92.8804" y1="267.943" x2="92.8804" y2="197.923" gradientUnits="userSpaceOnUse">
<stop stop-color="#A4FFFF"/>
<stop offset="1" stop-color="#A4FFFF" stop-opacity="0"/>
</linearGradient>
<linearGradient id="paint3_linear" x1="92.8791" y1="251.561" x2="92.8791" y2="125.179" gradientUnits="userSpaceOnUse">
<stop stop-color="#A4FFFF"/>
<stop offset="1" stop-color="#A4FFFF" stop-opacity="0"/>
</linearGradient>
<linearGradient id="paint4_linear" x1="46.9565" y1="129.083" x2="46.9565" y2="59.063" gradientUnits="userSpaceOnUse">
<stop stop-color="#A4FFFF"/>
<stop offset="1" stop-color="#A4FFFF" stop-opacity="0"/>
</linearGradient>
<linearGradient id="paint5_linear" x1="46.9553" y1="129.083" x2="46.9553" y2="59.0636" gradientUnits="userSpaceOnUse">
<stop stop-color="#A4FFFF"/>
<stop offset="1" stop-color="#A4FFFF" stop-opacity="0"/>
</linearGradient>
<linearGradient id="paint6_linear" x1="171.667" y1="199.207" x2="171.667" y2="129.166" gradientUnits="userSpaceOnUse">
<stop stop-color="#A4FFFF"/>
<stop offset="1" stop-color="#A4FFFF" stop-opacity="0"/>
</linearGradient>
<linearGradient id="paint7_linear" x1="171.666" y1="199.213" x2="171.666" y2="129.194" gradientUnits="userSpaceOnUse">
<stop stop-color="#A4FFFF"/>
<stop offset="1" stop-color="#A4FFFF" stop-opacity="0"/>
</linearGradient>
<linearGradient id="paint8_linear" x1="299.209" y1="206.234" x2="299.209" y2="136.214" gradientUnits="userSpaceOnUse">
<stop stop-color="#A4FFFF"/>
<stop offset="1" stop-color="#A4FFFF" stop-opacity="0"/>
</linearGradient>
<linearGradient id="paint9_linear" x1="299.207" y1="206.234" x2="299.207" y2="136.215" gradientUnits="userSpaceOnUse">
<stop stop-color="#A4FFFF"/>
<stop offset="1" stop-color="#A4FFFF" stop-opacity="0"/>
</linearGradient>
<linearGradient id="paint10_linear" x1="159.845" y1="256.788" x2="159.845" y2="132.089" gradientUnits="userSpaceOnUse">
<stop stop-color="#A4FFFF"/>
<stop offset="1" stop-color="#A4FFFF" stop-opacity="0"/>
</linearGradient>
<linearGradient id="paint11_linear" x1="159.846" y1="256.79" x2="159.846" y2="132.092" gradientUnits="userSpaceOnUse">
<stop stop-color="#A4FFFF"/>
<stop offset="1" stop-color="#A4FFFF" stop-opacity="0"/>
</linearGradient>
<linearGradient id="paint12_linear" x1="183.3" y1="226.18" x2="183.3" y2="101.481" gradientUnits="userSpaceOnUse">
<stop stop-color="#A4FFFF"/>
<stop offset="1" stop-color="#A4FFFF" stop-opacity="0"/>
</linearGradient>
<linearGradient id="paint13_linear" x1="183.301" y1="233.675" x2="183.301" y2="134.127" gradientUnits="userSpaceOnUse">
<stop stop-color="#A4FFFF"/>
<stop offset="1" stop-color="#A4FFFF" stop-opacity="0"/>
</linearGradient>
<linearGradient id="paint14_linear" x1="125.82" y1="403.166" x2="125.82" y2="278.467" gradientUnits="userSpaceOnUse">
<stop stop-color="#A4FFFF"/>
<stop offset="1" stop-color="#A4FFFF" stop-opacity="0"/>
</linearGradient>
<linearGradient id="paint15_linear" x1="125.82" y1="371.961" x2="125.82" y2="142.573" gradientUnits="userSpaceOnUse">
<stop stop-color="#A4FFFF"/>
<stop offset="1" stop-color="#A4FFFF" stop-opacity="0"/>
</linearGradient>
<linearGradient id="paint16_linear" x1="243.327" y1="269.841" x2="243.327" y2="145.104" gradientUnits="userSpaceOnUse">
<stop stop-color="#A4FFFF"/>
<stop offset="1" stop-color="#A4FFFF" stop-opacity="0"/>
</linearGradient>
<linearGradient id="paint17_linear" x1="243.327" y1="238.647" x2="243.327" y2="9.25916" gradientUnits="userSpaceOnUse">
<stop stop-color="#A4FFFF"/>
<stop offset="1" stop-color="#A4FFFF" stop-opacity="0"/>
</linearGradient>
<linearGradient id="paint18_linear" x1="304.486" y1="287.022" x2="304.486" y2="162.288" gradientUnits="userSpaceOnUse">
<stop stop-color="#A4FFFF"/>
<stop offset="1" stop-color="#A4FFFF" stop-opacity="0"/>
</linearGradient>
<linearGradient id="paint19_linear" x1="304.486" y1="255.831" x2="304.486" y2="26.441" gradientUnits="userSpaceOnUse">
<stop stop-color="#A4FFFF"/>
<stop offset="1" stop-color="#A4FFFF" stop-opacity="0"/>
</linearGradient>
<linearGradient id="paint20_linear" x1="57.6556" y1="470.758" x2="57.6556" y2="346.06" gradientUnits="userSpaceOnUse">
<stop stop-color="#A4FFFF"/>
<stop offset="1" stop-color="#A4FFFF" stop-opacity="0"/>
</linearGradient>
<linearGradient id="paint21_linear" x1="57.6555" y1="439.554" x2="57.6555" y2="210.168" gradientUnits="userSpaceOnUse">
<stop stop-color="#A4FFFF"/>
<stop offset="1" stop-color="#A4FFFF" stop-opacity="0"/>
</linearGradient>
<linearGradient id="paint22_linear" x1="315.467" y1="349.146" x2="315.467" y2="224.485" gradientUnits="userSpaceOnUse">
<stop stop-color="#A4FFFF"/>
<stop offset="1" stop-color="#A4FFFF" stop-opacity="0"/>
</linearGradient>
<linearGradient id="paint23_linear" x1="315.467" y1="317.93" x2="315.467" y2="88.5425" gradientUnits="userSpaceOnUse">
<stop stop-color="#A4FFFF"/>
<stop offset="1" stop-color="#A4FFFF" stop-opacity="0"/>
</linearGradient>
<linearGradient id="paint24_linear" x1="4.92567" y1="388.719" x2="4.92567" y2="264.02" gradientUnits="userSpaceOnUse">
<stop stop-color="#A4FFFF"/>
<stop offset="1" stop-color="#A4FFFF" stop-opacity="0"/>
</linearGradient>
<linearGradient id="paint25_linear" x1="4.92665" y1="388.058" x2="4.92665" y2="261.146" gradientUnits="userSpaceOnUse">
<stop stop-color="#A4FFFF"/>
<stop offset="1" stop-color="#A4FFFF" stop-opacity="0"/>
</linearGradient>
<linearGradient id="paint26_linear" x1="74.3858" y1="203.61" x2="74.3858" y2="78.9117" gradientUnits="userSpaceOnUse">
<stop stop-color="#A4FFFF"/>
<stop offset="1" stop-color="#A4FFFF" stop-opacity="0"/>
</linearGradient>
<linearGradient id="paint27_linear" x1="74.387" y1="213.385" x2="74.387" y2="121.474" gradientUnits="userSpaceOnUse">
<stop stop-color="#A4FFFF"/>
<stop offset="1" stop-color="#A4FFFF" stop-opacity="0"/>
</linearGradient>
<linearGradient id="paint28_linear" x1="294.022" y1="420.716" x2="294.022" y2="296.055" gradientUnits="userSpaceOnUse">
<stop stop-color="#A4FFFF"/>
<stop offset="1" stop-color="#A4FFFF" stop-opacity="0"/>
</linearGradient>
<linearGradient id="paint29_linear" x1="294.021" y1="420.044" x2="294.021" y2="293.129" gradientUnits="userSpaceOnUse">
<stop stop-color="#A4FFFF"/>
<stop offset="1" stop-color="#A4FFFF" stop-opacity="0"/>
</linearGradient>
</defs>
</svg>
